<svg width="72" height="72" viewBox="0 0 72 72" fill="none" xmlns="http://www.w3.org/2000/svg">
<g id="icon/24/ic_fav">
<path id="Path" fill-rule="evenodd" clip-rule="evenodd" d="M45.489 49.9351C44.892 50.4751 44.373 50.9431 43.95 51.3391C41.418 53.7001 38.418 56.4121 36 58.5781C33.585 56.4121 30.585 53.7001 28.05 51.3391C27.627 50.9431 27.105 50.4721 26.511 49.9351C21.723 45.6031 9 34.0981 9 24.2491C9 17.7361 14.298 12.4351 20.811 12.4351C26.976 12.4351 30.552 16.7371 30.645 16.8511L36 22.5631L41.352 16.8541C41.385 16.8091 45.021 12.4381 51.186 12.4381C57.702 12.4381 63 17.7361 63 24.2491C63 34.0981 50.277 45.6031 45.489 49.9351Z" fill="#EDEFF2"/>
<path id="Shape" fill-rule="evenodd" clip-rule="evenodd" d="M49.5 9C40.815 9 36 15.27 36 15.27C36 15.27 31.185 9 22.5 9C13.386 9 6 16.386 6 25.5C6 38.013 20.736 50.139 24.843 53.97C29.574 58.38 36 64.05 36 64.05C36 64.05 42.426 58.38 47.157 53.97C51.264 50.139 66 38.013 66 25.5C66 16.386 58.614 9 49.5 9ZM44.433 48.33C43.902 48.81 43.44 49.227 43.065 49.578C40.812 51.678 38.148 54.087 36 56.013C33.852 54.087 31.185 51.675 28.935 49.578C28.557 49.227 28.095 48.807 27.567 48.33C23.307 44.481 12 34.257 12 25.5C12 19.71 16.71 15 22.5 15C27.981 15 31.158 18.825 31.242 18.924L36 24L40.758 18.924C40.788 18.885 44.019 15 49.5 15C55.29 15 60 19.71 60 25.5C60 34.257 48.693 44.481 44.433 48.33Z" fill="#1A1919"/>
</g>
</svg>
