<svg width="72" height="72" viewBox="0 0 72 72" fill="none" xmlns="http://www.w3.org/2000/svg">
<g id="icon/24/ic_search">
<path id="Oval" fill-rule="evenodd" clip-rule="evenodd" d="M27 45C36.9411 45 45 36.9411 45 27C45 17.0589 36.9411 9 27 9C17.0589 9 9 17.0589 9 27C9 36.9411 17.0589 45 27 45Z" fill="#EDEFF2"/>
<path id="Combined Shape" fill-rule="evenodd" clip-rule="evenodd" d="M6 27C6 38.7 15.3 48 27 48C32.2491 48 37.0152 46.1281 40.6751 43.0073L42 44.3326V48L60 66L66 60L48 42H43.91L42.8116 40.9013C46.0497 37.2126 48 32.358 48 27C48 15.3 38.7 6 27 6C15.3 6 6 15.3 6 27ZM12 27C12 18.6 18.6 12 27 12C35.4 12 42 18.6 42 27C42 35.4 35.4 42 27 42C18.6 42 12 35.4 12 27Z" fill="#1A1919"/>
</g>
</svg>
