<svg width="144" height="144" viewBox="0 0 144 144" fill="none" xmlns="http://www.w3.org/2000/svg">
<g id="icon/48/ic_fav">
<path id="Path" fill-rule="evenodd" clip-rule="evenodd" d="M81.158 134.703C80.0008 134.193 79.2043 133.099 79.0734 131.837L77.4364 116.04H28.7532C19.5156 116.04 12 108.499 12 99.2303V31.81C12 22.5412 19.5156 15 28.7532 15H115.248C124.484 15 132 22.5412 132 31.81V99.2303C132 108.499 124.484 116.04 115.248 116.04H109.086L84.6709 134.301C84.0538 134.763 83.315 135 82.5698 135C82.0919 135 81.6112 134.902 81.158 134.703Z" fill="white" stroke="#DFE2E7"/>
<path id="Path_2" d="M71.9995 98.6682C71.4365 98.6682 70.8734 98.5327 70.3607 98.2617C69.9872 98.064 61.1167 93.3472 52.1262 86.2473C39.4946 76.2717 33.1207 66.7612 33.1821 57.9822C33.2224 52.1704 35.4865 46.7139 39.5587 42.616C43.6475 38.5025 49.0875 36.2366 54.8764 36.2366C61.6815 36.2366 67.963 39.4537 71.9995 44.6658C76.0361 39.4537 82.3175 36.2366 89.1226 36.2366C94.9628 36.2366 100.445 38.5263 104.559 42.6837C108.634 46.8018 110.857 52.2519 110.817 58.0307C110.757 66.7877 104.352 76.2799 91.7822 86.2436C82.8256 93.3435 74.0183 98.0594 73.6475 98.2571C73.132 98.5318 72.5653 98.6682 71.9995 98.6682Z" fill="#F30707"/>
<path id="Path_3" fill-rule="evenodd" clip-rule="evenodd" d="M104.56 42.6837C100.445 38.5263 94.9633 36.2366 89.1231 36.2366C82.4471 36.2366 76.2773 39.3338 72.2344 44.3719V98.6545C72.7214 98.6215 73.2039 98.4933 73.6479 98.2571C74.0187 98.0594 82.8261 93.3435 91.7827 86.2436C104.353 76.2799 110.757 66.7877 110.817 58.0316C110.858 52.2519 108.635 46.8018 104.56 42.6837Z" fill="#BA0000"/>
</g>
</svg>
