<svg width="144" height="144" viewBox="0 0 144 144" fill="none" xmlns="http://www.w3.org/2000/svg">
<g id="icon/48/ic_plus-car">
<g id="icons8-people_in_car_side_view">
<path id="Path" opacity="0.3" d="M135 69V105H122.4C122.4 103.8 122.4 103.2 122.4 102C122.4 93.6 115.8 87 107.4 87C99 87 93 93.6 93 102C93 103.2 93 103.8 93 105H44.4C45 103.8 45 103.2 45 102C45 93.6 38.4 87 30 87C21.6 87 15 93.6 15 102C15 103.2 15 103.8 15 105H9V63H105L135 69Z" fill="#BA0000"/>
<path id="Combined Shape" fill-rule="evenodd" clip-rule="evenodd" d="M3 99C3 104.098 6.222 108.48 10.7303 110.211C13.9929 117.657 21.4956 123 30 123C38.2008 123 45.4701 118.032 48.9042 111H89.0958C92.5299 118.032 99.7992 123 108 123C116.857 123 124.628 117.205 127.654 109.273L137.4 104.4C139.8 103.2 141 101.4 141 99V73.8C141 67.8 136.8 63 131.4 61.8L109.2 57.6L94.2 27C92.4 23.4 88.2 21 84 21H30.6C26.4 21 22.2 22.8 19.8 27L3.6 60.6C3 61.2 3 61.8 3 63V99ZM128.4 95.4L127.97 95.6152C125.201 87.2314 117.185 81 108 81C97.6161 81 88.7257 88.9649 87.2233 99H50.7767C49.2743 88.9649 40.3839 81 30 81C24.1874 81 18.8428 83.4958 15 87.4533V69H103.8L128.4 73.8V95.4ZM95.1818 57L83.4 33H63V57H75H95.1818ZM75 57C71.6863 57 69 54.3137 69 51C69 47.6863 71.6863 45 75 45C78.3137 45 81 47.6863 81 51C81 54.3137 78.3137 57 75 57ZM51 57V33H30.6L18.6 57H39H51ZM39 57C35.6863 57 33 54.3137 33 51C33 47.6863 35.6863 45 39 45C42.3137 45 45 47.6863 45 51C45 54.3137 42.3137 57 39 57ZM30 93C25.2 93 21 97.2 21 102C21 106.8 25.2 111 30 111C34.8 111 39 106.8 39 102C39 97.2 34.8 93 30 93ZM99 102C99 97.2 103.2 93 108 93C112.8 93 117 97.2 117 102C117 106.8 112.8 111 108 111C103.2 111 99 106.8 99 102Z" fill="#1A1919"/>
</g>
</g>
</svg>
