<svg width="144" height="144" viewBox="0 0 144 144" fill="none" xmlns="http://www.w3.org/2000/svg">
<g id="icon/48/ic_plus-care">
<g id="icons8-trust">
<g id="Group" opacity="0.3">
<path id="Path" d="M107.85 18C102.666 18 96.666 21.432 92.598 24.27C88.896 21.444 83.322 18 78.15 18C71.448 18 66 23.448 66 30.15L66.036 30.786C66.996 39.708 85.308 56.742 88.968 60.066L92.994 63.72L97.026 60.072C102.168 55.416 119.028 39.522 119.964 30.66L120 30.03C120 23.394 114.546 18 107.85 18Z" fill="#BA0000"/>
</g>
<path id="Combined Shape" fill-rule="evenodd" clip-rule="evenodd" d="M107.85 12C98.298 12 93 18.894 93 18.894C93 18.894 87.702 12 78.15 12C68.124 12 60 20.124 60 30.15C60 45 93 71.4 93 71.4C93 71.4 126 45 126 30.15C126 20.124 117.876 12 107.85 12ZM93.006 55.626C81.852 45.504 72.444 34.296 72 30.15C72 26.76 74.76 24 78.15 24C84.03 24 92.394 31.956 92.394 31.956C92.394 31.956 101.958 24 107.85 24C111.24 24 114 26.76 114.006 30.036C113.55 34.344 104.274 45.426 93.006 55.626ZM117.516 74.484C120.828 71.172 126.204 71.172 129.516 74.484C132.828 77.796 132.828 83.172 129.516 86.484L99.516 116.484C97.266 118.734 94.212 120 91.032 120H48L36 132L12 108L34.974 85.032C39.474 80.526 45.576 78 51.942 78H90V84C90 90.63 84.63 96 78 96H66C64.344 96 63 97.344 63 99C63 100.656 64.344 102 66 102H90L117.516 74.484Z" fill="#1A1919"/>
</g>
</g>
</svg>
