<svg width="72" height="72" viewBox="0 0 72 72" fill="none" xmlns="http://www.w3.org/2000/svg">
<g id="ic_credit_card">
<path id="Mask" fill-rule="evenodd" clip-rule="evenodd" d="M60 12H12C8.67 12 6.03 14.67 6.03 18L6 54C6 57.33 8.67 60 12 60H60C63.33 60 66 57.33 66 54V18C66 14.67 63.33 12 60 12ZM60 54H12V36H60V54ZM60 24H12V18H60V24Z" fill="#C4C6CC"/>
<mask id="mask0" mask-type="alpha" maskUnits="userSpaceOnUse" x="6" y="12" width="60" height="48">
<path id="Mask_2" fill-rule="evenodd" clip-rule="evenodd" d="M60 12H12C8.67 12 6.03 14.67 6.03 18L6 54C6 57.33 8.67 60 12 60H60C63.33 60 66 57.33 66 54V18C66 14.67 63.33 12 60 12ZM60 54H12V36H60V54ZM60 24H12V18H60V24Z" fill="white"/>
</mask>
<g mask="url(#mask0)">
</g>
</g>
</svg>
