<svg width="40" height="38" viewBox="0 0 40 38" fill="none" xmlns="http://www.w3.org/2000/svg">
<path d="M30.7146 3.47333C29.5232 1.2205 28.0961 0.0787659 26.4726 0.0787659C24.6038 0.0787659 22.6629 1.62294 20.7019 4.6706C20.4511 5.06072 20.2161 5.45075 19.9994 5.82727C19.7828 5.45075 19.5478 5.06072 19.2964 4.6706C17.3365 1.62294 15.395 0.0787659 13.5262 0.0787659C11.9028 0.0787659 10.4751 1.2205 9.28434 3.47333C8.39395 5.15947 8.71496 6.37041 9.14098 7.08886C9.90871 8.3837 11.625 9.25644 14.388 9.7551C16.5095 10.139 18.7544 10.1958 19.9036 10.1958H19.9043C19.9366 10.1958 19.9683 10.1958 19.9995 10.1958C20.0312 10.1958 20.0629 10.1958 20.0954 10.1958C21.2446 10.1958 23.4895 10.139 25.6111 9.7551C28.3734 9.25644 30.0897 8.3837 30.8588 7.08886C31.2834 6.37041 31.6057 5.15947 30.7146 3.47333Z" fill="#BA0000"/>
<path d="M35.8317 14.6754H4.1668C3.24641 14.6754 2.5 15.4296 2.5 16.3603V36.314C2.5 37.2447 3.24641 37.9989 4.1668 37.9989H35.8318C36.7522 37.9989 37.4993 37.2447 37.4993 36.314V16.3603C37.4992 15.4296 36.7522 14.6754 35.8317 14.6754Z" fill="#C4C6CC"/>
<path d="M39.9991 17.7761C39.9991 18.7068 39.252 19.4611 38.3316 19.4611H1.66688C0.746484 19.461 0 18.7067 0 17.776V9.34903C0 8.41831 0.746484 7.66281 1.66688 7.66281H38.3317C39.2521 7.66281 39.9991 8.41823 39.9991 9.34903V17.7761H39.9991Z" fill="#C4C6CC"/>
<rect x="15.834" y="7.66257" width="8.33438" height="11.7966" fill="#BA0000"/>
<path d="M2.5 21.1274L37.4992 24.3454V19.5141H2.5V21.1274Z" fill="#939599"/>
<rect x="15.834" y="19.4599" width="8.33438" height="18.5394" fill="#BA0000"/>
<path d="M15.832 22.3531L24.1663 23.1196V19.5141H15.832V22.3531Z" fill="#870000"/>
</svg>
