<svg width="144" height="144" viewBox="0 0 144 144" fill="none" xmlns="http://www.w3.org/2000/svg">
<g id="icon/48/ic_plus-sale">
<g id="icons8-online_shop_sale">
<path id="Path" opacity="0.3" d="M24 15H108V33L120 69H12L24 33V15Z" fill="#BA0000"/>
<path id="Combined Shape" fill-rule="evenodd" clip-rule="evenodd" d="M114 15V33L126 63V75H24V105H78V117H24C17.4 117 12 111.6 12 105V75H6V63L18 33V15C18 11.4 20.4 9 24 9H108C111.6 9 114 11.4 114 15ZM30 35.4L19.2 63H112.8L102 35.4V21H30V35.4ZM36 33C36 29.4 38.4 27 42 27C45.6 27 48 29.4 48 33C48 36.6 45.6 39 42 39C38.4 39 36 36.6 36 33ZM60 27C56.4 27 54 29.4 54 33C54 36.6 56.4 39 60 39C63.6 39 66 36.6 66 33C66 29.4 63.6 27 60 27ZM120 126C120 121.2 124.2 117 129 117C133.8 117 138 121.2 138 126C138 130.8 133.8 135 129 135C124.2 135 120 130.8 120 126ZM99 87C94.2 87 90 91.2 90 96C90 100.8 94.2 105 99 105C103.8 105 108 100.8 108 96C108 91.2 103.8 87 99 87ZM138 87L102.6 135H90L125.4 87H138Z" fill="#1A1919"/>
</g>
</g>
</svg>
