<svg width="72" height="72" viewBox="0 0 72 72" fill="none" xmlns="http://www.w3.org/2000/svg">
<g id="ic_queue">
<path id="Mask" fill-rule="evenodd" clip-rule="evenodd" d="M12 18H6V60C6 63.3 8.7 66 12 66H54V60H12V18ZM60 6H24C20.7 6 18 8.7 18 12V48C18 51.3 20.7 54 24 54H60C63.3 54 66 51.3 66 48V12C66 8.7 63.3 6 60 6ZM57 33H45V45H39V33H27V27H39V15H45V27H57V33Z"/>
<mask id="mask0" mask-type="alpha" maskUnits="userSpaceOnUse" x="6" y="6" width="60" height="60">
<path id="Mask_2" fill-rule="evenodd" clip-rule="evenodd" d="M12 18H6V60C6 63.3 8.7 66 12 66H54V60H12V18ZM60 6H24C20.7 6 18 8.7 18 12V48C18 51.3 20.7 54 24 54H60C63.3 54 66 51.3 66 48V12C66 8.7 63.3 6 60 6ZM57 33H45V45H39V33H27V27H39V15H45V27H57V33Z" fill="white"/>
</mask>
<g mask="url(#mask0)">
</g>
</g>
</svg>
