<svg width="72" height="72" viewBox="0 0 72 72" fill="none" xmlns="http://www.w3.org/2000/svg">
<g id="ic_account_circle">
<path id="Mask" fill-rule="evenodd" clip-rule="evenodd" d="M36 6C19.44 6 6 19.44 6 36C6 52.56 19.44 66 36 66C52.56 66 66 52.56 66 36C66 19.44 52.56 6 36 6ZM36 15C40.98 15 45 19.02 45 24C45 28.98 40.98 33 36 33C31.02 33 27 28.98 27 24C27 19.02 31.02 15 36 15ZM36 57.6C28.5 57.6 21.87 53.76 18 47.94C18.09 41.97 30 38.7 36 38.7C41.97 38.7 53.91 41.97 54 47.94C50.13 53.76 43.5 57.6 36 57.6Z" fill="#C4C6CC"/>
<mask id="mask0" mask-type="alpha" maskUnits="userSpaceOnUse" x="6" y="6" width="60" height="60">
<path id="Mask_2" fill-rule="evenodd" clip-rule="evenodd" d="M36 6C19.44 6 6 19.44 6 36C6 52.56 19.44 66 36 66C52.56 66 66 52.56 66 36C66 19.44 52.56 6 36 6ZM36 15C40.98 15 45 19.02 45 24C45 28.98 40.98 33 36 33C31.02 33 27 28.98 27 24C27 19.02 31.02 15 36 15ZM36 57.6C28.5 57.6 21.87 53.76 18 47.94C18.09 41.97 30 38.7 36 38.7C41.97 38.7 53.91 41.97 54 47.94C50.13 53.76 43.5 57.6 36 57.6Z" fill="white"/>
</mask>
<g mask="url(#mask0)">
</g>
</g>
</svg>
