<svg width="72" height="72" viewBox="0 0 72 72" fill="none" xmlns="http://www.w3.org/2000/svg">
<g id="icon/24/ic_shopping_cart">
<path id="Path" d="M18.7104 15H62.9964L52.1875 34.458C51.6565 35.409 50.6515 36 49.5625 36H25.0434L18.7104 15Z" fill="#EDEFF2"/>
<path id="Combined Shape" fill-rule="evenodd" clip-rule="evenodd" d="M23.8257 50.9998H59.9997V44.9998H23.8257L23.6307 44.6488L27.1606 38.9998H49.5627C51.7437 38.9998 53.7537 37.8148 54.8097 35.9128L65.6187 16.4578C66.1377 15.5278 66.1227 14.3968 65.5827 13.4788C65.0427 12.5638 64.0587 11.9998 62.9967 11.9998H18.7483L16.2447 5.99084L6.01172 6.03884L6.03872 12.0388L12.2517 12.0088L22.1337 35.7238L18.5427 41.4718C17.3427 43.3918 17.2797 45.8158 18.3777 47.7928C19.4757 49.7698 21.5637 50.9998 23.8257 50.9998ZM21.2482 17.9998H57.8967L49.5627 32.9998H27.4978L21.2482 17.9998ZM53.9997 65.9998C57.3134 65.9998 59.9997 63.3136 59.9997 59.9998C59.9997 56.6861 57.3134 53.9998 53.9997 53.9998C50.686 53.9998 47.9997 56.6861 47.9997 59.9998C47.9997 63.3136 50.686 65.9998 53.9997 65.9998ZM29.9997 59.9998C29.9997 63.3136 27.3134 65.9998 23.9997 65.9998C20.686 65.9998 17.9997 63.3136 17.9997 59.9998C17.9997 56.6861 20.686 53.9998 23.9997 53.9998C27.3134 53.9998 29.9997 56.6861 29.9997 59.9998Z" fill="#1A1919"/>
</g>
</svg>
