<svg width="72" height="72" viewBox="0 0 72 72" fill="none" xmlns="http://www.w3.org/2000/svg">
<g id="ic_check_circle">
<path id="Mask" fill-rule="evenodd" clip-rule="evenodd" d="M36 6C19.44 6 6 19.44 6 36C6 52.56 19.44 66 36 66C52.56 66 66 52.56 66 36C66 19.44 52.56 6 36 6ZM30 51L15 36L19.23 31.77L30 42.51L52.77 19.74L57 24L30 51Z" fill="#C4C6CC"/>
<mask id="mask0" mask-type="alpha" maskUnits="userSpaceOnUse" x="6" y="6" width="60" height="60">
<path id="Mask_2" fill-rule="evenodd" clip-rule="evenodd" d="M36 6C19.44 6 6 19.44 6 36C6 52.56 19.44 66 36 66C52.56 66 66 52.56 66 36C66 19.44 52.56 6 36 6ZM30 51L15 36L19.23 31.77L30 42.51L52.77 19.74L57 24L30 51Z" fill="white"/>
</mask>
<g mask="url(#mask0)">
</g>
</g>
</svg>
