<svg width="240" height="192" viewBox="0 0 240 192" fill="none" xmlns="http://www.w3.org/2000/svg">
<g id="logo/mastercard">
<g id="mc_vrt_pos">
<path id="Shape" fill-rule="evenodd" clip-rule="evenodd" d="M205.715 158.422V144.316H202.45V152.498C201.28 150.989 199.457 150.137 197.552 150.207C193.043 150.207 189.389 153.87 189.389 158.389C189.389 162.908 193.043 166.571 197.552 166.571C199.457 166.641 201.28 165.789 202.45 164.28V166.178H205.715V158.422ZM104.491 150.6H110.074L110.107 153.709H104.556V160.844C104.556 162.415 105.176 163.462 106.809 163.462C107.869 163.427 108.902 163.123 109.813 162.578L110.793 165.491C109.52 166.287 108.048 166.707 106.548 166.702C102.531 166.702 101.127 164.542 101.127 160.909V153.709H97.9599V150.6H101.062V145.855H104.491V150.6ZM59.3477 156.425V166.244L55.9191 166.309V157.604C55.9191 154.953 54.8089 153.48 52.4906 153.48C51.4031 153.427 50.3483 153.86 49.6107 154.663C48.873 155.465 48.5285 156.554 48.6701 157.636V166.309H45.2416V157.604C45.2416 154.953 44.0987 153.48 41.8457 153.48C40.7565 153.421 39.698 153.853 38.959 154.657C38.22 155.461 37.8776 156.553 38.0253 157.636V166.244H34.5967V150.6H37.9926V152.531C38.9976 150.999 40.737 150.115 42.564 150.207C44.6624 150.117 46.6421 151.184 47.7232 152.989C48.9091 151.129 51.0111 150.063 53.2089 150.207C54.8767 150.109 56.5059 150.735 57.6809 151.925C58.856 153.116 59.4632 154.755 59.3477 156.425ZM139.037 150.207C137.351 150.158 135.772 151.037 134.923 152.498V150.6H131.56V166.244H134.956V157.473C134.956 154.887 136.066 153.447 138.221 153.447C138.948 153.437 139.669 153.571 140.344 153.84L141.389 150.567C140.613 150.289 139.796 150.145 138.972 150.142L139.037 150.207ZM88.8824 150.207C91.1174 150.13 93.3275 150.698 95.2497 151.844L93.7477 154.593C92.2564 153.733 90.57 153.271 88.8497 153.251C86.9885 153.251 85.8783 154.036 85.8783 155.084C85.8783 156.131 87.0538 156.425 88.5232 156.622L90.1559 156.851C93.5518 157.342 95.6089 158.553 95.6089 161.531C95.6089 164.509 92.9967 166.636 88.4906 166.636C86.0788 166.703 83.7095 165.992 81.7314 164.607L83.364 161.956C84.8623 163.07 86.691 163.647 88.5559 163.593C90.8742 163.593 92.1151 162.905 92.1151 161.695C92.1151 160.811 91.2334 160.32 89.3722 160.058L87.7395 159.829C84.2457 159.338 82.3518 157.767 82.3518 155.215C82.3518 152.105 84.9314 150.207 88.8824 150.207ZM186.205 150.207C184.518 150.158 182.94 151.037 182.091 152.498V150.6H178.727V166.244H182.123V157.473C182.123 154.887 183.233 153.447 185.389 153.447C186.115 153.437 186.836 153.571 187.511 153.84L188.556 150.567C187.78 150.289 186.963 150.145 186.14 150.142L186.205 150.207ZM144.81 164.324C143.225 162.766 142.368 160.612 142.45 158.389V158.324C142.368 156.101 143.225 153.946 144.81 152.389C146.394 150.832 148.56 150.016 150.776 150.142C152.815 150.038 154.819 150.703 156.393 152.007L154.76 154.756C153.586 153.859 152.155 153.366 150.678 153.349C148.075 153.56 146.07 155.739 146.07 158.356C146.07 160.974 148.075 163.153 150.678 163.364C152.155 163.347 153.586 162.854 154.76 161.956L156.393 164.705C154.819 166.009 152.815 166.675 150.776 166.571C148.56 166.697 146.394 165.881 144.81 164.324ZM174.254 158.389V150.6H170.858V152.498C169.688 150.989 167.865 150.137 165.96 150.207C161.451 150.207 157.797 153.87 157.797 158.389C157.797 162.908 161.451 166.571 165.96 166.571C167.865 166.641 169.688 165.789 170.858 164.28V166.178H174.254V158.389ZM166.504 153.942C163.939 153.845 161.768 155.821 161.617 158.389C161.53 159.696 161.992 160.98 162.891 161.931C163.791 162.882 165.045 163.413 166.352 163.396C168.918 163.383 171.004 161.316 171.045 158.744C171.087 156.172 169.069 154.038 166.504 153.942ZM120.637 150.207C116.129 150.271 112.525 153.985 112.589 158.504C112.652 163.022 116.358 166.634 120.866 166.571C123.215 166.692 125.525 165.934 127.348 164.444L125.715 161.924C124.426 162.96 122.829 163.536 121.176 163.56C118.842 163.761 116.772 162.064 116.507 159.731H128.099V158.422C128.099 153.513 125.062 150.24 120.686 150.24L120.637 150.207ZM123.398 154.329C122.657 153.617 121.664 153.229 120.637 153.251H120.572C118.39 153.176 116.548 154.862 116.425 157.047H124.589C124.567 156.019 124.139 155.041 123.398 154.329ZM211.42 163.969C211.619 163.972 211.816 164.01 212.001 164.084C212.188 164.16 212.36 164.271 212.507 164.411C212.65 164.552 212.767 164.718 212.85 164.902C213.017 165.288 213.017 165.726 212.85 166.113C212.767 166.296 212.65 166.463 212.507 166.604C212.36 166.743 212.188 166.854 212.001 166.931C211.805 167.017 211.594 167.062 211.38 167.062C210.749 167.057 210.176 166.687 209.911 166.113C209.746 165.726 209.746 165.288 209.911 164.902C209.994 164.718 210.11 164.552 210.254 164.411C210.401 164.271 210.572 164.16 210.76 164.084C210.973 163.999 211.201 163.96 211.429 163.969H211.42ZM211.394 166.735C211.553 166.734 211.709 166.7 211.854 166.636C211.994 166.574 212.122 166.485 212.229 166.375C212.653 165.912 212.653 165.201 212.229 164.738C212.122 164.628 211.994 164.539 211.854 164.476C211.704 164.411 211.543 164.378 211.38 164.378C211.218 164.379 211.057 164.412 210.907 164.476C210.76 164.537 210.627 164.626 210.515 164.738C210.092 165.201 210.092 165.912 210.515 166.375C210.627 166.487 210.76 166.576 210.907 166.636C211.072 166.708 211.25 166.741 211.429 166.735H211.394ZM211.903 164.918C211.781 164.826 211.631 164.78 211.478 164.787L210.793 164.804V166.244H211.103V165.704H211.25L211.691 166.244H212.066L211.593 165.704C211.72 165.694 211.841 165.643 211.935 165.556C212.013 165.479 212.054 165.372 212.05 165.262C212.059 165.13 212.004 165.002 211.903 164.918ZM211.119 165.065V165.458H211.478C211.542 165.477 211.61 165.477 211.674 165.458C211.698 165.412 211.698 165.357 211.674 165.311C211.698 165.265 211.698 165.21 211.674 165.164C211.61 165.145 211.542 165.145 211.478 165.164L211.119 165.065ZM198.047 153.974C195.482 153.878 193.311 155.854 193.16 158.422C193.073 159.729 193.535 161.013 194.434 161.964C195.333 162.914 196.588 163.446 197.895 163.429C200.461 163.416 202.546 161.349 202.588 158.776C202.629 156.204 200.612 154.071 198.047 153.974ZM78.4987 158.422V150.6H75.1028V152.498C73.9328 150.989 72.1101 150.137 70.2048 150.207C65.6964 150.207 62.0416 153.87 62.0416 158.389C62.0416 162.908 65.6964 166.571 70.2048 166.571C72.1101 166.641 73.9328 165.789 75.1028 164.28V166.178H78.4987V158.422ZM70.7492 153.974C68.1843 153.878 66.013 155.854 65.862 158.422H65.8293C65.7422 159.735 66.2085 161.024 67.1148 161.976C68.021 162.928 69.2842 163.455 70.5967 163.429C73.1633 163.416 75.2485 161.349 75.2899 158.776C75.3314 156.204 73.314 154.071 70.7492 153.974Z" fill="#231F20"/>
<g id="_Group_">
<rect id="Rectangle" x="94.1221" y="31.3909" width="51.4286" height="92.6345" fill="#FF5F00"/>
<path id="_Path_" fill-rule="evenodd" clip-rule="evenodd" d="M97.3886 77.7164C97.3693 59.637 105.648 42.5534 119.838 31.3909C95.7392 12.4092 61.1331 15.174 40.3394 37.7424C19.5457 60.3108 19.5457 95.1056 40.3394 117.674C61.1331 140.242 95.7392 143.007 119.838 124.025C105.652 112.866 97.3743 95.79 97.3886 77.7164Z" fill="#EB001B"/>
<path id="Path" fill-rule="evenodd" clip-rule="evenodd" d="M214.938 77.7164C214.937 100.271 202.088 120.845 181.847 130.702C161.606 140.558 137.527 137.965 119.836 124.025C134.015 112.857 142.294 95.7828 142.294 77.7082C142.294 59.6336 134.015 42.5594 119.836 31.3909C137.527 17.4509 161.606 14.8585 181.847 24.7147C202.088 34.5709 214.937 55.1454 214.938 77.7V77.7164Z" fill="#F79E1B"/>
<path id="Shape_2" fill-rule="evenodd" clip-rule="evenodd" d="M209.928 112.712V116.558H209.408V112.712H208.146V111.916H211.091V112.712H209.928ZM215.646 111.916V116.558L215.126 116.591V113.077L214.16 116.094H213.492L212.527 113.077V116.558H211.883V111.916H212.675L213.715 115.232L214.754 111.916H215.646Z" fill="#F79E1B"/>
</g>
</g>
</g>
</svg>
