<svg width="366" height="192" viewBox="0 0 366 192" fill="none" xmlns="http://www.w3.org/2000/svg">
<g id="logo/pochta">
<g id="logo">
<path id="Fill-1" d="M0 185.035H176.844V7.04649H0V185.035Z" fill="#001689"/>
<g id="Group-365">
<path id="Fill-2" d="M53.6892 64.5519C54.9952 67.4518 57.1288 70.4281 62.9775 74.4456C64.2741 75.3446 65.7173 77.2147 64.6245 79.8456C63.5151 82.4734 61.4626 86.2084 62.6853 87.6652C63.9258 89.1198 68.3292 89.8764 71.9092 88.4302C71.9092 88.4302 72.6609 90.7053 73.9741 92.1631C73.9741 92.1631 73.3544 93.4178 71.2926 92.7847C71.2926 92.7847 72.0433 94.6538 71.0077 96.6631C71.0077 96.6631 68.6058 96.2487 67.5764 94.029C67.5764 94.029 66.6084 95.7578 64.6848 96.3826C64.6848 96.3826 63.1023 95.559 63.4548 92.364C63.4548 92.364 62.2788 95.2084 58.7103 95.6867C58.7103 95.6867 56.6422 93.062 59.3227 89.5321C59.3227 89.5321 57.396 91.2631 53.9013 90.4311C53.9013 90.4311 53.345 88.6353 56.5028 86.1414C56.5028 86.1414 52.9271 86.0012 51.5566 82.958C51.5566 82.958 53.0674 81.0857 56.7753 81.5044C56.7753 81.5044 53.345 80.7383 52.585 76.5889C52.585 76.5889 55.0607 74.9971 58.9806 77.5559C58.9806 77.5559 58.284 76.2446 56.6422 74.9302C54.9952 73.6137 52.9978 69.9456 53.6892 64.5519Z" fill="white"/>
<path id="Fill-4" d="M68.0797 106.294C67.5514 105.596 67.1657 104.901 66.8818 104.232C67.4963 109.266 67.7095 112.66 70.4139 115.922C70.4139 115.922 72.0422 113.741 70.9941 108.44C70.545 108.308 70.0282 108.09 69.5405 107.757C69.5405 107.757 70.1561 109.909 69.7651 112.073C69.7651 112.073 68.8002 111.363 68.0797 106.294Z" fill="white"/>
<path id="Fill-6" d="M63.4057 105.771C63.0833 105.362 62.4615 104.492 62.1309 103.876C61.9094 106.802 61.1379 114.491 63.702 116.903C63.702 116.903 65.4592 115.608 66.0737 104.381C65.7036 105.011 65.0495 105.681 64.7314 106.048C64.7314 106.048 65.1597 109.608 63.8923 112.122C63.8923 112.122 62.6206 111.15 63.4057 105.771Z" fill="white"/>
<path id="Fill-8" d="M57.2993 111.65C59.4443 109.056 60.0942 101.283 60.0942 101.283C60.3926 101.081 60.6879 100.862 60.9978 100.619C61.1059 100.52 61.2307 100.418 61.344 100.307C61.344 100.588 61.3554 100.885 61.3835 101.177C61.0716 105.858 60.7056 110.677 59.252 113.077C57.8337 115.431 55.2146 116.651 55.2146 116.651C52.768 112.26 55.7261 106.375 58.2143 102.281C58.5117 102.165 58.8215 102.018 59.1397 101.858C58.2704 105.008 56.612 108.758 57.2993 111.65Z" fill="white"/>
<path id="Fill-10" d="M51.2162 98.1583C51.2037 98.6565 51.2963 99.0719 51.3649 99.276C51.3878 99.3576 51.4242 99.478 51.4782 99.5973C49.4247 101.624 47.9014 103.566 44.8611 107.818C41.8146 112.073 36.9932 112.242 36.9932 112.242C37.4611 108.796 38.3875 106.074 40.9724 103.137C43.551 100.202 46.8544 97.5189 49.276 95.7461C49.8957 96.0266 50.714 96.2108 51.7392 96.0873C51.8182 96.0821 51.9025 96.0726 51.9763 96.0528C51.654 96.485 51.4554 96.914 51.3566 97.3086C49.5131 98.3687 44.1842 101.086 42.0246 105.477C42.0246 105.477 45.3966 104.404 51.2162 98.1583Z" fill="white"/>
<path id="Fill-12" d="M47.3977 93.8711L47.5952 93.5058C47.6732 93.3834 47.7335 93.2756 47.8146 93.173C45.8307 93.9464 38.7717 96.6276 36.4884 97.8164C34.2009 99.0136 30.8944 101.715 29.0977 107.214C29.0977 107.214 33.8619 107.64 37.7943 104.37C41.7278 101.087 46.3111 96.5198 48.2679 95.0683C48.0714 94.8872 47.9196 94.7093 47.8146 94.5597C47.8146 94.5597 42.491 99.3004 36.8668 101.353C36.8668 101.353 38.0678 99.1507 40.295 97.5569C43.0015 95.6229 45.0301 94.972 47.3977 93.8711Z" fill="white"/>
<path id="Fill-14" d="M43.3556 90.6206C43.4346 90.4312 43.5126 90.2522 43.5927 90.0858C41.2605 90.5589 35.444 91.2632 32.8373 92.0606C30.2389 92.8696 25.5339 94.7826 22.7432 100.147C22.7432 100.147 26.8399 101.416 34.5706 97.7578C42.3013 94.0929 44.7292 93.3311 46.2015 92.9365C45.0297 92.8518 44.1916 92.452 43.7642 92.183C40.6792 93.5676 36.5534 95.2001 32.4598 95.3111C32.4598 95.3111 34.4728 93.8773 36.6013 92.9721C38.896 92.0083 41.43 91.1261 43.3556 90.6206Z" fill="white"/>
<path id="Fill-16" d="M43.5563 86.7693C44.3112 87.1252 44.8913 87.3031 45.8822 87.4056C45.3447 87.7593 44.8342 88.2031 44.3767 88.8048C41.6493 89.596 37.0005 90.4573 29.3353 91.015C21.6774 91.5645 17.5869 90.1538 17.5869 90.1538C20.2571 88.5097 24.5139 86.8416 27.3961 86.2817C30.2742 85.7207 37.8365 85.7856 41.1502 85.3293C41.1866 85.3681 41.588 85.6946 42.242 86.0923C39.4544 86.3424 33.5121 86.6197 30.451 88.1905C30.451 88.1905 36.1042 88.945 43.5563 86.7693Z" fill="white"/>
<path id="Fill-18" d="M42.9778 82.3334C43.3666 82.1031 43.8314 81.875 44.4043 81.6615C40.5208 80.4821 35.1982 78.5889 27.1774 78.0667C21.3016 77.6785 17.0614 78.0175 14.8623 78.5889C14.8623 78.5889 20.2192 82.3825 26.3341 83.72C32.4605 85.0637 37.4306 84.2171 41.0635 84.2495C41.2985 83.8895 41.572 83.4803 41.9993 83.0753C37.7477 83.1036 30.6824 81.9943 28.1537 81.1445C28.1537 81.1445 34.3175 79.8542 42.9778 82.3334Z" fill="white"/>
<path id="Fill-20" d="M42.9559 77.7427C42.9767 77.8536 43.4342 80.0555 45.9692 81.2705C40.5187 78.8729 29.7914 77.4915 24.0186 75.0772C16.2244 71.8142 14.7979 67.7443 14.7979 67.7443C21.5481 67.5622 27.0027 69.2188 31.2096 70.5207C36.1309 72.036 43.6276 74.8574 46.251 76.0348C45.2767 76.0724 44.1901 76.3613 43.2824 76.9714C39.6214 75.5555 37.913 74.9568 34.5889 74.0192C31.9572 73.2772 30.0212 73.1349 28.3783 72.9768C28.3783 72.9768 30.6877 74.5121 34.4922 75.7334C38.2634 76.9515 39.8959 77.1524 42.9559 77.7427Z" fill="white"/>
<path id="Fill-22" d="M42.5486 71.7563C42.7659 72.1445 43.4085 73.0707 43.6653 73.438C35.0508 71.9865 25.5785 65.4312 22.6495 61.3655C19.7215 57.2987 20.5481 51.2331 20.5481 51.2331C23.3898 51.8056 29.565 57.1669 31.1631 58.7816C32.7664 60.388 37.591 65.1214 40.9359 67.7586L41.9768 70.8102C39.1122 68.4891 35.7142 65.9042 33.5993 64.2978C31.9689 63.0629 29.5276 61.3048 27.0986 60.4749C27.0986 60.4749 29.3352 63.4041 31.1392 64.8357C33.2229 66.4913 35.3409 67.9281 37.0784 68.8888C38.6245 69.7438 39.4168 70.2263 42.5486 71.7563Z" fill="white"/>
<path id="Fill-24" d="M66.8417 96.0233C67.1048 95.79 67.3366 95.565 67.5176 95.363C67.9148 95.8632 69.2477 97.5324 69.907 99.2005C70.3977 100.623 70.9291 102.559 71.19 103.668C71.4541 104.769 72.2329 107.079 72.7112 107.868C72.7112 107.868 70.6151 108.134 69.0606 106.305C67.5342 104.515 67.0237 102.711 66.7804 100.862C66.5818 99.414 66.6546 97.4047 66.8417 96.0233Z" fill="white"/>
<path id="Fill-26" d="M63.5346 96.2977C63.9245 96.8241 64.2988 97.0366 64.3352 97.0606L64.6232 97.2061L64.9123 97.1035C65.1785 97.0251 65.4166 96.9288 65.6391 96.8147C65.9479 97.6676 66.0747 98.0789 66.1465 98.8031C66.2421 99.7701 66.4303 101.291 66.0747 102.533C65.6391 104.045 64.7324 104.971 64.2375 105.549C64.2375 105.549 62.8629 104.027 62.4709 102.778C62.0633 101.463 61.9167 99.9365 62.4241 98.3709C62.7007 97.5211 63.1395 96.7446 63.5346 96.2977Z" fill="white"/>
<path id="Fill-28" d="M58.8043 96.4439C60.2101 96.2566 61.2696 95.7459 62.0724 95.1557C62.2512 95.6527 62.5278 96.3215 62.3292 97.2696C62.1129 98.2198 61.461 99.2674 60.5283 100.027C59.1017 101.163 57.2156 102.234 55.1215 101.911C55.1215 101.911 54.6401 100.324 58.8043 96.4439Z" fill="white"/>
<path id="Fill-30" d="M57.215 93.8011C57.3907 95.2086 58.0582 96.0929 58.1019 96.1631C57.6153 96.7502 55.8508 99.7966 52.1752 99.2911C52.1752 99.2911 51.1729 97.2117 53.6278 95.5592C55.282 94.4405 56.0775 94.2124 57.215 93.8011Z" fill="white"/>
<path id="Fill-32" d="M57.5369 91.1935C56.5606 91.4415 55.2827 91.5409 53.723 91.1694L53.2978 91.07L53.1657 90.6556C51.2744 92.2065 49.0285 92.4692 48.2549 93.8767C48.2549 93.8767 49.2 95.6254 51.6549 95.3397C54.1098 95.0425 55.9471 93.8851 57.2635 92.2274C57.3144 91.9815 57.4257 91.5116 57.5369 91.1935Z" fill="white"/>
<path id="Fill-34" d="M53.2969 89.0115C53.638 88.4893 53.8803 87.6824 54.6143 86.8651C52.9954 86.5826 51.5293 86.5585 49.6255 86.9321C47.364 87.3559 45.0536 87.8938 43.8984 91.3651C43.8984 91.3651 45.3437 92.6073 47.9868 92.0694C50.2317 91.6027 52.1771 90.6357 53.2969 89.0115Z" fill="white"/>
<path id="Fill-36" d="M52.3339 85.2537C51.7683 84.7534 51.2369 84.1119 50.8647 83.2737L50.6796 82.8383C48.7165 82.0356 46.6755 81.6233 44.6656 82.3684C42.6651 83.1272 42.1379 83.9884 41.6367 84.7451C41.6367 84.7451 43.8546 86.6141 46.3978 86.678C48.9494 86.7627 51.3076 86.0187 52.3339 85.2537Z" fill="white"/>
<path id="Fill-38" d="M52.9266 81.1974C53.2646 81.0687 53.641 80.9494 54.0683 80.8615C53.2115 80.0933 52.3475 78.916 51.9378 77.1641C51.0249 77.3776 48.8882 77.3776 47.9492 77.0208C47.001 76.6566 45.1523 76.6388 43.708 77.5964C43.708 77.5964 44.1873 80.1488 47.4512 81.0195C50.5362 81.8337 51.6716 81.6233 52.9266 81.1974Z" fill="white"/>
<path id="Fill-40" d="M51.747 76.227L52.1775 75.9497C52.2378 75.912 52.9687 75.4588 54.2144 75.3594C53.1653 74.5735 50.6511 72.4564 48.8866 71.4402C46.9422 70.3487 43.7283 68.9004 42.0938 68.6837C42.0938 68.6837 43.6285 72.7348 45.4085 74.3726C47.2708 76.0721 48.5653 76.7 51.747 76.227Z" fill="white"/>
<path id="Fill-42" d="M55.0594 74.3609C54.2671 73.3384 53.6526 71.9256 53.1982 70.2554C52.8302 68.9002 51.9807 65.5325 51.4795 64.6628C50.9794 63.7869 49.1681 60.7384 45.637 59.7861C45.637 59.7861 44.6929 63.7691 46.4719 66.9086C48.0004 69.6243 51.1488 72.4834 55.0594 74.3609Z" fill="white"/>
<path id="Fill-44" d="M74.6705 92.8522C75.1051 93.3022 75.442 93.5439 76.2301 93.9437C76.2301 93.9437 77.3583 96.1079 75.9899 98.7273C74.6195 101.344 73.4706 104.01 72.9205 105.497C72.9205 105.497 72.1875 105.385 71.3702 101.291C70.8212 98.517 70.1235 97.8221 69.3926 96.8697C70.187 97.2737 70.8275 97.393 70.8836 97.4045L71.4295 97.4977L71.677 97.0079C72.1646 96.0733 72.3154 95.165 72.3154 94.4052C72.3154 94.1572 72.2967 93.9238 72.2686 93.7103C73.5382 93.7428 74.214 93.0971 74.4771 92.7695C74.4947 92.735 74.5197 92.7151 74.5311 92.6858L74.6705 92.8522Z" fill="white"/>
<path id="Fill-46" d="M44.647 61.4537C44.6346 61.8388 44.6231 62.2564 44.6346 62.7032L44.7074 63.6817C42.6164 61.0006 40.122 57.7742 37.7398 54.7895C36.1053 52.7488 34.7235 51.5129 33.194 50.5177C34.475 54.2997 36.7978 57.3189 38.4354 58.8249C40.0669 60.3297 42.4479 62.8675 44.7573 64.4174L44.9798 65.1856C45.1607 65.8867 45.4373 66.6109 45.8241 67.288C46.3575 68.2435 47.0697 69.1864 47.9047 70.0979C47.234 69.762 46.4667 69.3999 45.6858 69.0692L44.9704 68.772C38.6049 65.3729 32.3049 58.3372 29.7461 53.4437C27.1841 48.5492 28.255 42.8666 28.9278 39.8265C31.8152 42.291 35.9722 47.1385 37.7835 49.782C40.0149 53.0167 42.8774 57.6046 44.6387 61.3396L44.647 61.4537Z" fill="white"/>
<path id="Fill-48" d="M133.864 82.3334C133.479 82.1031 133.016 81.875 132.445 81.6615C136.32 80.4821 141.65 78.5889 149.664 78.0667C155.543 77.6785 159.794 78.0175 161.985 78.5889C161.985 78.5889 156.634 82.3825 150.509 83.72C144.388 85.0637 139.417 84.2171 135.784 84.2495C135.547 83.8895 135.271 83.4803 134.846 83.0753C139.099 83.1036 146.172 81.9943 148.696 81.1445C148.696 81.1445 142.53 79.8542 133.864 82.3334Z" fill="white"/>
<path id="Fill-50" d="M133.884 77.7427C133.863 77.8536 133.409 80.0555 130.872 81.2705C136.319 78.8729 147.057 77.4915 152.821 75.0772C160.62 71.8142 162.045 67.7443 162.045 67.7443C155.297 67.5622 149.841 69.2188 145.633 70.5207C140.716 72.036 133.213 74.8574 130.588 76.0348C131.576 76.0724 132.65 76.3613 133.565 76.9714C137.227 75.5555 138.93 74.9568 142.259 74.0192C144.884 73.2772 146.823 73.1349 148.465 72.9768C148.465 72.9768 146.157 74.5121 142.351 75.7334C138.574 76.9515 136.945 77.1524 133.884 77.7427Z" fill="white"/>
<path id="Fill-52" d="M134.296 71.7563C134.083 72.1445 133.433 73.0707 133.181 73.438C141.794 71.9865 151.27 65.4312 154.194 61.3655C157.132 57.2987 156.299 51.2331 156.299 51.2331C153.452 51.8056 147.28 57.1669 145.681 58.7816C144.083 60.388 139.255 65.1214 135.908 67.7586L134.866 70.8102C137.729 68.4891 141.128 65.9042 143.251 64.2978C144.878 63.0629 147.314 61.3048 149.743 60.4749C149.743 60.4749 147.51 63.4041 145.704 64.8357C143.63 66.4913 141.511 67.9281 139.766 68.8888C138.221 69.7438 137.431 70.2263 134.296 71.7563Z" fill="white"/>
<path id="Fill-54" d="M132.204 61.4537C132.216 61.8388 132.226 62.2564 132.208 62.7032L132.135 63.6817C134.222 61.0006 136.727 57.7742 139.106 54.7895C140.742 52.7488 142.127 51.5129 143.657 50.5177C142.363 54.2997 140.053 57.3189 138.411 58.8249C136.775 60.3297 134.409 62.8675 132.093 64.4174L131.866 65.1856C131.686 65.8867 131.413 66.6109 131.027 67.288C130.485 68.2435 129.786 69.1864 128.941 70.0979C129.613 69.762 130.38 69.3999 131.158 69.0692L131.875 68.772C138.241 65.3729 144.548 58.3372 147.1 53.4437C149.646 48.5492 148.599 42.8666 147.919 39.8265C145.03 42.291 140.872 47.1385 139.057 49.782C136.827 53.0167 133.975 57.6046 132.204 61.3396V61.4537Z" fill="white"/>
<path id="Fill-56" d="M52.7691 100.114C50.1479 102.752 44.6215 108.674 45.1362 115.095C45.1362 115.095 50.2757 113.48 52.3875 109.69C54.5066 105.906 55.8125 103.531 56.6974 102.678C56.1266 102.752 55.5557 102.752 55.0026 102.658L54.5399 102.585C53.2339 104.976 50.6521 108.881 48.3283 110.245C48.3283 110.245 47.7345 107.079 54.5669 100.661C54.6605 100.398 54.8008 100.093 54.9942 99.7638C54.3704 99.9951 53.655 100.123 52.8575 100.109" fill="white"/>
<path id="Fill-58" d="M123.154 64.5519C121.851 67.4518 119.708 70.4281 113.879 74.4456C112.569 75.3446 111.128 77.2147 112.224 79.8456C113.32 82.4734 115.389 86.2084 114.147 87.6652C112.914 89.1198 108.516 89.8764 104.932 88.4302C104.932 88.4302 104.185 90.7053 102.879 92.1631C102.879 92.1631 103.49 93.4178 105.558 92.7847C105.558 92.7847 104.804 94.6538 105.832 96.6631C105.832 96.6631 108.238 96.2487 109.263 94.029C109.263 94.029 110.227 95.7578 112.16 96.3826C112.16 96.3826 113.747 95.559 113.396 92.364C113.396 92.364 114.559 95.2084 118.143 95.6867C118.143 95.6867 120.205 93.062 117.516 89.5321C117.516 89.5321 119.444 91.2631 122.95 90.4311C122.95 90.4311 123.5 88.6353 120.329 86.1414C120.329 86.1414 123.917 86.0012 125.293 82.958C125.293 82.958 123.777 81.0857 120.068 81.5044C120.068 81.5044 123.5 80.7383 124.256 76.5889C124.256 76.5889 121.781 74.9971 117.868 77.5559C117.868 77.5559 118.549 76.2446 120.197 74.9302C121.851 73.6137 123.849 69.9456 123.154 64.5519Z" fill="white"/>
<path id="Fill-60" d="M108.769 106.294C109.289 105.596 109.673 104.901 109.973 104.232C109.357 109.266 109.133 112.66 106.43 115.922C106.43 115.922 104.805 113.741 105.847 108.44C106.308 108.308 106.812 108.09 107.31 107.757C107.31 107.757 106.691 109.909 107.073 112.073C107.073 112.073 108.058 111.363 108.769 106.294Z" fill="white"/>
<path id="Fill-62" d="M113.44 105.771C113.765 105.362 114.393 104.492 114.712 103.876C114.935 106.802 115.7 114.491 113.139 116.903C113.139 116.903 111.383 115.608 110.763 104.381C111.138 105.011 111.789 105.681 112.1 106.048C112.1 106.048 111.681 109.608 112.949 112.122C112.949 112.122 114.22 111.15 113.44 105.771Z" fill="white"/>
<path id="Fill-64" d="M119.548 111.65C117.387 109.056 116.745 101.283 116.745 101.283C116.451 101.081 116.143 100.862 115.856 100.619C115.727 100.52 115.612 100.418 115.497 100.307C115.497 100.588 115.487 100.885 115.462 101.177C115.763 105.858 116.143 110.677 117.588 113.077C119.009 115.431 121.619 116.651 121.619 116.651C124.075 112.26 121.111 106.375 118.631 102.281C118.322 102.165 118.018 102.018 117.709 101.858C118.574 105.008 120.231 108.758 119.548 111.65Z" fill="white"/>
<path id="Fill-66" d="M125.618 98.1583C125.641 98.6565 125.543 99.0719 125.477 99.276C125.453 99.3576 125.413 99.478 125.369 99.5973C127.413 101.624 128.94 103.566 131.981 107.818C135.027 112.073 139.848 112.242 139.848 112.242C139.388 108.796 138.454 106.074 135.872 103.137C133.293 100.202 129.997 97.5189 127.567 95.7461C126.942 96.0266 126.132 96.2108 125.105 96.0873C125.02 96.0821 124.939 96.0726 124.863 96.0528C125.185 96.485 125.38 96.914 125.49 97.3086C127.325 98.3687 132.668 101.086 134.819 105.477C134.819 105.477 131.443 104.404 125.618 98.1583Z" fill="white"/>
<path id="Fill-68" d="M129.45 93.8711L129.247 93.5058C129.178 93.3834 129.111 93.2756 129.034 93.173C131.013 93.9464 138.078 96.6276 140.359 97.8164C142.641 99.0136 145.941 101.715 147.734 107.214C147.734 107.214 142.978 107.64 139.044 104.37C135.114 101.087 130.525 96.5198 128.575 95.0683C128.771 94.8872 128.917 94.7093 129.034 94.5597C129.034 94.5597 134.353 99.3004 139.973 101.353C139.973 101.353 138.775 99.1507 136.559 97.5569C133.843 95.6229 131.82 94.972 129.45 93.8711Z" fill="white"/>
<path id="Fill-70" d="M133.479 90.6206C133.407 90.4312 133.33 90.2522 133.246 90.0858C135.577 90.5589 141.403 91.2632 144.009 92.0606C146.599 92.8696 151.309 94.7826 154.101 100.147C154.101 100.147 150.004 101.416 142.266 97.7578C134.531 94.0929 132.118 93.3311 130.644 92.9365C131.811 92.8518 132.647 92.452 133.083 92.183C136.167 93.5676 140.294 95.2001 144.385 95.3111C144.385 95.3111 142.362 93.8773 140.244 92.9721C137.935 92.0083 135.408 91.1261 133.479 90.6206Z" fill="white"/>
<path id="Fill-72" d="M133.294 86.7693C132.533 87.1252 131.955 87.3031 130.966 87.4056C131.504 87.7593 132.019 88.2031 132.48 88.8048C135.204 89.596 139.84 90.4573 147.51 91.015C155.172 91.5645 159.256 90.1538 159.256 90.1538C156.589 88.5097 152.336 86.8416 149.457 86.2817C146.571 85.7207 139.01 85.7856 135.692 85.3293C135.655 85.3681 135.248 85.6946 134.602 86.0923C137.395 86.3424 143.332 86.6197 146.398 88.1905C146.398 88.1905 140.742 88.945 133.294 86.7693Z" fill="white"/>
<path id="Fill-74" d="M110 96.0233C109.739 95.79 109.515 95.565 109.315 95.363C108.926 95.8632 107.597 97.5324 106.947 99.2005C106.448 100.623 105.916 102.559 105.661 103.668C105.387 104.769 104.604 107.079 104.127 107.868C104.127 107.868 106.229 108.134 107.785 106.305C109.311 104.515 109.826 102.711 110.073 100.862C110.251 99.414 110.2 97.4047 110 96.0233Z" fill="white"/>
<path id="Fill-76" d="M113.301 96.2977C112.915 96.8241 112.544 97.0366 112.506 97.0606L112.226 97.2061L111.923 97.1035C111.671 97.0251 111.433 96.9288 111.204 96.8147C110.896 97.6676 110.78 98.0789 110.699 98.8031C110.594 99.7701 110.413 101.291 110.764 102.533C111.207 104.045 112.101 104.971 112.603 105.549C112.603 105.549 113.979 104.027 114.374 102.778C114.78 101.463 114.928 99.9365 114.429 98.3709C114.148 97.5211 113.695 96.7446 113.301 96.2977Z" fill="white"/>
<path id="Fill-78" d="M118.041 96.4439C116.632 96.2566 115.575 95.7459 114.768 95.1557C114.595 95.6527 114.313 96.3215 114.522 97.2696C114.725 98.2198 115.378 99.2674 116.329 100.027C117.734 101.163 119.632 102.234 121.726 101.911C121.726 101.911 122.207 100.324 118.041 96.4439Z" fill="white"/>
<path id="Fill-80" d="M119.619 93.8011C119.452 95.2086 118.783 96.0929 118.729 96.1631C119.218 96.7502 120.983 99.7966 124.681 99.2911C124.681 99.2911 125.665 97.2117 123.224 95.5592C121.55 94.4405 120.763 94.2124 119.619 93.8011Z" fill="white"/>
<path id="Fill-82" d="M119.297 91.1935C120.279 91.4415 121.562 91.5409 123.125 91.1694L123.551 91.07L123.673 90.6556C125.569 92.2065 127.816 92.4692 128.588 93.8767C128.588 93.8767 127.643 95.6254 125.193 95.3397C122.739 95.0425 120.887 93.8851 119.576 92.2274C119.529 91.9815 119.423 91.5116 119.297 91.1935Z" fill="white"/>
<path id="Fill-84" d="M123.551 89.0115C123.199 88.4893 122.951 87.6824 122.224 86.8651C123.858 86.5826 125.316 86.5585 127.216 86.9321C129.479 87.3559 131.787 87.8938 132.948 91.3651C132.948 91.3651 131.487 92.6073 128.847 92.0694C126.614 91.6027 124.664 90.6357 123.551 89.0115Z" fill="white"/>
<path id="Fill-86" d="M124.509 85.2537C125.079 84.7534 125.602 84.1119 125.98 83.2737L126.165 82.8383C128.132 82.0356 130.178 81.6233 132.171 82.3684C134.18 83.1272 134.703 83.9884 135.219 84.7451C135.219 84.7451 132.999 86.6141 130.442 86.678C127.892 86.7627 125.534 86.0187 124.509 85.2537Z" fill="white"/>
<path id="Fill-88" d="M123.919 81.1974C123.579 81.0687 123.202 80.9494 122.771 80.8615C123.644 80.0933 124.499 78.916 124.913 77.1641C125.824 77.3776 127.963 77.3776 128.906 77.0208C129.847 76.6566 131.698 76.6388 133.14 77.5964C133.14 77.5964 132.67 80.1488 129.39 81.0195C126.302 81.8337 125.169 81.6233 123.919 81.1974Z" fill="white"/>
<path id="Fill-90" d="M125.091 76.227L124.665 75.9497C124.602 75.912 123.871 75.4588 122.616 75.3594C123.677 74.5735 126.175 72.4564 127.961 71.4402C129.9 70.3487 133.11 68.9004 134.758 68.6837C134.758 68.6837 133.218 72.7348 131.426 74.3726C129.574 76.0721 128.275 76.7 125.091 76.227Z" fill="white"/>
<path id="Fill-92" d="M121.781 74.3609C122.574 73.3384 123.187 71.9256 123.642 70.2554C124.019 68.9002 124.864 65.5325 125.368 64.6628C125.876 63.7869 127.68 60.7384 131.213 59.7861C131.213 59.7861 132.154 63.7691 130.374 66.9086C128.836 69.6243 125.7 72.4834 121.781 74.3609Z" fill="white"/>
<path id="Fill-94" d="M102.186 92.8522C101.729 93.3022 101.395 93.5439 100.615 93.9437C100.615 93.9437 99.4814 96.1079 100.853 98.7273C102.215 101.344 103.367 104.01 103.925 105.497C103.925 105.497 104.659 105.385 105.472 101.291C106.026 98.517 106.727 97.8221 107.448 96.8697C106.653 97.2737 106.022 97.393 105.962 97.4045L105.42 97.4977L105.167 97.0079C104.673 96.0733 104.541 95.165 104.541 94.4052C104.541 94.1572 104.551 93.9238 104.577 93.7103C103.306 93.7428 102.627 93.0971 102.375 92.7695C102.345 92.735 102.324 92.7151 102.311 92.6858L102.186 92.8522Z" fill="white"/>
<path id="Fill-96" d="M124.078 100.114C126.697 102.752 132.227 108.674 131.702 115.095C131.702 115.095 126.565 113.48 124.458 109.69C122.338 105.906 121.039 103.531 120.149 102.678C120.711 102.752 121.282 102.752 121.842 102.658L122.314 102.585C123.613 104.976 126.195 108.881 128.521 110.245C128.521 110.245 129.11 107.079 122.281 100.661C122.185 100.398 122.041 100.093 121.853 99.7638C122.474 99.9951 123.189 100.123 123.985 100.109" fill="white"/>
<path id="Fill-98" d="M84.4102 48.8823C84.4102 48.4093 86.209 48.0179 88.4216 48.0179C90.6394 48.0179 92.433 48.4093 92.433 48.8823C92.433 49.3522 90.6394 49.7404 88.4216 49.7404C86.209 49.7404 84.4102 49.3522 84.4102 48.8823Z" fill="white"/>
<path id="Fill-102" d="M89.2042 50.7745C89.2042 51.213 88.859 51.5688 88.4213 51.5688C87.9867 51.5688 87.6259 51.213 87.6259 50.7745C87.6259 50.3371 87.9867 49.9833 88.4213 49.9833C88.859 49.9833 89.2042 50.3371 89.2042 50.7745Z" fill="white"/>
<path id="Fill-104" d="M84.1214 48.0412C82.7937 44.843 81.8963 42.4758 81.9296 41.6868C81.9525 41.2106 82.5202 40.8548 83.0578 40.6905C83.5828 40.522 84.0539 40.4895 84.4084 40.7616C85.1061 41.2985 85.7456 45.6206 85.9878 47.4164C85.3151 47.5441 84.9065 47.632 84.1214 48.0412Z" fill="white"/>
<path id="Fill-106" d="M86.5608 47.3488C86.8957 47.3048 87.244 47.2902 87.5954 47.2755C87.3864 45.5593 86.7917 42.697 86.4496 41.5752C86.1002 40.445 85.6573 39.6339 84.9222 39.4298C84.9222 39.4298 85.493 41.0027 85.8091 42.6238C86.1189 44.2511 86.356 45.801 86.5608 47.3488Z" fill="white"/>
<path id="Fill-108" fill-rule="evenodd" clip-rule="evenodd" d="M80.1914 53.957C80.1914 53.957 82.4893 54.1381 84.5418 52.9377C85.5192 52.36 86.3541 51.032 86.5371 50.4156C85.7157 50.3016 83.6206 50.5318 82.3375 51.4579C81.0555 52.3778 80.6364 53.1366 80.1914 53.957ZM82.3375 53.0811C83.8098 52.7316 85.3164 51.1482 85.3164 51.1482C82.9385 51.4925 82.3375 53.0811 82.3375 53.0811Z" fill="white"/>
<path id="Fill-110" fill-rule="evenodd" clip-rule="evenodd" d="M75.2918 54.9878C72.7371 55.1082 70.1865 54.1558 70.1865 54.1558C70.4797 59.7683 74.2999 60.1565 74.2999 60.1565C74.2406 59.716 74.2562 58.9394 74.2562 58.9394C75.4488 60.0665 77.911 60.8577 77.911 60.8577C77.8704 60.1973 77.65 59.6228 77.65 59.6228C78.7033 60.2476 79.2908 60.1806 79.2908 60.1806C79.1806 59.401 78.6513 58.4779 78.6513 58.4779C79.3802 59.401 80.3149 59.4585 80.3149 59.4585C80.447 58.9949 80.1704 57.8469 80.1704 57.8469C80.2065 57.893 80.2457 57.9464 80.2893 58.0058C80.6819 58.5408 81.4262 59.5548 83.3448 59.9703C85.4774 60.4339 86.4361 59.2314 86.4361 59.2314C84.3513 59.3779 82.407 57.3477 82.407 57.3477C83.4904 56.927 83.8575 56.1306 83.8575 56.1306C83.2346 55.578 82.5952 55.578 82.5952 55.578C83.8086 55.0234 84.054 54.0596 84.054 54.0596C82.7937 54.679 79.3226 54.8197 76.7271 54.925C76.2048 54.9462 75.718 54.9659 75.2918 54.9878ZM76.8795 56.1651V56.3315C76.8795 56.3315 73.5803 56.3493 73.4514 57.9955C72.9201 57.646 72.6061 57.0735 72.4865 56.32C72.4865 56.32 74.8624 56.4247 76.8795 56.1651Z" fill="white"/>
<path id="Fill-112" d="M69.5961 54.5471C69.6918 55.7621 70.0006 56.9593 70.4227 57.8091C70.4227 57.8091 68.9203 56.6736 68.5543 55.7067C68.1789 54.7491 68.0905 54.0835 69.5961 54.5471Z" fill="white"/>
<path id="Fill-114" fill-rule="evenodd" clip-rule="evenodd" d="M72.165 59.9787C72.165 59.9787 71.2698 58.8841 70.2633 58.4226C70.1419 58.3673 70.0035 58.3097 69.8533 58.2472C68.883 57.8434 67.4257 57.2369 66.962 55.7623C66.1177 55.5583 64.3365 55.3532 63.5484 56.5221C62.7592 57.6837 63.0618 59.8856 64.6412 60.7793C64.6412 60.7793 67.0462 58.6968 69.9659 60.7678C69.9659 60.7678 70.6417 60.3293 72.165 59.9787ZM67.2188 58.5335C67.2188 58.8841 66.937 59.1614 66.5814 59.1614C66.2425 59.1614 65.969 58.8841 65.969 58.5335C65.969 58.1829 66.2425 57.9025 66.5814 57.9025C66.937 57.9025 67.2188 58.1829 67.2188 58.5335Z" fill="white"/>
<path id="Fill-116" d="M72.4983 60.3586C72.4983 60.3586 73.5589 61.7861 74.3387 62.414C74.3387 62.414 70.4105 62.3763 69.4206 65.7984C69.4206 65.7984 68.0585 63.7022 69.0525 62.3355C70.1245 60.8641 71.104 60.683 72.4983 60.3586Z" fill="white"/>
<path id="Fill-118" d="M76.8076 61.2084C76.8076 61.2084 78.0772 61.5851 78.5014 61.6961C78.5014 61.6961 78.5128 60.9572 78.4889 60.6014C78.8705 60.6945 79.3447 60.817 79.7533 60.8578C79.7533 60.8578 81.0166 63.7022 82.0075 64.8502C82.0075 64.8502 82.0647 65.4813 81.5126 66.4389C81.5126 66.4389 80.7941 64.7561 79.5079 63.4071C78.7821 62.6515 78.3163 62.2654 76.8076 61.2084Z" fill="white"/>
<path id="Fill-120" d="M73.4707 60.6009C73.8825 60.7118 75.91 61.3513 76.8812 62.0639C78.1154 62.9461 78.9617 63.9644 78.8255 65.7142C78.8255 65.7142 77.8377 64.3265 76.7397 63.7017C75.8736 63.2025 74.3015 61.8211 73.4707 60.6009Z" fill="white"/>
<path id="Fill-122" d="M73.4992 47.7345C73.8725 47.7345 74.5951 47.9156 74.5951 48.5173C74.5951 49.1306 73.6625 50.5957 73.4067 51.2445H73.3828C73.1353 50.5957 72.1881 49.1306 72.1881 48.5173C72.1881 47.9156 72.9211 47.7345 73.2933 47.7345H73.4992Z" fill="white"/>
<path id="Fill-124" d="M72.6758 52.4623C72.5021 51.6094 72.1652 49.396 71.6464 48.9083C71.1525 48.4385 70.4143 48.3945 70.0555 48.4144C69.6823 48.4385 69.3007 48.8183 69.4535 49.3113C69.598 49.823 71.2253 52.2718 71.4374 52.5816C71.8159 52.5146 71.7441 52.5408 72.6758 52.4623Z" fill="white"/>
<path id="Fill-126" d="M74.1182 52.4623C74.3012 51.6094 74.6297 49.396 75.1517 48.9083C75.6425 48.4385 76.3828 48.3945 76.7426 48.4144C77.1137 48.4385 77.5026 48.8183 77.3539 49.3113C77.1949 49.823 75.5718 52.2718 75.3545 52.5816C74.9812 52.5146 75.0519 52.5408 74.1182 52.4623Z" fill="white"/>
<path id="Fill-128" d="M75.1663 44.7616H73.8957V43.3541H72.8746V44.7616H71.5957V45.6522H72.8746V47.3046H73.8957V45.6522H75.1663V44.7616Z" fill="white"/>
<path id="Fill-130" d="M59.8036 53.867C59.8036 53.5866 59.816 53.3176 59.8566 53.0486C59.9522 52.36 59.9606 51.7761 59.8867 51.2853C58.9728 51.6411 58.3562 51.8609 57.0991 53.9047C57.0991 53.9047 59.1028 52.6614 59.8036 53.867Z" fill="white"/>
<path id="Fill-132" d="M61.5507 57.0969C61.5766 56.5915 61.9104 54.9882 62.3284 53.8674C62.8389 52.4745 62.5416 50.4652 61.9229 49.2439C61.3292 48.0676 61.0058 46.9604 61.1035 45.7402C61.1035 45.7402 59.9265 46.14 59.2392 46.5638C59.1311 47.9797 59.9504 49.3967 60.3414 50.1994C60.802 51.1507 60.7064 52.3918 60.6055 53.1516C60.4277 54.4388 60.6887 55.8087 61.5507 57.0969Z" fill="white"/>
<path id="Fill-134" d="M61.6844 46.2828C61.6365 46.1196 61.6365 45.6727 61.7239 45.4948C61.7239 45.4948 63.5965 43.6634 65.1666 43.3547C66.1554 43.1464 66.7647 43.5902 67.0621 43.8361C67.0621 43.8361 66.5131 43.7722 65.674 44.4609C64.8318 45.1442 63.7889 45.9678 63.0101 46.175C62.2261 46.3822 62.0639 46.3215 61.6844 46.2828Z" fill="white"/>
<path id="Fill-136" d="M67.2195 43.9732C67.9151 44.6796 68.5141 45.431 68.4985 46.0788C68.4891 46.7506 67.7113 48.4387 67.3079 49.0802C66.9014 49.7206 66.3035 50.5641 66.3711 51.5855C66.4085 52.0941 66.7631 52.6174 67.18 53.0517C67.18 53.0517 64.8904 52.5064 64.6076 51.0832C64.3643 49.8106 64.906 48.9232 65.2752 48.2189C65.6131 47.5533 66.6664 46.0118 66.9378 45.3692C67.18 44.7853 67.3079 44.2997 67.2195 43.9732Z" fill="white"/>
<path id="Fill-138" d="M80.584 59.9938C81.0363 61.6264 81.8161 63.1564 82.5835 64.3567C83.2728 65.4577 83.7106 67.2325 83.6461 67.8374C83.6461 67.8374 84.6786 65.5424 84.1566 63.9214C83.7376 62.6624 82.6303 60.7818 80.584 59.9938Z" fill="white"/>
<path id="Fill-140" d="M83.1562 60.5278C83.1562 60.5278 84.7284 60.5603 85.4604 61.0448C86.4014 61.6696 87.2977 63.0395 87.646 64.6804C87.646 64.6804 86.0593 64.4031 85.2795 63.6182C84.4913 62.8291 83.5243 61.6518 83.1562 60.5278Z" fill="white"/>
<path id="Fill-142" d="M75.0374 63.3838C74.7359 63.4068 73.9301 63.5941 73.5381 63.7134C73.5381 63.7134 74.8721 64.1048 75.5417 64.6626C76.1136 65.1325 76.6044 65.8609 76.8279 67.0926C77.1575 68.812 78.1578 70.6612 78.4573 71.219L78.5799 71.196C78.399 70.0124 79.1258 67.5573 79.3234 67.2004C79.3234 67.2004 78.2587 66.5348 77.77 65.84C77.4112 65.3282 76.7843 64.4763 75.0374 63.3838Z" fill="white"/>
<path id="Fill-144" d="M81.9914 67.0751C82.3771 67.9772 83.4169 69.5774 82.9313 71.2424C82.4478 72.9126 81.3613 73.6284 80.6948 75.0475C80.6948 75.0475 80.1728 72.4888 80.2809 70.5213C80.4005 68.5465 81.1148 67.7878 81.9914 67.0751Z" fill="white"/>
<path id="Fill-146" d="M84.9995 67.1395C84.9995 67.1395 86.5602 70.1849 86.843 71.3768C87.1144 72.5594 86.8617 73.3474 86.3273 74.0695C85.8084 74.7811 84.9059 75.5556 84.073 77.0594C84.073 77.0594 83.1102 75.7774 82.9969 75.1087C82.8856 74.44 83.0655 72.8399 83.2755 72.1743C83.4783 71.494 84.3028 69.3382 84.9995 67.1395Z" fill="white"/>
<path id="Fill-148" d="M85.8013 76.8581C85.4623 77.2317 83.6385 79.4367 83.3942 80.0792C83.1478 80.7186 82.7267 81.9357 83.2881 82.7855C83.86 83.6332 85.1618 84.9759 86.2869 85.5483C86.2869 85.5483 85.0599 83.6122 85.1899 82.0268C85.2606 81.0106 86.0446 80.1054 86.1943 79.4859C86.343 78.8726 86.2494 77.8271 85.8013 76.8581Z" fill="white"/>
<path id="Fill-150" d="M82.23 75.6429C82.5096 76.0343 82.9973 76.9835 83.0659 77.9065C83.1335 78.817 82.9848 79.5496 82.4889 80.8849C81.8712 82.5698 80.9001 84.4451 80.4499 85.2918C80.4499 85.2918 79.5962 84.059 79.1221 82.958C79.1221 82.958 80.4592 81.1099 81.0342 79.807C81.6913 78.2707 81.9658 76.8516 82.23 75.6429Z" fill="white"/>
<path id="Fill-152" d="M81.6138 74.9307C81.6138 74.9307 81.0346 79.2674 78.5007 82.4823C76.7841 84.6601 75.3918 85.4199 74.4674 85.4199C73.0773 85.4199 71.6767 84.2551 71.213 82.9145C70.7388 81.5855 70.8948 79.5092 71.7952 78.7735C71.7952 78.7735 72.6239 81.3751 74.4092 81.4693C76.4274 81.5855 79.0185 79.3083 81.6138 74.9307Z" fill="white"/>
<path id="Fill-154" d="M79.5332 73.1202C79.7443 73.8936 79.8108 75.0824 79.5332 76.2043C79.3232 77.0593 78.8095 78.1665 77.8176 78.7933C76.9608 79.3312 74.9322 79.46 74.168 77.5386C74.168 77.5386 77.8612 77.819 79.5332 73.1202Z" fill="white"/>
<path id="Fill-156" d="M85.5706 90.5945C86.0728 91.8995 87.8737 93.5468 87.8696 94.5661C87.8415 97.2587 86.6645 98.908 86.39 99.7955C86.39 99.7955 84.2449 98.0844 83.8623 96.1222C83.6668 95.1144 83.8945 92.09 85.5706 90.5945Z" fill="white"/>
<path id="Fill-158" d="M83.1673 92.5016C83.4148 91.8004 84.2082 89.8937 85.119 89.2302C85.119 89.2302 86.2846 85.7757 82.532 83.645C82.532 83.645 80.988 85.7034 80.5825 87.6416C80.1707 89.5933 82.2118 90.755 83.1673 92.5016Z" fill="white"/>
<path id="Fill-160" d="M78.4758 83.7672C77.8728 84.5082 77.0181 85.5191 76.3578 85.8351C76.3578 85.8351 76.1332 87.3798 76.2549 88.4075C76.4556 89.9322 77.4194 91.4852 77.8385 92.6239C77.8385 92.6239 79.4803 90.4659 79.6685 89.1986C79.8546 87.9282 79.8317 86.8858 79.893 86.2757C79.893 86.2757 78.978 84.7803 78.4758 83.7672Z" fill="white"/>
<path id="Fill-162" d="M74.139 91.1812C73.6742 90.4633 72.178 87.8523 72.1582 85.9487C72.1582 85.9487 74.0069 86.9387 75.5562 86.2082C75.5562 86.2082 75.7558 88.6874 75.4636 89.5225C75.211 90.2027 74.8959 90.6067 74.139 91.1812Z" fill="white"/>
<path id="Fill-164" d="M74.5727 91.707C74.8721 91.4412 75.6114 90.7578 75.9202 90.3989C75.9202 90.3989 77.1461 92.6625 77.3551 93.3249C77.3551 93.3249 76.7395 93.4861 76.0626 92.9921C75.392 92.4982 75.236 92.3642 74.5727 91.707Z" fill="white"/>
<path id="Fill-166" d="M80.2579 90.3784C80.1123 90.9509 78.1253 93.7252 77.7832 94.0663C77.7832 94.0663 77.9298 95.071 78.6712 96.5204C79.4042 97.9594 80.4273 98.9755 80.9743 99.4862C80.9743 99.4862 82.2064 97.3346 82.5693 96.3948C82.9748 95.3106 82.9301 94.2453 82.7575 93.8455C82.3374 92.9079 80.9004 91.5526 80.2579 90.3784Z" fill="white"/>
<path id="Fill-168" d="M83.2446 97.6443C83.6834 98.5338 85.007 100 85.2129 101.16C85.3782 102.068 85.2337 102.812 84.9862 103.449C84.7367 104.063 83.9475 105.289 83.4172 106.22C83.4172 106.22 81.6018 104.498 81.2056 103.268C80.902 102.343 81.0164 101.029 81.45 100.211C81.8825 99.3867 82.8297 98.4961 83.2446 97.6443Z" fill="white"/>
<path id="Fill-170" d="M78.1135 97.3928C78.5783 98.4299 79.7023 99.4576 79.9591 100.36C80.2575 101.429 80.3574 102.103 79.8448 103.35C79.3873 104.436 78.8362 105.076 78.6542 105.742C78.6542 105.742 77.1809 103.82 76.9323 103.023C76.6901 102.226 76.61 100.912 76.9147 100.082C77.21 99.2388 77.7475 98.1588 78.1135 97.3928Z" fill="white"/>
<path id="Fill-172" d="M85.3676 104.702C85.3676 104.702 82.8295 107.783 82.8877 109.416C82.9646 111.448 84.306 112.806 84.4931 114.056C84.4931 114.056 85.8188 112.543 86.3304 111.526C86.8981 110.388 87.3275 109.416 87.1892 108.122C87.0281 106.825 86.6912 105.999 85.3676 104.702Z" fill="white"/>
<path id="Fill-174" d="M80.6945 104.399C81.0959 104.988 82.224 107.003 81.9069 108.194C81.5887 109.401 80.3399 111.089 79.9178 111.807C79.9178 111.807 78.9186 109.74 78.6888 108.788C78.4673 107.847 78.6721 106.296 80.6945 104.399Z" fill="white"/>
<path id="Fill-178" d="M88.4456 45.547C88.6182 44.3885 89.9522 41.8999 89.9522 40.8157C89.9522 39.9607 89.266 39.2711 88.4217 39.2711C87.5659 39.2711 86.8828 39.9607 86.8828 40.8157C86.8828 41.8999 88.2283 44.3885 88.3946 45.547H88.4456Z" fill="white"/>
<path id="Fill-180" d="M92.72 48.0412C94.0582 44.843 94.9451 42.4758 94.9108 41.6868C94.89 41.2106 94.3243 40.8548 93.7972 40.6905C93.2596 40.522 92.7813 40.4895 92.433 40.7616C91.7405 41.2985 91.0896 45.6206 90.8525 47.4164C91.5346 47.5441 91.9422 47.632 92.72 48.0412Z" fill="white"/>
<path id="Fill-182" d="M90.2832 47.3488C89.9452 47.3048 89.5969 47.2902 89.2528 47.2755C89.4659 45.5593 90.0503 42.697 90.3986 41.5752C90.7407 40.445 91.1815 39.6339 91.925 39.4298C91.925 39.4298 91.35 41.0027 91.037 42.6238C90.7282 44.2511 90.487 45.801 90.2832 47.3488Z" fill="white"/>
<path id="Fill-184" fill-rule="evenodd" clip-rule="evenodd" d="M94.5126 51.4579C93.2254 50.5317 91.1334 50.3015 90.3047 50.4155C90.4939 51.0319 91.332 52.3599 92.3031 52.9376C94.3546 54.138 96.6525 53.958 96.6525 53.958C96.2127 53.1365 95.7978 52.3777 94.5126 51.4579ZM91.5347 51.1481C91.5347 51.1481 93.032 52.7315 94.5126 53.081C94.5126 53.081 93.9054 51.4924 91.5347 51.1481Z" fill="white"/>
<path id="Fill-186" fill-rule="evenodd" clip-rule="evenodd" d="M102.584 58.9387C102.584 58.9387 102.606 59.7163 102.546 60.1569C102.546 60.1569 106.36 59.7686 106.648 54.1562C106.648 54.1562 104.108 55.1085 101.559 54.9881C101.132 54.9663 100.646 54.9466 100.125 54.9255C97.524 54.8202 94.0524 54.6797 92.7808 54.0599C92.7808 54.0599 93.0325 55.0237 94.2511 55.5784C94.2511 55.5784 93.6158 55.5784 92.9867 56.1299C92.9867 56.1299 93.3527 56.9273 94.433 57.348C94.433 57.348 92.4907 59.3772 90.4102 59.2317C90.4102 59.2317 91.3595 60.4342 93.4972 59.9706C95.4158 59.556 96.158 58.5451 96.5514 58.0093C96.5959 57.9487 96.6359 57.8941 96.6727 57.8472C96.6727 57.8472 96.3951 58.9952 96.524 59.4588C96.524 59.4588 97.4609 59.4002 98.196 58.4772C98.196 58.4772 97.6615 59.4002 97.5534 60.1799C97.5534 60.1799 98.1388 60.2479 99.1806 59.6231C99.1806 59.6231 98.9706 60.1977 98.9342 60.858C98.9342 60.858 101.389 60.0669 102.584 58.9387ZM104.361 56.3193C104.23 57.0738 103.925 57.6452 103.39 57.9958C103.262 56.3486 99.9522 56.3319 99.9522 56.3319V56.1655C101.979 56.425 104.361 56.3193 104.361 56.3193Z" fill="white"/>
<path id="Fill-188" d="M107.247 54.5471C107.154 55.7621 106.841 56.9593 106.423 57.8091C106.423 57.8091 107.927 56.6736 108.287 55.7067C108.655 54.7491 108.75 54.0835 107.247 54.5471Z" fill="white"/>
<path id="Fill-190" fill-rule="evenodd" clip-rule="evenodd" d="M113.296 56.522C112.51 55.3531 110.731 55.5582 109.883 55.7622C109.422 57.2307 107.969 57.8383 107.003 58.2421C106.849 58.3065 106.707 58.3658 106.584 58.4225C105.572 58.884 104.672 59.9786 104.672 59.9786C106.195 60.3292 106.878 60.7677 106.878 60.7677C109.79 58.6967 112.2 60.7792 112.2 60.7792C113.782 59.8855 114.093 57.6836 113.296 56.522ZM110.252 57.9024C110.594 57.9024 110.882 58.1828 110.882 58.5334C110.882 58.884 110.594 59.1613 110.252 59.1613C109.911 59.1613 109.626 58.884 109.626 58.5334C109.626 58.1828 109.911 57.9024 110.252 57.9024Z" fill="white"/>
<path id="Fill-192" d="M104.344 60.3586C104.344 60.3586 103.29 61.7861 102.51 62.414C102.51 62.414 106.435 62.3763 107.426 65.7984C107.426 65.7984 108.788 63.7022 107.791 62.3355C106.725 60.8641 105.743 60.683 104.344 60.3586Z" fill="white"/>
<path id="Fill-194" d="M100.035 61.2084C100.035 61.2084 98.7659 61.5851 98.3437 61.6961C98.3437 61.6961 98.3209 60.9572 98.3645 60.6014C97.9788 60.6945 97.5078 60.817 97.096 60.8578C97.096 60.8578 95.8265 63.7022 94.8418 64.8502C94.8418 64.8502 94.7815 65.4813 95.3326 66.4389C95.3326 66.4389 96.05 64.7561 97.331 63.4071C98.062 62.6515 98.5247 62.2654 100.035 61.2084Z" fill="white"/>
<path id="Fill-196" d="M103.367 60.6009C102.972 60.7118 100.942 61.3513 99.9538 62.0639C98.7321 62.9461 97.8888 63.9644 98.0167 65.7142C98.0167 65.7142 99.0128 64.3265 100.105 63.7017C100.978 63.2025 102.548 61.8211 103.367 60.6009Z" fill="white"/>
<path id="Fill-198" d="M103.342 47.7345C102.971 47.7345 102.242 47.9156 102.242 48.5173C102.242 49.1306 103.185 50.5957 103.435 51.2445H103.458C103.708 50.5957 104.652 49.1306 104.652 48.5173C104.652 47.9156 103.926 47.7345 103.548 47.7345H103.342Z" fill="white"/>
<path id="Fill-200" d="M104.174 52.4623C104.346 51.6094 104.673 49.396 105.202 48.9083C105.698 48.4385 106.43 48.3945 106.798 48.4144C107.171 48.4385 107.557 48.8183 107.391 49.3113C107.248 49.823 105.618 52.2718 105.401 52.5816C105.026 52.5146 105.102 52.5408 104.174 52.4623Z" fill="white"/>
<path id="Fill-202" d="M102.727 52.4623C102.548 51.6094 102.216 49.396 101.693 48.9083C101.194 48.4385 100.458 48.3945 100.095 48.4144C99.7319 48.4385 99.3409 48.8183 99.499 49.3113C99.6456 49.823 101.267 52.2718 101.489 52.5816C101.864 52.5146 101.79 52.5408 102.727 52.4623Z" fill="white"/>
<path id="Fill-204" d="M101.687 44.7616H102.95V43.3541H103.969V44.7616H105.242V45.6522H103.969V47.3046H102.95V45.6522H101.687V44.7616Z" fill="white"/>
<path id="Fill-206" d="M86.6396 36.41H87.9019V34.9993H88.9355V36.41H90.205V37.2943H88.9355V38.9562H87.9019V37.2943H86.6396V36.41Z" fill="white"/>
<path id="Fill-208" d="M117.051 53.867C117.038 53.5866 117.021 53.3176 116.988 53.0486C116.898 52.36 116.882 51.7761 116.954 51.2853C117.87 51.6411 118.485 51.8609 119.746 53.9047C119.746 53.9047 117.741 52.6614 117.051 53.867Z" fill="white"/>
<path id="Fill-210" d="M115.29 57.0969C115.262 56.5915 114.936 54.9882 114.524 53.8674C114.008 52.4745 114.299 50.4652 114.916 49.2439C115.51 48.0676 115.845 46.9604 115.735 45.7402C115.735 45.7402 116.919 46.14 117.6 46.5638C117.715 47.9797 116.896 49.3967 116.508 50.1994C116.041 51.1507 116.133 52.3918 116.238 53.1516C116.418 54.4388 116.142 55.8087 115.29 57.0969Z" fill="white"/>
<path id="Fill-212" d="M115.165 46.2828C115.202 46.1196 115.198 45.6727 115.114 45.4948C115.114 45.4948 113.252 43.6634 111.68 43.3547C110.684 43.1464 110.074 43.5902 109.775 43.8361C109.775 43.8361 110.333 43.7722 111.17 44.4609C112.006 45.1442 113.044 45.9678 113.835 46.175C114.619 46.3822 114.791 46.3215 115.165 46.2828Z" fill="white"/>
<path id="Fill-214" d="M109.626 43.9732C108.927 44.6796 108.336 45.431 108.349 46.0788C108.358 46.7506 109.133 48.4387 109.539 49.0802C109.949 49.7206 110.543 50.5641 110.468 51.5855C110.436 52.0941 110.081 52.6174 109.671 53.0517C109.671 53.0517 111.957 52.5064 112.23 51.0832C112.483 49.8106 111.949 48.9232 111.576 48.2189C111.235 47.5533 110.177 46.0118 109.913 45.3692C109.671 44.7853 109.539 44.2997 109.626 43.9732Z" fill="white"/>
<path id="Fill-216" d="M96.2648 59.9938C95.801 61.6264 95.0285 63.1564 94.2632 64.3567C93.5676 65.4577 93.1299 67.2325 93.2099 67.8374C93.2099 67.8374 92.1691 65.5424 92.6994 63.9214C93.1028 62.6624 94.2102 60.7818 96.2648 59.9938Z" fill="white"/>
<path id="Fill-218" d="M93.682 60.5278C93.682 60.5278 92.1192 60.5603 91.3883 61.0448C90.44 61.6696 89.5364 63.0395 89.1943 64.6804C89.1943 64.6804 90.7821 64.4031 91.5681 63.6182C92.3552 62.8291 93.316 61.6518 93.682 60.5278Z" fill="white"/>
<path id="Fill-220" d="M101.809 63.3838C102.114 63.4068 102.913 63.5941 103.305 63.7134C103.305 63.7134 101.968 64.1048 101.306 64.6626C100.737 65.1325 100.234 65.8609 100.012 67.0926C99.692 68.812 98.6834 70.6612 98.3809 71.219L98.2696 71.196C98.4537 70.0124 97.7175 67.5573 97.5293 67.2004C97.5293 67.2004 98.5909 66.5348 99.0723 65.84C99.4248 65.3282 100.064 64.4763 101.809 63.3838Z" fill="white"/>
<path id="Fill-222" d="M94.8535 67.0751C94.4729 67.9772 93.4321 69.5774 93.9093 71.2424C94.3991 72.9126 95.4877 73.6284 96.148 75.0475C96.148 75.0475 96.6793 72.4888 96.5618 70.5213C96.4433 68.5465 95.7352 67.7878 94.8535 67.0751Z" fill="white"/>
<path id="Fill-224" d="M88.4409 71.7446C88.5147 70.7661 90.7606 68.4125 90.6483 67.1399C90.5319 65.8611 88.8485 64.9642 88.4315 64.7769H88.4097C88 64.9642 86.3135 65.8611 86.1929 67.1399C86.0754 68.4125 88.3276 70.7661 88.3952 71.7446H88.4409Z" fill="white"/>
<path id="Fill-226" d="M91.841 67.1395C91.841 67.1395 90.2803 70.1849 89.9975 71.3768C89.7219 72.5594 89.9798 73.3474 90.5111 74.0695C91.0362 74.7811 91.9304 75.5556 92.7716 77.0594C92.7716 77.0594 93.7282 75.7774 93.8498 75.1087C93.9652 74.44 93.776 72.8399 93.567 72.1743C93.3622 71.494 92.5314 69.3382 91.841 67.1395Z" fill="white"/>
<path id="Fill-228" d="M88.4389 78.9163C89.148 78.2978 89.7844 77.378 89.9892 76.8317C90.1826 76.2885 90.2346 75.4942 89.7604 74.8831C89.1938 74.1568 88.4836 73.3395 88.4389 72.676H88.4025C88.3495 73.3395 87.6466 74.1568 87.0789 74.8831C86.6027 75.4942 86.6536 76.2885 86.8626 76.8317C87.056 77.378 87.6955 78.2978 88.4098 78.9163H88.4389Z" fill="white"/>
<path id="Fill-230" d="M91.0447 76.8581C91.3868 77.2317 93.2095 79.4367 93.4538 80.0792C93.7013 80.7186 94.1182 81.9357 93.5547 82.7855C92.9859 83.6332 91.6904 84.9759 90.5508 85.5483C90.5508 85.5483 91.7829 83.6122 91.6581 82.0268C91.576 81.0106 90.7951 80.1054 90.6475 79.4859C90.505 78.8726 90.6038 77.8271 91.0447 76.8581Z" fill="white"/>
<path id="Fill-232" d="M94.6106 75.6429C94.3289 76.0343 93.8464 76.9835 93.7705 77.9065C93.7133 78.817 93.8589 79.5496 94.3559 80.8849C94.9818 82.5698 95.9436 84.4451 96.3866 85.2918C96.3866 85.2918 97.2454 84.059 97.7185 82.958C97.7185 82.958 96.3855 81.1099 95.8105 79.807C95.1482 78.2707 94.8799 76.8516 94.6106 75.6429Z" fill="white"/>
<path id="Fill-234" d="M95.2354 74.9307C95.2354 74.9307 95.8103 79.2674 98.3443 82.4823C100.057 84.6601 101.454 85.4199 102.374 85.4199C103.765 85.4199 105.167 84.2551 105.637 82.9145C106.098 81.5855 105.953 79.5092 105.054 78.7735C105.054 78.7735 104.22 81.3751 102.436 81.4693C100.426 81.5855 97.8306 79.3083 95.2354 74.9307Z" fill="white"/>
<path id="Fill-236" d="M97.3078 73.1202C97.0957 73.8936 97.0344 75.0824 97.3078 76.2043C97.521 77.0593 98.0398 78.1665 99.0307 78.7933C99.8864 79.3312 101.899 79.46 102.675 77.5386C102.675 77.5386 98.987 77.819 97.3078 73.1202Z" fill="white"/>
<path id="Fill-238" d="M88.4204 85.9895C88.9424 85.7352 89.3822 85.5489 89.9884 84.628C90.449 83.9048 90.8951 82.5663 90.6476 81.6119C90.3326 80.4346 89.7046 79.9647 89.3209 79.229C89.011 79.521 88.8187 79.7491 88.4381 79.9678H88.4204C88.0336 79.7491 87.8382 79.521 87.521 79.229C87.1322 79.9647 86.5125 80.4346 86.1912 81.6119C85.9458 82.5663 86.3877 83.9048 86.8535 84.628C87.4524 85.5489 87.8974 85.7352 88.4204 85.9895Z" fill="white"/>
<path id="Fill-240" d="M88.4226 93.3018C88.6732 92.1485 91.0657 89.932 90.84 88.7202C90.5125 86.9128 89.3542 87.2948 88.4402 86.5329H88.4226C87.4993 87.2948 86.3295 86.9128 85.9968 88.7202C85.7847 89.932 88.1605 92.1485 88.4101 93.3018H88.4226Z" fill="white"/>
<path id="Fill-242" d="M91.2795 90.5945C90.7742 91.8995 88.966 93.5468 88.9806 94.5661C89.0138 97.2587 90.1784 98.908 90.4591 99.7955C90.4591 99.7955 92.6042 98.0844 92.9795 96.1222C93.1812 95.1144 92.9514 92.09 91.2795 90.5945Z" fill="white"/>
<path id="Fill-244" d="M93.6671 92.5016C93.4228 91.8004 92.6346 89.8937 91.7186 89.2302C91.7186 89.2302 90.5509 85.7757 94.3055 83.645C94.3055 83.645 95.8496 85.7034 96.2634 87.6416C96.6721 89.5933 94.6247 90.755 93.6671 92.5016Z" fill="white"/>
<path id="Fill-246" d="M98.3773 83.7672C98.9741 84.5082 99.8195 85.5191 100.489 85.8351C100.489 85.8351 100.706 87.3798 100.589 88.4075C100.389 89.9322 99.4202 91.4852 99.0105 92.6239C99.0105 92.6239 97.3646 90.4659 97.168 89.1986C96.9757 87.9282 97.0183 86.8858 96.958 86.2757C96.958 86.2757 97.8636 84.7803 98.3773 83.7672Z" fill="white"/>
<path id="Fill-248" d="M102.697 91.1812C103.165 90.4633 104.673 87.8523 104.69 85.9487C104.69 85.9487 102.838 86.9387 101.285 86.2082C101.285 86.2082 101.085 88.6874 101.39 89.5225C101.628 90.2027 101.948 90.6067 102.697 91.1812Z" fill="white"/>
<path id="Fill-250" d="M102.27 91.707C101.968 91.4412 101.228 90.7578 100.935 90.3989C100.935 90.3989 99.6979 92.6625 99.4973 93.3249C99.4973 93.3249 100.103 93.4861 100.779 92.9921C101.454 92.4982 101.602 92.3642 102.27 91.707Z" fill="white"/>
<path id="Fill-252" d="M96.5803 90.3784C96.73 90.9509 98.7149 93.7252 99.055 94.0663C99.055 94.0663 98.8979 95.071 98.1628 96.5204C97.4339 97.9594 96.415 98.9755 95.8628 99.4862C95.8628 99.4862 94.639 97.3346 94.273 96.3948C93.8571 95.3106 93.9081 94.2453 94.0932 93.8455C94.4997 92.9079 95.9419 91.5526 96.5803 90.3784Z" fill="white"/>
<path id="Fill-254" d="M88.4379 106.808C88.6261 106.048 89.7751 105.143 90.245 103.82C90.531 103.04 90.5195 102.129 90.2159 101.504C89.852 100.775 88.5668 98.9904 88.4202 98.4797C88.2591 98.9904 86.9906 100.775 86.6214 101.504C86.3126 102.129 86.3043 103.04 86.585 103.82C87.0665 105.143 88.2123 106.048 88.4015 106.808H88.4379Z" fill="white"/>
<path id="Fill-256" d="M93.5962 97.6443C93.1637 98.5338 91.8411 100 91.6311 101.16C91.4658 102.068 91.6176 102.812 91.8515 103.449C92.1011 104.063 92.9058 105.289 93.4278 106.22C93.4278 106.22 95.2391 104.498 95.6384 103.268C95.943 102.343 95.8266 101.029 95.3878 100.211C94.9552 99.3867 94.0132 98.4961 93.5962 97.6443Z" fill="white"/>
<path id="Fill-258" d="M98.7382 97.3928C98.2692 98.4299 97.1401 99.4576 96.8864 100.36C96.5817 101.429 96.486 102.103 96.9966 103.35C97.4603 104.436 97.9989 105.076 98.1923 105.742C98.1923 105.742 99.6625 103.82 99.9007 103.023C100.161 102.226 100.226 100.912 99.935 100.082C99.6272 99.2388 99.0969 98.1588 98.7382 97.3928Z" fill="white"/>
<path id="Fill-260" d="M88.4227 121.531C88.5163 120.594 90.444 117.688 90.5324 114.61C90.5792 113.066 89.2191 110.659 88.4403 109.739H88.3967C87.6272 110.659 86.262 113.066 86.3067 114.61C86.4014 117.688 88.3229 120.594 88.4227 121.531Z" fill="white"/>
<path id="Fill-262" d="M91.4849 104.702C91.4849 104.702 94.0178 107.783 93.9606 109.416C93.8878 111.448 92.5309 112.806 92.3531 114.056C92.3531 114.056 91.0211 112.543 90.5168 111.526C89.947 110.388 89.5124 109.416 89.6736 108.122C89.816 106.825 90.1477 105.999 91.4849 104.702Z" fill="white"/>
<path id="Fill-264" d="M96.1466 104.399C95.7401 104.988 94.6202 107.003 94.9363 108.194C95.2659 109.401 96.5085 111.089 96.9223 111.807C96.9223 111.807 97.9205 109.74 98.1513 108.788C98.3769 107.847 98.1628 106.296 96.1466 104.399Z" fill="white"/>
<path id="Fill-266" d="M90.1483 126.472C90.3043 124.081 91.6581 122.644 91.892 121.402C92.1582 120.031 92.0667 118.719 91.0134 117.14C90.1483 120.087 89.2177 122.243 88.4774 123.715C88.4525 123.75 88.4379 123.797 88.4213 123.84C88.4015 123.797 88.3911 123.75 88.361 123.715C87.6258 122.243 86.69 120.087 85.8343 117.14C84.7779 118.719 84.6864 120.031 84.9474 121.402C85.1886 122.644 86.5362 124.081 86.69 126.472C86.8377 128.873 84.1582 129.783 84.1582 129.783C85.0586 130.114 86.0911 130.263 87.7277 128.7C88.0272 128.42 88.2497 128.107 88.4213 127.777C88.5939 128.107 88.8195 128.42 89.1169 128.7C90.7441 130.263 91.7829 130.114 92.6864 129.783C92.6864 129.783 90.0028 128.873 90.1483 126.472Z" fill="white"/>
<path id="Fill-268" d="M81.7188 110.543C81.9954 111.439 82.8293 113.097 82.9395 113.603C83.1402 114.552 82.8678 115.703 81.147 116.923C81.147 116.923 80.0344 116.135 79.5915 115.11C79.1828 114.141 79.4199 113.454 79.8462 112.961C80.2788 112.461 81.2915 111.296 81.7188 110.543Z" fill="white"/>
<path id="Fill-270" d="M85.3341 114.09C85.3341 114.572 84.9795 117.282 84.2184 118.634C83.1412 120.523 81.5576 121.923 80.1747 121.923C78.8969 121.923 78.6213 121.151 77.9912 120.846C77.9912 120.846 78.3125 119.201 79.7536 118.775C81.5244 118.237 84.234 116.102 85.3341 114.09Z" fill="white"/>
<path id="Fill-272" d="M80.7129 117.545C80.4176 117.314 80.1566 117.162 79.8052 116.745C79.8052 116.745 78.442 117.25 77.318 118.012C76.1909 118.775 75.0888 120.074 74.4961 120.747C74.4961 120.747 76.1784 121.184 77.2473 120.693C77.2473 120.693 77.632 119.075 78.834 118.349C79.1002 118.193 79.9383 117.942 80.7129 117.545Z" fill="white"/>
<path id="Fill-274" d="M79.3223 116.161C79.052 115.751 78.5186 114.999 78.634 113.816C78.634 113.816 76.2633 115.335 75.5698 115.898C74.8524 116.487 73.3696 118.021 73.04 118.527C73.04 118.527 74.8357 118.129 76.2103 117.662C77.7159 117.162 78.7567 116.487 79.3223 116.161Z" fill="white"/>
<path id="Fill-276" d="M75.3071 118.731C74.0376 119.198 71.1636 119.657 69.97 120.016C68.768 120.377 67.8977 120.997 66.7529 122.252C66.7529 122.252 68.5122 122.753 69.4553 123.047C69.4553 123.047 70.9505 122.024 72.5861 121.391C73.657 120.977 74.1759 119.855 75.3071 118.731Z" fill="white"/>
<path id="Fill-278" d="M72.6394 127.252C72.9149 126.942 73.2622 126.592 72.995 125.877C72.8099 125.345 71.7701 124.776 71.1515 124.475C70.1231 123.979 67.27 123.207 66.3342 122.933C66.3342 122.933 65.8684 123.476 65.6282 124.054C65.519 124.276 65.6615 124.507 66.0649 124.579C66.8603 124.717 68.7683 124.357 69.2393 124.662C69.7332 124.992 69.5533 125.43 69.5533 125.877C69.5533 125.877 70.4278 125.333 70.9747 125.456C71.7431 125.618 72.2037 125.985 72.6394 127.252Z" fill="white"/>
<path id="Fill-280" d="M70.0986 123.254C70.3035 123.324 71.4191 123.663 72.5036 124.355C72.5036 124.355 72.9809 124.168 73.2221 123.724C73.4519 123.298 74.423 121.847 75.3266 121.651C75.3266 121.651 74.5603 121.578 74.1184 121.438C74.1184 121.438 73.1961 121.677 72.539 121.949C71.8818 122.218 71.0656 122.626 70.0986 123.254Z" fill="white"/>
<path id="Fill-282" d="M77.4585 121.42C77.29 121.501 76.9947 121.646 76.3251 121.674C76.3251 121.674 73.8203 123.421 73.5261 125.172C73.2817 126.66 74.0605 127.377 74.4348 127.562C74.8123 127.757 76.5684 128.482 77.7049 126.115C77.7049 126.115 75.7626 126.756 75.2344 125.821C74.7104 124.875 75.5702 123.508 76.0974 123.117C76.7837 122.591 78.0335 122.243 78.7821 122.375C78.7821 122.375 78.177 121.791 77.4585 121.42Z" fill="white"/>
<path id="Fill-284" d="M61.0345 141.456C61.3381 140.167 61.6792 138.822 62.2615 137.58C63.3948 135.163 66.1731 128.735 71.9667 127.597C72.5147 127.494 71.3408 126.133 70.8271 126.207C70.3031 126.264 69.2706 126.943 68.8162 127.252C68.8162 127.252 68.8162 125.876 68.8006 125.628C68.786 125.372 68.5687 125.295 68.3431 125.301C68.1185 125.304 66.7211 125.295 66.2729 125.804C64.9555 127.346 62.7231 131.483 61.4608 134.564C60.1965 137.642 59.3376 138.594 58.0026 138.118C56.6696 137.642 55.87 136.104 53.5513 136.571C52.7434 136.739 51.8471 137.28 51.1494 138.083C51.3428 138.459 51.5913 138.918 52.681 138.918C53.7644 138.918 55.8336 139.374 56.9919 140.191C58.1544 141.006 59.3688 141.271 61.0345 141.456Z" fill="white"/>
<path id="Fill-286" d="M84.1677 121.52C84.3008 122.518 84.778 123.45 85.3083 124.417C85.3083 124.417 83.5397 132.608 77.169 133.244C77.169 133.244 77.2927 131.547 79.181 130.251C81.0702 128.959 83.8922 126.948 83.6894 123.905C83.6894 123.905 83.1872 124.007 82.2784 125.152C81.3749 126.292 79.3868 129.588 76.3008 129.614C76.3008 129.614 76.7624 128.07 78.1256 127.178C79.4898 126.292 81.222 125.152 82.006 123.776C82.7942 122.407 83.6208 121.773 84.1677 121.52Z" fill="white"/>
<path id="Fill-288" d="M81.1611 151.367L85.0426 156.837L87.9862 151.571L86.9443 149.693C86.176 151.075 85.3525 152.569 84.8856 153.389C84.5206 152.885 83.5401 151.502 82.256 149.693L81.1611 151.367Z" fill="white"/>
<path id="Fill-290" d="M80.1726 146.732C76.3827 141.403 71.711 134.804 71.2368 134.135L72.7029 133.072L68.0801 131.288L68.1601 136.366L69.725 135.23L79.0705 148.414L80.1726 146.732Z" fill="white"/>
<path id="Fill-292" d="M48.2494 116.78C49.389 115.527 51.3209 116.613 53.2736 118.424C55.2398 120.235 56.4647 122.089 55.3313 123.339C54.2676 124.501 52.2557 123.509 50.2853 121.704C48.3274 119.89 47.0953 118.033 48.2494 116.78Z" fill="white"/>
<path id="Fill-294" d="M51.4032 139.055C51.3304 139 51.2753 138.952 51.2181 138.898C50.1783 137.984 49.5867 136.571 49.5867 135.028C49.5867 132.067 51.975 129.653 54.9259 129.653C57.8706 129.653 60.2537 132.067 60.2537 135.028C60.2537 135.429 60.1778 136.085 60.1778 136.085C60.4222 135.628 61.2977 133.574 61.4755 133.195C60.679 130.312 58.0369 128.189 54.9259 128.189C52.2392 128.189 49.9132 129.76 48.8079 132.038C49.2249 129.326 50.5672 126.889 51.5144 125.987C52.6519 124.912 54.5818 124.565 54.5818 124.565C53.3153 124.775 51.6434 123.987 49.777 122.252C48.0021 120.623 47.0954 119.19 47.0392 117.995C47.1474 119.682 47.0954 120.629 46.6181 122.001C45.9756 123.87 44.2163 127.325 44.8474 131.224C45.1895 133.364 46.7315 136.55 49.3132 139.152C49.8602 139.735 50.0629 140.601 50.1305 141.047C50.1305 141.047 53.9277 141.047 54.8292 141.134C54.8292 141.134 55.7349 141.047 55.7214 140.484C55.711 139.916 55.2077 139.772 54.7544 139.772C54.3041 139.772 52.4159 139.818 51.4032 139.055Z" fill="white"/>
<path id="Fill-296" d="M72.4275 140.358C69.9799 141.24 67.5406 141.722 65.2281 142.079C63.7152 142.306 62.2512 142.39 60.834 142.317C60.8559 142.552 60.8559 142.863 60.7207 143.091C60.7207 143.091 61.0066 143.427 61.0066 143.798C62.4374 143.85 63.9284 143.769 65.4496 143.529C67.9846 143.138 70.6401 142.627 73.3165 141.604L72.4275 140.358Z" fill="white"/>
<path id="Fill-298" d="M76.4322 140.168C79.6805 138.39 82.8435 135.633 85.6997 131.238L86.2102 130.377C85.4294 130.727 84.4343 130.475 84.4343 130.475C84.375 130.553 84.2524 130.75 84.192 130.867C81.5302 134.821 78.5804 137.312 75.5713 138.941L76.4322 140.168Z" fill="white"/>
<path id="Fill-300" d="M55.0451 141.57C54.5991 141.497 53.1735 141.538 52.3209 141.663C51.3841 141.815 50.3214 142.002 50.2071 142.525C50.1041 143.018 50.441 143.541 50.9141 144.289C51.2042 144.749 51.9029 144.484 52.2887 144.338C52.6713 144.198 54.8673 143.012 55.2146 142.627C55.5713 142.236 55.7189 141.683 55.0451 141.57Z" fill="white"/>
<path id="Fill-302" d="M57.2811 143.026C57.0471 142.878 56.4753 142.653 55.8805 142.881C55.2837 143.103 53.122 144.385 52.9827 144.995C52.8309 145.594 53.1334 145.889 53.4672 146.026C53.7999 146.16 54.2044 146.288 54.507 146.321C55.0477 146.363 55.5727 146.047 55.8535 145.706C56.128 145.36 57.1428 144.132 57.2811 143.85C57.4267 143.579 57.5046 143.179 57.2811 143.026Z" fill="white"/>
<path id="Fill-304" d="M57.5467 144.376C57.2286 144.732 56.3572 145.796 56.2533 145.973C56.1555 146.148 56.3084 146.427 56.5818 146.391C56.8511 146.363 58.3453 146.21 59.201 145.626C60.0536 145.036 60.6245 143.897 60.0339 143.491C59.4464 143.08 58.5293 143.272 57.5467 144.376Z" fill="white"/>
<path id="Fill-306" d="M58.0265 141.111C57.7405 141.046 56.6124 140.764 56.3753 141.134C56.0644 141.599 56.2817 142.098 57.1572 142.525C58.0265 142.939 59.6724 143.277 60.0062 142.829C60.3202 142.364 59.8741 141.599 58.0265 141.111Z" fill="white"/>
<path id="Fill-308" d="M95.1246 110.543C94.8428 111.439 94.011 113.097 93.8987 113.603C93.7032 114.552 93.9684 115.703 95.6923 116.923C95.6923 116.923 96.8028 116.135 97.2458 115.11C97.6627 114.141 97.4256 113.454 96.9931 112.961C96.5626 112.461 95.5572 111.296 95.1246 110.543Z" fill="white"/>
<path id="Fill-310" d="M91.5 114.09C91.5 114.572 91.8525 117.282 92.6261 118.634C93.7022 120.523 95.2796 121.923 96.6635 121.923C97.9487 121.923 98.2242 121.151 98.8481 120.846C98.8481 120.846 98.5257 119.201 97.0805 118.775C95.3201 118.237 92.6042 116.102 91.5 114.09Z" fill="white"/>
<path id="Fill-312" d="M96.1289 117.545C96.4263 117.314 96.6737 117.162 97.0293 116.745C97.0293 116.745 98.4039 117.25 99.5279 118.012C100.645 118.775 101.74 120.074 102.347 120.747C102.347 120.747 100.66 121.184 99.5913 120.693C99.5913 120.693 99.2025 119.075 98.0005 118.349C97.7437 118.193 96.9046 117.942 96.1289 117.545Z" fill="white"/>
<path id="Fill-314" d="M97.5205 116.161C97.7846 115.751 98.3201 114.999 98.1964 113.816C98.1964 113.816 100.563 115.335 101.273 115.898C101.988 116.487 103.467 118.021 103.799 118.527C103.799 118.527 102.003 118.129 100.626 117.662C99.1218 117.162 98.082 116.487 97.5205 116.161Z" fill="white"/>
<path id="Fill-316" d="M101.531 118.731C102.808 119.198 105.661 119.657 106.869 120.016C108.07 120.377 108.946 120.997 110.09 122.252C110.09 122.252 108.32 122.753 107.389 123.047C107.389 123.047 105.893 122.024 104.246 121.391C103.184 120.977 102.658 119.855 101.531 118.731Z" fill="white"/>
<path id="Fill-318" d="M104.198 127.252C103.925 126.942 103.58 126.592 103.836 125.877C104.027 125.345 105.072 124.776 105.697 124.475C106.727 123.979 109.579 123.207 110.505 122.933C110.505 122.933 110.968 123.476 111.217 124.054C111.322 124.276 111.171 124.507 110.78 124.579C109.979 124.717 108.071 124.357 107.6 124.662C107.103 124.992 107.279 125.43 107.279 125.877C107.279 125.877 106.416 125.333 105.854 125.456C105.102 125.618 104.629 125.985 104.198 127.252Z" fill="white"/>
<path id="Fill-320" d="M106.737 123.254C106.527 123.324 105.419 123.663 104.335 124.355C104.335 124.355 103.854 124.168 103.616 123.724C103.389 123.298 102.411 121.847 101.514 121.651C101.514 121.651 102.277 121.578 102.71 121.438C102.71 121.438 103.64 121.677 104.307 121.949C104.963 122.218 105.782 122.626 106.737 123.254Z" fill="white"/>
<path id="Fill-322" d="M99.3723 121.42C99.546 121.501 99.8392 121.646 100.503 121.674C100.503 121.674 103.017 123.421 103.306 125.172C103.568 126.66 102.783 127.377 102.401 127.562C102.02 127.757 100.272 128.482 99.1353 126.115C99.1353 126.115 101.072 126.756 101.603 125.821C102.128 124.875 101.274 123.508 100.747 123.117C100.055 122.591 98.8109 122.243 98.0508 122.375C98.0508 122.375 98.6538 121.791 99.3723 121.42Z" fill="white"/>
<path id="Fill-324" d="M115.803 141.456C115.498 140.167 115.165 138.822 114.578 137.58C113.45 135.163 110.671 128.735 104.864 127.597C104.324 127.494 105.488 126.133 106.022 126.207C106.54 126.264 107.572 126.943 108.032 127.252C108.032 127.252 108.032 125.876 108.043 125.628C108.058 125.372 108.271 125.295 108.489 125.301C108.717 125.304 110.116 125.295 110.557 125.804C111.886 127.346 114.113 131.483 115.38 134.564C116.645 137.642 117.507 138.594 118.834 138.118C120.17 137.642 120.978 136.104 123.291 136.571C124.1 136.739 124.989 137.28 125.7 138.083C125.498 138.459 125.246 138.918 124.168 138.918C123.071 138.918 121 139.374 119.85 140.191C118.685 141.006 117.474 141.271 115.803 141.456Z" fill="white"/>
<path id="Fill-326" d="M92.6602 121.52C92.5406 122.518 92.0582 123.45 91.5352 124.417C91.5352 124.417 93.2986 132.608 99.6818 133.244C99.6818 133.244 99.5466 131.547 97.6625 130.251C95.766 128.959 92.944 126.948 93.1468 123.905C93.1468 123.905 93.6501 124.007 94.5536 125.152C95.4717 126.292 97.4608 129.588 100.533 129.614C100.533 129.614 100.081 128.07 98.7158 127.178C97.3527 126.292 95.6142 125.152 94.8292 123.776C94.0514 122.407 93.2258 121.773 92.6602 121.52Z" fill="white"/>
<path id="Fill-328" d="M88.4327 129.466C88.8091 130.552 91.2161 133.986 92.2705 134.961C93.3352 135.939 95.9055 138.533 97.2822 139.826C97.2822 139.826 93.3633 138.849 91.1579 136.836C91.1579 136.836 89.591 137.753 88.4472 137.753H88.3921C87.2453 137.753 85.6762 136.836 85.6762 136.836C83.4761 138.849 79.5645 139.826 79.5645 139.826C80.9338 138.533 83.5062 135.939 84.5626 134.961C85.6263 133.986 88.0417 130.552 88.4108 129.466H88.4327Z" fill="white"/>
<path id="Fill-330" d="M88.44 138.559C89.305 138.559 90.1244 138.215 90.5902 138.013C90.1244 138.995 89.2551 140.518 88.4202 141.146H88.4088C87.5728 140.518 86.7025 138.995 86.2471 138.013C86.7025 138.215 87.5208 138.559 88.39 138.559H88.44Z" fill="white"/>
<path id="Fill-332" d="M91.7972 156.837L107.116 135.23L108.674 136.366L108.768 131.288L104.127 133.072L105.6 134.136C104.85 135.195 93.3954 151.353 91.9532 153.388L85.0158 140.734L84.1591 142.051L77.9849 151.444L76.4388 150.404L76.418 155.397L81.1063 153.529L79.5331 152.48C80.3847 151.183 83.7369 146.096 84.8536 144.385L91.7972 156.837Z" fill="white"/>
<path id="Fill-334" d="M94.59 148.351C93.5564 146.782 92.5177 145.197 91.9864 144.385C91.6006 145.114 90.8125 146.537 89.9328 148.113L88.8369 146.141L91.8179 140.734L92.6841 142.051L95.7493 146.717L94.59 148.351Z" fill="white"/>
<path id="Fill-336" d="M97.7566 149.755L98.8577 151.443L100.4 150.403L100.427 155.397L95.7363 153.528L97.3022 152.48C97.1411 152.231 96.904 151.846 96.5921 151.385L97.7566 149.755Z" fill="white"/>
<path id="Fill-338" d="M128.592 116.78C127.448 115.527 125.516 116.613 123.551 118.424C121.597 120.235 120.367 122.089 121.507 123.339C122.565 124.501 124.598 123.509 126.555 121.704C128.505 119.89 129.74 118.033 128.592 116.78Z" fill="white"/>
<path id="Fill-340" d="M125.44 139.055C125.507 139 125.558 138.952 125.619 138.898C126.656 137.984 127.261 136.571 127.261 135.028C127.261 132.067 124.865 129.653 121.918 129.653C118.974 129.653 116.587 132.067 116.587 135.028C116.587 135.429 116.665 136.085 116.665 136.085C116.425 135.628 115.539 133.574 115.365 133.195C116.154 130.312 118.79 128.189 121.918 128.189C124.604 128.189 126.93 129.76 128.029 132.038C127.611 129.326 126.283 126.889 125.326 125.987C124.192 124.912 122.259 124.565 122.259 124.565C123.522 124.775 125.194 123.987 127.065 122.252C128.838 120.623 129.757 119.19 129.801 117.995C129.693 119.682 129.741 120.629 130.212 122.001C130.861 123.87 132.624 127.325 132.002 131.224C131.654 133.364 130.11 136.55 127.54 139.152C126.984 139.735 126.777 140.601 126.716 141.047C126.716 141.047 122.911 141.047 122.004 141.134C122.004 141.134 121.108 141.047 121.123 140.484C121.14 139.916 121.634 139.772 122.09 139.772C122.533 139.772 124.431 139.818 125.44 139.055Z" fill="white"/>
<path id="Fill-342" d="M100.399 140.162C97.1611 138.375 93.996 135.634 91.1377 131.238L90.624 130.376C91.4091 130.726 92.4104 130.475 92.4104 130.475C92.4675 130.552 92.585 130.751 92.6443 130.867C95.3082 134.815 98.257 137.312 101.266 138.942L100.399 140.162Z" fill="white"/>
<path id="Fill-344" d="M104.405 140.352C106.855 141.24 109.294 141.722 111.605 142.078C113.118 142.306 114.596 142.391 116.001 142.317C115.981 142.552 115.981 142.862 116.117 143.091C116.117 143.091 115.839 143.428 115.839 143.798C114.397 143.85 112.914 143.769 111.384 143.529C108.869 143.138 106.194 142.627 103.526 141.601L104.405 140.352Z" fill="white"/>
<path id="Fill-346" d="M121.792 141.57C122.246 141.497 123.672 141.538 124.52 141.663C125.455 141.815 126.52 142.002 126.635 142.525C126.737 143.018 126.4 143.541 125.932 144.289C125.628 144.749 124.933 144.484 124.558 144.338C124.169 144.198 121.972 143.012 121.614 142.627C121.273 142.236 121.123 141.683 121.792 141.57Z" fill="white"/>
<path id="Fill-348" d="M119.548 143.026C119.788 142.878 120.367 142.653 120.961 142.881C121.552 143.103 123.71 144.385 123.861 144.995C124.002 145.594 123.704 145.889 123.369 146.026C123.041 146.16 122.63 146.288 122.331 146.321C121.794 146.363 121.271 146.047 120.99 145.706C120.709 145.36 119.707 144.132 119.548 143.85C119.412 143.579 119.338 143.179 119.548 143.026Z" fill="white"/>
<path id="Fill-350" d="M119.296 144.376C119.605 144.732 120.485 145.796 120.583 145.973C120.692 146.148 120.529 146.427 120.258 146.391C119.981 146.363 118.499 146.21 117.643 145.626C116.789 145.036 116.222 143.897 116.812 143.491C117.386 143.08 118.306 143.272 119.296 144.376Z" fill="white"/>
<path id="Fill-352" d="M118.814 141.111C119.096 141.046 120.223 140.764 120.465 141.134C120.764 141.599 120.55 142.098 119.677 142.525C118.814 142.939 117.166 143.277 116.837 142.829C116.516 142.364 116.97 141.599 118.814 141.111Z" fill="white"/>
<g id="Fill-354 Clipped">
<mask id="mask0" mask-type="alpha" maskUnits="userSpaceOnUse" x="0" y="6" width="366" height="179">
<path id="path-1" fill-rule="evenodd" clip-rule="evenodd" d="M0 184.07H365.056V6.08162H0V184.07Z" fill="white"/>
</mask>
<g mask="url(#mask0)">
<path id="Fill-354" d="M188.212 185.035H365.056V7.04649H188.212V185.035Z" fill="#CC003D"/>
</g>
</g>
<g id="Fill-356 Clipped">
<mask id="mask1" mask-type="alpha" maskUnits="userSpaceOnUse" x="0" y="6" width="366" height="179">
<path id="path-1_2" fill-rule="evenodd" clip-rule="evenodd" d="M0 184.07H365.056V6.08162H0V184.07Z" fill="white"/>
</mask>
<g mask="url(#mask1)">
<path id="Fill-356" fill-rule="evenodd" clip-rule="evenodd" d="M333.78 49.9897C341.352 49.9897 344.557 53.5656 345.368 60.437C345.568 62.1407 348.061 88.8069 348.061 88.8069H340.817C340.817 88.8069 339.491 70.7441 339.409 69.9592C339.05 69.9592 337.074 69.9572 335.072 69.9551C333.017 69.953 330.934 69.9508 330.544 69.9508C330.507 70.8037 329.859 88.8069 329.859 88.8069H322.843L324.152 49.9897H333.78ZM330.745 60.4088C330.709 61.8227 330.675 63.148 330.668 63.5043H338.692C338.212 57.3634 337.344 56.4446 332.178 56.4446H330.842C330.835 56.8533 330.788 58.6961 330.745 60.4088Z" fill="white"/>
</g>
</g>
<g id="Fill-357 Clipped">
<mask id="mask2" mask-type="alpha" maskUnits="userSpaceOnUse" x="0" y="6" width="366" height="179">
<path id="path-1_3" fill-rule="evenodd" clip-rule="evenodd" d="M0 184.07H365.056V6.08162H0V184.07Z" fill="white"/>
</mask>
<g mask="url(#mask2)">
<path id="Fill-357" fill-rule="evenodd" clip-rule="evenodd" d="M248.642 103.301C256.212 103.301 259.42 106.878 260.229 113.748C260.429 115.453 262.922 142.118 262.922 142.118H255.678C255.678 142.118 254.352 124.055 254.271 123.27C253.911 123.27 251.937 123.268 249.936 123.266C247.88 123.264 245.796 123.262 245.406 123.262C245.367 124.115 244.72 142.118 244.72 142.118H237.703L239.012 103.301H248.642ZM245.606 113.72C245.57 115.134 245.537 116.459 245.529 116.816H253.553C253.072 110.676 252.127 109.677 246.96 109.677L245.703 109.757C245.696 110.166 245.65 112.008 245.606 113.72Z" fill="white"/>
</g>
</g>
<g id="Fill-358 Clipped">
<mask id="mask3" mask-type="alpha" maskUnits="userSpaceOnUse" x="0" y="6" width="366" height="179">
<path id="path-1_4" fill-rule="evenodd" clip-rule="evenodd" d="M0 184.07H365.056V6.08162H0V184.07Z" fill="white"/>
</mask>
<g mask="url(#mask3)">
<path id="Fill-358" d="M207.58 49.9896V88.7974H214.671V56.4434H223.459V88.7974H230.562V49.9896H207.58Z" fill="white"/>
</g>
</g>
<g id="Fill-359 Clipped">
<mask id="mask4" mask-type="alpha" maskUnits="userSpaceOnUse" x="0" y="6" width="366" height="179">
<path id="path-1_5" fill-rule="evenodd" clip-rule="evenodd" d="M0 184.07H365.056V6.08162H0V184.07Z" fill="white"/>
</mask>
<g mask="url(#mask4)">
<path id="Fill-359" d="M282.599 63.5049H278.738C277.142 63.5049 275.958 63.1459 275.203 62.4207C274.671 61.9173 274.41 61.235 274.41 60.3454V49.9892H267.302V61.0696C267.302 63.6242 268.306 65.7842 270.288 67.5004C272.242 69.2 274.634 70.056 277.41 70.056H282.599V88.798H289.696V49.9892H282.599V63.5049Z" fill="white"/>
</g>
</g>
<g id="Fill-360 Clipped">
<mask id="mask5" mask-type="alpha" maskUnits="userSpaceOnUse" x="0" y="6" width="366" height="179">
<path id="path-1_6" fill-rule="evenodd" clip-rule="evenodd" d="M0 184.07H365.056V6.08162H0V184.07Z" fill="white"/>
</mask>
<g mask="url(#mask5)">
<path id="Fill-360" d="M297.554 49.9896V56.4434H303.447V88.7974H303.534H310.538H310.626V56.4434H316.519V49.9896H297.554Z" fill="white"/>
</g>
</g>
<g id="Fill-361 Clipped">
<mask id="mask6" mask-type="alpha" maskUnits="userSpaceOnUse" x="0" y="6" width="366" height="179">
<path id="path-1_7" fill-rule="evenodd" clip-rule="evenodd" d="M0 184.07H365.056V6.08162H0V184.07Z" fill="white"/>
</mask>
<g mask="url(#mask6)">
<path id="Fill-361" d="M287.143 103.3V115.705H277.408V103.3H270.328V142.124H277.408V122.159H287.143V142.124H294.223V103.3H287.143Z" fill="white"/>
</g>
</g>
<g id="Fill-362 Clipped">
<mask id="mask7" mask-type="alpha" maskUnits="userSpaceOnUse" x="0" y="6" width="366" height="179">
<path id="path-1_8" fill-rule="evenodd" clip-rule="evenodd" d="M0 184.07H365.056V6.08162H0V184.07Z" fill="white"/>
</mask>
<g mask="url(#mask7)">
<path id="Fill-362" fill-rule="evenodd" clip-rule="evenodd" d="M214.674 116.077C215.649 116.032 216.734 116.003 217.956 116.003C229.088 116.003 230.741 124.75 230.741 128.956C230.741 132.51 229.078 142.11 218.347 142.11H208.063H207.583V109.755V103.301H227.401V109.755H214.674V116.077ZM214.674 135.956C214.674 135.956 216.408 136.116 217.097 136.116C219.018 136.116 223.69 135.716 223.69 129.131C223.69 122.148 219.671 122.155 216.141 122.16C216.041 122.16 215.94 122.161 215.841 122.161C215.232 122.161 214.674 122.292 214.674 122.292V127.585V128.379V135.956Z" fill="white"/>
</g>
</g>
<g id="Fill-363 Clipped">
<mask id="mask8" mask-type="alpha" maskUnits="userSpaceOnUse" x="0" y="6" width="366" height="179">
<path id="path-1_9" fill-rule="evenodd" clip-rule="evenodd" d="M0 184.07H365.056V6.08162H0V184.07Z" fill="white"/>
</mask>
<g mask="url(#mask8)">
<path id="Fill-363" fill-rule="evenodd" clip-rule="evenodd" d="M259.552 55.6689C261.019 58.4945 261.966 62.4723 262.089 68.024L262.105 69.2798L262.104 69.2788C262.101 72.7375 261.718 76.0916 260.97 78.7926C259.022 86.7451 254.522 89.5581 249.825 89.6429C249.812 89.6433 249.8 89.644 249.787 89.6448C249.767 89.6459 249.747 89.6471 249.728 89.6471C249.717 89.6471 249.707 89.6468 249.697 89.6465C249.686 89.6463 249.676 89.646 249.665 89.646C249.655 89.646 249.645 89.6463 249.634 89.6465C249.624 89.6468 249.613 89.6471 249.603 89.6471C249.585 89.6471 249.566 89.6459 249.546 89.6448C249.533 89.6441 249.519 89.6433 249.506 89.6429C244.809 89.5581 240.309 86.7451 238.361 78.7926C237.613 76.0916 237.231 72.7375 237.227 69.2788L237.226 69.2798C237.226 69.2704 237.241 68.0324 237.242 68.024C237.365 62.4723 238.311 58.4945 239.779 55.6689C242.093 50.8393 245.776 49.0361 249.579 48.9901C249.583 48.9901 249.587 48.9893 249.591 48.9885C249.595 48.9877 249.599 48.9869 249.603 48.9869C249.613 48.9869 249.624 48.9872 249.634 48.9875C249.645 48.9877 249.655 48.988 249.665 48.988C249.676 48.988 249.686 48.9877 249.697 48.9875C249.707 48.9872 249.717 48.9869 249.728 48.9869C249.732 48.9869 249.736 48.9877 249.74 48.9885C249.744 48.9893 249.748 48.9901 249.752 48.9901C253.555 49.0361 257.239 50.8393 259.552 55.6689ZM244.306 69.4598V69.463C244.367 79.723 246.945 83.2267 249.665 83.2801C252.385 83.2267 254.965 79.723 255.024 69.463V69.4598C254.965 58.955 252.385 55.4983 249.665 55.4471C246.945 55.4983 244.366 58.955 244.306 69.4598Z" fill="white"/>
</g>
</g>
<g id="Fill-364 Clipped">
<mask id="mask9" mask-type="alpha" maskUnits="userSpaceOnUse" x="0" y="6" width="366" height="179">
<path id="path-1_10" fill-rule="evenodd" clip-rule="evenodd" d="M0 184.07H365.056V6.08162H0V184.07Z" fill="white"/>
</mask>
<g mask="url(#mask9)">
<path id="Fill-364" d="M329.551 142.113L321.015 119.364C322.787 118.036 324.167 115.492 324.78 112.958C325.375 110.496 326.158 103.3 326.158 103.3H319.177C319.134 104.032 318.983 106.495 318.765 108.998C318.442 112.709 317.356 116.132 313.585 116.132H310.675C310.669 115.821 310.675 103.3 310.675 103.3H303.577V142.124H310.675V122.412C310.675 122.412 314.429 122.417 314.96 122.413L321.931 142.113H329.551Z" fill="white"/>
</g>
</g>
</g>
</g>
</g>
</svg>
