<svg width="240" height="192" viewBox="0 0 240 192" fill="none" xmlns="http://www.w3.org/2000/svg">
<g id="logo/visa">
<g id="visa_logo">
<mask id="mask0" mask-type="alpha" maskUnits="userSpaceOnUse" x="0" y="60" width="240" height="78">
<path id="a" fill-rule="evenodd" clip-rule="evenodd" d="M0 137.731V60H240V137.731H0Z" fill="white"/>
</mask>
<g mask="url(#mask0)">
<path id="Shape" fill-rule="evenodd" clip-rule="evenodd" d="M171.45 112.009C171.501 100.138 161.697 94.9779 153.852 90.8495C148.585 88.0772 144.201 85.7701 144.279 82.2083C144.334 79.5087 146.897 76.6443 152.503 75.912C155.284 75.548 162.939 75.2663 171.626 79.2747L175.029 63.3367C170.357 61.6337 164.357 60 156.887 60C137.721 60 124.23 70.2223 124.114 84.856C123.994 95.6763 133.744 101.713 141.094 105.309C148.646 108.997 151.187 111.359 151.153 114.652C151.106 119.7 145.127 121.923 139.551 122.014C130.091 122.161 124.485 119.537 120.043 117.457L119.631 117.265L116.117 133.736C120.647 135.825 129.009 137.636 137.687 137.731C158.057 137.731 171.386 127.635 171.45 112.009ZM118.834 61.3737L102.797 136.557H83.4043L99.4457 61.3737H118.834ZM200.426 109.92L210.634 81.6883L216.51 109.92H200.426ZM240 136.557H222.064V136.553L219.729 125.329H194.846L190.804 136.557H170.439L199.534 66.89C200.931 63.5447 204.069 61.3737 207.789 61.3737H224.349L240 136.557ZM59.7043 136.557L91.1229 61.3737H70.7529L50.5714 112.546L42.4029 69.0393C41.4471 64.1817 37.6629 61.3737 33.4629 61.3737H0.462857L0 63.5533C6.77143 65.0353 14.4729 67.41 19.1314 69.9493C21.9857 71.505 22.8 72.857 23.7429 76.5533L39.2014 136.557H59.7043Z" fill="#011340"/>
</g>
</g>
</g>
</svg>
