<svg width="366" height="96" viewBox="0 0 366 96" fill="none" xmlns="http://www.w3.org/2000/svg">
<g id="Logo Copy 2">
<g id="Group">
<path id="Fill 41" fill-rule="evenodd" clip-rule="evenodd" d="M186.876 33.774H195.618C195.906 37.242 196.428 38.64 200.166 40.836C204.444 43.35 209.73 44.112 215.484 44.112C221.082 44.112 230.952 43.386 230.952 39.702C230.952 35.874 229.836 34.644 226.404 33.282C224.694 32.604 217.332 31.734 209.352 30.66C201.378 29.592 194.292 29.334 191.028 27.318C187.77 25.314 187.65 19.23 187.65 16.278C187.65 13.14 189.81 10.2 194.13 7.488C198.462 4.764 205.074 3.402 214.008 3.402C218.55 3.402 222.948 3.762 227.178 4.476C231.426 5.196 233.844 5.556 234.45 5.556C235.812 5.556 236.766 5.358 237.288 4.962C237.804 4.572 238.23 4.056 238.554 3.402H244.854V17.394H238.806C237.396 11.934 234.048 10.878 230.142 9.798C225.3 8.472 220.98 8.826 215.064 8.826C210.9 8.826 202.074 9.546 202.074 12.996C202.074 15.024 202.71 16.254 204.972 17.262C207.186 18.282 210.276 19.194 219.522 20.184C225.186 20.778 226.518 20.73 230.694 21.552C234.864 22.362 237.126 22.536 241.05 24.726C244.98 26.922 245.988 31.89 245.988 35.346C245.988 38.592 243.516 41.652 238.602 44.514C233.67 47.388 225.768 48.822 214.92 48.822C212.424 48.822 209.904 48.708 207.342 48.474C204.786 48.234 202.008 47.826 199.782 47.406C196.566 46.656 195.666 48.072 195.618 48.822H186.876V33.774Z" fill="white"/>
<path id="Fill 42" fill-rule="evenodd" clip-rule="evenodd" d="M343.475 4.518C347.909 5.538 349.001 5.712 349.799 5.064C350.597 4.41 351.101 3.726 351.299 3H358.511V19.08H351.581C351.473 15.684 348.509 13.722 345.767 12.096C340.607 9.018 337.781 8.646 331.613 8.646C324.629 8.646 319.679 9.684 316.751 13.44C313.817 17.214 312.347 19.668 312.347 26.01C312.347 30.684 312.923 33.354 314.657 36.372C317.873 42.012 322.271 43.164 331.019 43.164C342.143 43.164 349.793 34.902 349.793 30.846L359.177 30.936C356.237 38.094 347.759 49.206 331.223 49.206C320.927 49.206 312.311 47.298 305.351 43.476C297.653 39.252 293.795 33.564 293.795 26.406C293.795 19.314 297.479 13.572 304.835 9.18C311.759 5.058 320.249 3 330.287 3C334.631 3 339.023 3.504 343.475 4.518Z" fill="white"/>
<path id="Fill 43" fill-rule="evenodd" clip-rule="evenodd" d="M181.981 4.47H153.313V11.532H160.171C160.735 11.778 161.095 12.096 161.683 12.48C163.021 13.362 163.687 14.946 163.687 17.262V32.124C163.687 35.742 162.109 38.394 160.609 40.41C158.365 43.44 155.809 43.668 148.033 43.668C141.757 43.668 133.483 41.67 133.483 33.528V16.806C133.483 14.322 134.143 12.738 135.457 12.048C135.829 11.85 136.135 11.676 136.471 11.532H143.641V4.47H107.599V11.532H114.853C115.255 11.724 115.507 11.946 115.921 12.21C116.929 12.834 117.427 14.37 117.427 16.806V33.516C117.427 37.218 118.567 40.242 120.841 42.588C125.119 47.004 133.081 49.206 144.715 49.206C153.607 49.206 160.135 47.724 164.275 44.754C168.433 41.784 170.509 37.566 170.509 32.112V16.344C170.509 14.262 171.025 12.93 172.063 12.354C172.603 12.06 172.837 11.778 173.389 11.532H181.981V4.47Z" fill="white"/>
<path id="Fill 44" fill-rule="evenodd" clip-rule="evenodd" d="M280.133 11.658C280.259 11.616 280.379 11.568 280.535 11.532H289.613V4.47H251.423V11.532H260.489C260.663 11.574 260.819 11.64 260.963 11.688C262.613 12.33 263.435 13.608 263.435 15.504V37.05C263.435 38.952 262.571 40.254 260.843 40.926C260.825 40.926 260.813 40.932 260.795 40.932H251.423V47.988H289.613V40.932H280.325C280.085 40.854 279.845 40.764 279.629 40.68C278.291 40.062 277.613 38.862 277.613 37.05V15.504C277.613 13.584 278.459 12.306 280.133 11.658Z" fill="white"/>
<path id="Fill 45" fill-rule="evenodd" clip-rule="evenodd" d="M96.36 40.854C96.018 40.686 95.712 40.482 95.274 40.26C93.888 39.522 93.198 37.956 93.198 35.574V16.794C93.198 14.298 93.888 12.732 95.274 12.096C95.748 11.88 96.078 11.694 96.456 11.532H102.756V4.47H74.826L52.956 34.218H52.032L30 4.47H2.37598V11.532H8.53198C8.84998 11.658 9.17398 11.802 9.59398 11.958C11.046 12.516 11.784 13.668 11.784 15.414V36.354C11.784 38.052 11.142 39.33 9.85798 40.182C9.46798 40.44 9.16198 40.668 8.79598 40.854H2.37598V47.91H28.632V40.854H21.888C21.276 40.644 20.796 40.362 20.304 40.008C18.924 39.012 18.828 38.592 18.828 36.426V13.398L44.67 47.898H51.522L75.924 14.286V36.726C75.924 38.682 75.078 39.96 73.404 40.53C73.062 40.656 72.786 40.752 72.54 40.854H67.05V47.91H102.756V40.854H96.36Z" fill="white"/>
<path id="Fill 46" fill-rule="evenodd" clip-rule="evenodd" d="M287.676 71.496C291.792 69.228 296.76 68.088 302.568 68.088C305.874 68.088 308.994 68.556 311.91 69.474C314.826 70.41 317.07 71.67 318.648 73.314C319.83 74.556 320.652 76.158 321.114 78.12C321.336 79.038 321.456 81.456 321.456 81.948H294.066C294.3 84.084 294.696 85.35 295.77 86.91C297.75 89.844 303.174 90.18 308.118 90.18C310.482 90.18 313.992 87.936 313.992 86.31L320.82 86.346C318.966 90.15 316.194 92.076 311.25 93.36C308.586 94.044 305.364 94.086 301.92 94.086C296.964 94.086 292.32 93.048 288 90.978C283.674 88.914 281.508 85.608 281.508 81.066C281.508 76.956 283.554 73.77 287.676 71.496ZM309.048 78.252C308.988 75.12 307.122 70.662 302.124 70.662C296.304 70.662 294.792 75.492 294.66 78.252H309.048Z" fill="white"/>
<path id="Fill 47" fill-rule="evenodd" clip-rule="evenodd" d="M357.691 67.668C355.243 67.668 352.519 68.52 350.665 69.402C348.805 70.254 346.933 71.43 345.037 72.906V68.736H344.245V68.694H327.853L327.841 73.434H330.373V73.44C332.257 73.584 332.845 75.42 332.845 76.542V84.228L332.761 85.794C332.701 86.802 332.119 88.386 330.535 88.596H327.841V93.336H352.021V88.596H351.403C349.111 88.446 347.551 88.176 346.759 87.762C345.901 87.318 345.475 86.22 345.475 84.456V77.754C345.475 76.116 346.075 74.856 347.281 73.968C348.487 73.086 349.687 72.642 350.875 72.642C355.441 72.642 355.171 78.072 358.783 78.072C363.949 78.072 364.273 75.246 364.273 72.246C364.273 68.772 359.515 67.668 357.691 67.668Z" fill="white"/>
<path id="Fill 48" fill-rule="evenodd" clip-rule="evenodd" d="M46.602 88.596V75.984C46.602 73.11 45.342 71.076 42.828 69.888C40.296 68.688 37.11 68.088 33.258 68.088C30.396 68.088 27.84 68.448 25.566 69.168C23.292 69.894 21.126 70.908 19.062 72.222V57.288H0V62.028H4.944V88.596H0V93.336H23.82V88.596H19.164V74.706C19.164 74.394 20.094 73.806 21.936 72.948C23.784 72.102 25.572 71.67 27.3 71.67C29.622 71.67 31.17 72.222 31.968 73.326C32.424 73.932 32.646 74.85 32.646 76.068V88.596H28.866V93.336H52.488V88.596H46.602Z" fill="white"/>
<path id="Fill 49" fill-rule="evenodd" clip-rule="evenodd" d="M104.268 88.596C104.01 88.2 103.872 87.708 103.872 87.096V68.694H83.7063V73.434H90.1263V88.218C88.7763 88.92 87.6663 89.418 86.7723 89.706C85.2303 90.246 83.6523 90.516 82.0383 90.516C79.5063 90.516 77.8203 90.072 76.9623 89.184C76.4703 88.68 76.2183 87.894 76.2183 86.814V68.694H57.1143V73.434H62.2683V86.568C62.2683 89.364 63.6663 91.308 66.4803 92.406C69.2823 93.492 72.3003 94.044 75.5463 94.044C78.5403 94.044 81.4143 93.648 84.1743 92.844C85.7463 92.394 87.7383 91.614 90.1263 90.516C90.1263 90.516 90.6183 93.372 93.5583 93.372C96.5103 93.372 101.52 93.39 107.742 93.336V88.596H104.268Z" fill="white"/>
<path id="Fill 50" fill-rule="evenodd" clip-rule="evenodd" d="M188.359 88.596V75.6C188.359 72.996 187.003 71.1 184.297 69.9C181.597 68.694 178.489 68.088 174.949 68.088C171.703 68.088 168.703 68.604 165.961 69.63C164.227 70.254 162.403 71.19 160.501 72.426H159.817C158.707 71.124 157.525 70.176 156.277 69.612C154.051 68.604 150.925 68.088 146.893 68.088C143.329 68.088 140.083 68.682 137.173 69.846C135.595 70.488 133.981 71.394 132.313 72.552V68.736H113.191V73.464H118.675V88.596H114.865V93.336H136.483V88.596H132.691V74.718C132.691 74.496 133.567 73.932 135.337 73.032C137.107 72.132 139.033 71.67 141.091 71.67C143.347 71.67 144.835 72.066 145.561 72.858C146.287 73.638 146.635 74.706 146.635 76.068V88.596H141.313V93.336H164.551V88.596H160.603V74.706C160.603 74.376 161.551 73.794 163.477 72.948C165.385 72.102 167.215 71.67 168.949 71.67C171.115 71.67 172.579 72.06 173.353 72.828C174.115 73.596 174.505 74.676 174.505 76.068V88.596H169.981V93.336H193.219V88.596H188.359Z" fill="white"/>
<path id="Fill 51" fill-rule="evenodd" clip-rule="evenodd" d="M272.209 88.596V75.6C272.209 72.996 270.853 71.1 268.159 69.9C265.453 68.694 262.333 68.088 258.793 68.088C255.559 68.088 252.559 68.604 249.805 69.63C248.071 70.254 246.259 71.19 244.351 72.426H243.667C242.551 71.124 241.375 70.176 240.127 69.612C237.907 68.604 234.769 68.088 230.755 68.088C227.179 68.088 223.933 68.682 221.023 69.846C219.457 70.488 217.825 71.394 216.163 72.552V68.736H213.283V68.694H196.885V73.434H202.525V88.596H196.345V93.336H219.595V88.596H216.535V74.718C216.535 74.496 217.417 73.932 219.193 73.032C220.969 72.132 222.877 71.67 224.941 71.67C227.203 71.67 228.691 72.066 229.417 72.858C230.131 73.638 230.491 74.706 230.491 76.068V88.596H225.247V93.336H248.485V88.596H244.453V74.706C244.453 74.376 245.407 73.794 247.321 72.948C249.241 72.102 251.071 71.67 252.805 71.67C254.965 71.67 256.429 72.06 257.203 72.828C257.977 73.596 258.355 74.676 258.355 76.068V88.596H253.909V93.336H275.809V88.596H272.209Z" fill="white"/>
</g>
</g>
</svg>
