<svg xmlns="http://www.w3.org/2000/svg" style="display:none"><symbol id="icon-search" viewBox="0 0 72 72"><g fill-rule="evenodd" clip-rule="evenodd"><path d="M27 45c9.941 0 18-8.059 18-18S36.941 9 27 9 9 17.059 9 27s8.059 18 18 18z" fill="#EDEFF2"/><path d="M6 27c0 11.7 9.3 21 21 21 5.25 0 10.015-1.872 13.675-4.993L42 44.333V48l18 18 6-6-18-18h-4.09l-1.098-1.099C46.05 37.213 48 32.358 48 27c0-11.7-9.3-21-21-21S6 15.3 6 27zm6 0c0-8.4 6.6-15 15-15s15 6.6 15 15-6.6 15-15 15-15-6.6-15-15z" fill="#1A1919"/></g></symbol><symbol id="ic_account_balance" viewBox="0 0 72 72"><path fill-rule="evenodd" clip-rule="evenodd" d="M12 30v21h9V30h-9zm18 0v21h9V30h-9zM6 66h57v-9H6v9zm42-36v21h9V30h-9zM34.5 3L6 18v6h57v-6L34.5 3z" fill="#C4C6CC"/><mask id="a" maskUnits="userSpaceOnUse" x="6" y="3" width="57" height="63"><path fill-rule="evenodd" clip-rule="evenodd" d="M12 30v21h9V30h-9zm18 0v21h9V30h-9zM6 66h57v-9H6v9zm42-36v21h9V30h-9zM34.5 3L6 18v6h57v-6L34.5 3z" fill="#fff"/></mask></symbol><symbol id="ic_account_balance_wallet" viewBox="0 0 72 72"><path fill-rule="evenodd" clip-rule="evenodd" d="M63 54v3c0 3.3-2.7 6-6 6H15c-3.33 0-6-2.7-6-6V15c0-3.3 2.67-6 6-6h42c3.3 0 6 2.7 6 6v3H36c-3.33 0-6 2.7-6 6v24c0 3.3 2.67 6 6 6h27zm-27-6h30V24H36v24zm12-7.5c-2.49 0-4.5-2.01-4.5-4.5s2.01-4.5 4.5-4.5 4.5 2.01 4.5 4.5-2.01 4.5-4.5 4.5z" fill="#C4C6CC"/><mask id="a" maskUnits="userSpaceOnUse" x="9" y="9" width="57" height="54"><path fill-rule="evenodd" clip-rule="evenodd" d="M63 54v3c0 3.3-2.7 6-6 6H15c-3.33 0-6-2.7-6-6V15c0-3.3 2.67-6 6-6h42c3.3 0 6 2.7 6 6v3H36c-3.33 0-6 2.7-6 6v24c0 3.3 2.67 6 6 6h27zm-27-6h30V24H36v24zm12-7.5c-2.49 0-4.5-2.01-4.5-4.5s2.01-4.5 4.5-4.5 4.5 2.01 4.5 4.5-2.01 4.5-4.5 4.5z" fill="#fff"/></mask></symbol><symbol id="ic_close" viewBox="0 0 10 10"><path fill-rule="evenodd" clip-rule="evenodd" d="M10 8.59L8.59 10 5 6.41 1.41 10 0 8.59 3.59 5 0 1.41 1.41 0 5 3.59 8.59 0 10 1.41 6.41 5 10 8.59z" fill="#1A1919"/></symbol><symbol id="ic_compare" viewBox="0 0 72 72"><path fill="#EDEFF2" d="M21 9h42v42H21z"/><path fill-rule="evenodd" clip-rule="evenodd" d="M18 12c0-3.3 2.7-6 6-6h36c3.3 0 6 2.7 6 6v36c0 3.3-2.7 6-6 6H24c-3.3 0-6-2.7-6-6V12zm42 0H24v36h36V12zM45 33v12h-6V33H27v-6h12V15h6v12h12v6H45zM6 60V18h6v42h42v6H12c-3.3 0-6-2.7-6-6z" fill="#1A1919"/></symbol><symbol id="ic_credit_card" viewBox="0 0 72 72"><path fill-rule="evenodd" clip-rule="evenodd" d="M60 12H12c-3.33 0-5.97 2.67-5.97 6L6 54c0 3.33 2.67 6 6 6h48c3.33 0 6-2.67 6-6V18c0-3.33-2.67-6-6-6zm0 42H12V36h48v18zm0-30H12v-6h48v6z" fill="#C4C6CC"/><mask id="a" maskUnits="userSpaceOnUse" x="6" y="12" width="60" height="48"><path fill-rule="evenodd" clip-rule="evenodd" d="M60 12H12c-3.33 0-5.97 2.67-5.97 6L6 54c0 3.33 2.67 6 6 6h48c3.33 0 6-2.67 6-6V18c0-3.33-2.67-6-6-6zm0 42H12V36h48v18zm0-30H12v-6h48v6z" fill="#fff"/></mask></symbol><symbol id="ic_fav" viewBox="0 0 72 72"><g fill-rule="evenodd" clip-rule="evenodd"><path d="M45.489 49.935c-.597.54-1.116 1.008-1.539 1.404A571.371 571.371 0 0 1 36 58.58a607.775 607.775 0 0 1-7.95-7.24c-.423-.396-.945-.867-1.539-1.404C21.723 45.603 9 34.098 9 24.25c0-6.513 5.298-11.814 11.811-11.814 6.165 0 9.741 4.302 9.834 4.416L36 22.563l5.352-5.709c.033-.045 3.669-4.416 9.834-4.416C57.702 12.438 63 17.736 63 24.25c0 9.85-12.723 21.354-17.511 25.686z" fill="#EDEFF2"/><path d="M49.5 9C40.815 9 36 15.27 36 15.27S31.185 9 22.5 9C13.386 9 6 16.386 6 25.5c0 12.513 14.736 24.639 18.843 28.47C29.574 58.38 36 64.05 36 64.05s6.426-5.67 11.157-10.08C51.264 50.139 66 38.013 66 25.5 66 16.386 58.614 9 49.5 9zm-5.067 39.33c-.531.48-.993.897-1.368 1.248A525.335 525.335 0 0 1 36 56.013a527.14 527.14 0 0 1-7.065-6.435c-.378-.351-.84-.771-1.368-1.248C23.307 44.481 12 34.257 12 25.5 12 19.71 16.71 15 22.5 15c5.481 0 8.658 3.825 8.742 3.924L36 24l4.758-5.076C40.788 18.885 44.019 15 49.5 15 55.29 15 60 19.71 60 25.5c0 8.757-11.307 18.981-15.567 22.83z" fill="#1A1919"/></g></symbol><symbol id="ic_fav2" viewBox="0 0 144 144"><path fill-rule="evenodd" clip-rule="evenodd" d="M81.158 134.703a3.529 3.529 0 0 1-2.085-2.866l-1.637-15.797H28.753C19.516 116.04 12 108.499 12 99.23V31.81C12 22.541 19.516 15 28.753 15h86.495C124.484 15 132 22.541 132 31.81v67.42c0 9.269-7.516 16.81-16.752 16.81h-6.162l-24.415 18.261a3.503 3.503 0 0 1-3.513.402z" fill="#fff" stroke="#DFE2E7"/><path d="M72 98.668a3.505 3.505 0 0 1-1.64-.406c-.373-.198-9.243-4.915-18.234-12.015-12.631-9.975-19.005-19.486-18.944-28.265.04-5.812 2.304-11.268 6.377-15.366 4.089-4.114 9.529-6.38 15.317-6.38 6.806 0 13.087 3.218 17.123 8.43 4.037-5.212 10.319-8.43 17.124-8.43 5.84 0 11.322 2.29 15.436 6.448 4.075 4.118 6.298 9.568 6.258 15.347-.06 8.757-6.465 18.249-19.035 28.213-8.956 7.1-17.764 11.815-18.135 12.013a3.502 3.502 0 0 1-1.648.411z" fill="#F30707"/><path fill-rule="evenodd" clip-rule="evenodd" d="M104.56 42.684c-4.115-4.158-9.597-6.447-15.437-6.447-6.676 0-12.846 3.097-16.889 8.135v54.282c.487-.032.97-.16 1.414-.397.37-.198 9.178-4.913 18.135-12.013 12.57-9.964 18.974-19.456 19.034-28.212.041-5.78-2.182-11.23-6.257-15.348z" fill="#BA0000"/></symbol><symbol id="ic_favorite_border" viewBox="0 0 72 72"><path clip-rule="evenodd" d="M49.5 9c-5.22 0-10.23 2.43-13.5 6.27C32.73 11.43 27.72 9 22.5 9 13.26 9 6 16.26 6 25.5c0 11.34 10.2 20.58 25.65 34.62L36 64.05l4.35-3.96C55.8 46.08 66 36.84 66 25.5 66 16.26 58.74 9 49.5 9zM36.3 55.65l-.3.3-.3-.3C21.42 42.72 12 34.17 12 25.5c0-6 4.5-10.5 10.5-10.5 4.62 0 9.12 2.97 10.71 7.08h5.61C40.38 17.97 44.88 15 49.5 15c6 0 10.5 4.5 10.5 10.5 0 8.67-9.42 17.22-23.7 30.15z"/><mask id="a" maskUnits="userSpaceOnUse" x="6" y="9" width="60" height="56"><path fill-rule="evenodd" clip-rule="evenodd" d="M49.5 9c-5.22 0-10.23 2.43-13.5 6.27C32.73 11.43 27.72 9 22.5 9 13.26 9 6 16.26 6 25.5c0 11.34 10.2 20.58 25.65 34.62L36 64.05l4.35-3.96C55.8 46.08 66 36.84 66 25.5 66 16.26 58.74 9 49.5 9zM36.3 55.65l-.3.3-.3-.3C21.42 42.72 12 34.17 12 25.5c0-6 4.5-10.5 10.5-10.5 4.62 0 9.12 2.97 10.71 7.08h5.61C40.38 17.97 44.88 15 49.5 15c6 0 10.5 4.5 10.5 10.5 0 8.67-9.42 17.22-23.7 30.15z" fill="#fff"/></mask></symbol><symbol id="ic_gift" viewBox="0 0 40 38"><path d="M30.715 3.473C29.523 1.221 28.096.08 26.473.08c-1.87 0-3.81 1.544-5.771 4.592-.25.39-.486.78-.703 1.156a26.93 26.93 0 0 0-.703-1.156c-1.96-3.048-3.901-4.592-5.77-4.592-1.623 0-3.05 1.141-4.242 3.394-.89 1.686-.569 2.897-.143 3.616.768 1.295 2.484 2.167 5.247 2.666 2.121.384 4.366.44 5.516.44h.191c1.15 0 3.395-.056 5.516-.44 2.762-.499 4.479-1.371 5.248-2.666.424-.719.747-1.93-.144-3.616z" fill="#BA0000"/><path d="M35.832 14.675H4.167c-.92 0-1.667.755-1.667 1.685v19.954c0 .93.746 1.685 1.667 1.685h31.665c.92 0 1.667-.754 1.667-1.685V16.36c0-.93-.747-1.685-1.667-1.685z" fill="#C4C6CC"/><path d="M40 17.776c0 .93-.748 1.685-1.668 1.685H1.667c-.92 0-1.667-.754-1.667-1.685V9.349c0-.93.746-1.686 1.667-1.686h36.665c.92 0 1.667.755 1.667 1.686v8.427z" fill="#C4C6CC"/><path fill="#BA0000" d="M15.834 7.663h8.334V19.46h-8.334z"/><path d="M2.5 21.127l35 3.218v-4.83h-35v1.612z" fill="#939599"/><path fill="#BA0000" d="M15.834 19.46h8.334v18.539h-8.334z"/><path d="M15.832 22.353l8.334.767v-3.606h-8.334v2.84z" fill="#870000"/></symbol><symbol id="ic_plus-car" viewBox="0 0 144 144"><path opacity=".3" d="M135 69v36h-12.6v-3c0-8.4-6.6-15-15-15S93 93.6 93 102v3H44.4c.6-1.2.6-1.8.6-3 0-8.4-6.6-15-15-15s-15 6.6-15 15v3H9V63h96l30 6z" fill="#BA0000"/><path fill-rule="evenodd" clip-rule="evenodd" d="M3 99c0 5.098 3.222 9.48 7.73 11.211C13.993 117.657 21.496 123 30 123c8.2 0 15.47-4.968 18.904-12h40.192c3.434 7.032 10.703 12 18.904 12 8.857 0 16.628-5.795 19.654-13.727l9.746-4.873c2.4-1.2 3.6-3 3.6-5.4V73.8c0-6-4.2-10.8-9.6-12l-22.2-4.2-15-30.6c-1.8-3.6-6-6-10.2-6H30.6c-4.2 0-8.4 1.8-10.8 6L3.6 60.6C3 61.2 3 61.8 3 63v36zm125.4-3.6l-.43.215C125.201 87.231 117.185 81 108 81c-10.384 0-19.274 7.965-20.777 18H50.777C49.274 88.965 40.384 81 30 81c-5.813 0-11.157 2.496-15 6.453V69h88.8l24.6 4.8v21.6zM95.182 57L83.4 33H63v24h32.182zM75 57a6 6 0 1 1 0-12 6 6 0 0 1 0 12zm-24 0V33H30.6l-12 24H51zm-12 0a6 6 0 1 1 0-12 6 6 0 0 1 0 12zm-9 36c-4.8 0-9 4.2-9 9s4.2 9 9 9 9-4.2 9-9-4.2-9-9-9zm69 9c0-4.8 4.2-9 9-9s9 4.2 9 9-4.2 9-9 9-9-4.2-9-9z" fill="#1A1919"/></symbol><symbol id="ic_plus-care" viewBox="0 0 144 144"><path d="M107.85 18c-5.184 0-11.184 3.432-15.252 6.27C88.896 21.444 83.322 18 78.15 18 71.448 18 66 23.448 66 30.15l.036.636c.96 8.922 19.272 25.956 22.932 29.28l4.026 3.654 4.032-3.648c5.142-4.656 22.002-20.55 22.938-29.412l.036-.63c0-6.636-5.454-12.03-12.15-12.03z" fill="#BA0000" opacity=".3"/><path fill-rule="evenodd" clip-rule="evenodd" d="M107.85 12C98.298 12 93 18.894 93 18.894S87.702 12 78.15 12C68.124 12 60 20.124 60 30.15 60 45 93 71.4 93 71.4s33-26.4 33-41.25C126 20.124 117.876 12 107.85 12zM93.006 55.626C81.852 45.504 72.444 34.296 72 30.15c0-3.39 2.76-6.15 6.15-6.15 5.88 0 14.244 7.956 14.244 7.956S101.958 24 107.85 24c3.39 0 6.15 2.76 6.156 6.036-.456 4.308-9.732 15.39-21 25.59zm24.51 18.858a8.488 8.488 0 0 1 12 0 8.488 8.488 0 0 1 0 12l-30 30A12.004 12.004 0 0 1 91.032 120H48l-12 12-24-24 22.974-22.968A23.972 23.972 0 0 1 51.942 78H90v6c0 6.63-5.37 12-12 12H66a3.001 3.001 0 0 0 0 6h24l27.516-27.516z" fill="#1A1919"/></symbol><symbol id="ic_plus-music" viewBox="0 0 144 144"><path opacity=".3" d="M51 123c13.255 0 24-10.745 24-24S64.255 75 51 75 27 85.745 27 99s10.745 24 24 24zM117 51L75 39V15l42 12v24z" fill="#BA0000"/><path fill-rule="evenodd" clip-rule="evenodd" d="M81 51h36c3.6 0 6-2.4 6-6V21c0-3.6-2.4-6-6-6H75c-3.6 0-6 2.4-6 6v53.856C64.015 71.164 57.803 69 51 69c-16.8 0-30 13.2-30 30s13.2 30 30 30 30-13.2 30-30V51zm0-12h30V27H81v12zM51 81c10.2 0 18 7.8 18 18s-7.8 18-18 18-18-7.8-18-18 7.8-18 18-18z" fill="#1A1919"/></symbol><symbol id="ic_plus-sale" viewBox="0 0 144 144"><path opacity=".3" d="M24 15h84v18l12 36H12l12-36V15z" fill="#BA0000"/><path fill-rule="evenodd" clip-rule="evenodd" d="M114 15v18l12 30v12H24v30h54v12H24c-6.6 0-12-5.4-12-12V75H6V63l12-30V15c0-3.6 2.4-6 6-6h84c3.6 0 6 2.4 6 6zM30 35.4L19.2 63h93.6L102 35.4V21H30v14.4zm6-2.4c0-3.6 2.4-6 6-6s6 2.4 6 6-2.4 6-6 6-6-2.4-6-6zm24-6c-3.6 0-6 2.4-6 6s2.4 6 6 6 6-2.4 6-6-2.4-6-6-6zm60 99c0-4.8 4.2-9 9-9s9 4.2 9 9-4.2 9-9 9-9-4.2-9-9zM99 87c-4.8 0-9 4.2-9 9s4.2 9 9 9 9-4.2 9-9-4.2-9-9-9zm39 0l-35.4 48H90l35.4-48H138z" fill="#1A1919"/></symbol><symbol id="ic_queue" viewBox="0 0 72 72"><path clip-rule="evenodd" d="M12 18H6v42c0 3.3 2.7 6 6 6h42v-6H12V18zM60 6H24c-3.3 0-6 2.7-6 6v36c0 3.3 2.7 6 6 6h36c3.3 0 6-2.7 6-6V12c0-3.3-2.7-6-6-6zm-3 27H45v12h-6V33H27v-6h12V15h6v12h12v6z"/><mask id="a" maskUnits="userSpaceOnUse" x="6" y="6" width="60" height="60"><path fill-rule="evenodd" clip-rule="evenodd" d="M12 18H6v42c0 3.3 2.7 6 6 6h42v-6H12V18zM60 6H24c-3.3 0-6 2.7-6 6v36c0 3.3 2.7 6 6 6h36c3.3 0 6-2.7 6-6V12c0-3.3-2.7-6-6-6zm-3 27H45v12h-6V33H27v-6h12V15h6v12h12v6z" fill="#fff"/></mask></symbol><symbol id="ic_shopping_cart" viewBox="0 0 72 72"><path d="M18.71 15h44.286L52.187 34.458A3.009 3.009 0 0 1 49.563 36h-24.52L18.71 15z" fill="#EDEFF2"/><path fill-rule="evenodd" clip-rule="evenodd" d="M23.826 51H60v-6H23.826l-.195-.351 3.53-5.65h22.402a6.005 6.005 0 0 0 5.247-3.086l10.809-19.455a2.992 2.992 0 0 0-.036-2.98A3.006 3.006 0 0 0 62.997 12H18.748l-2.503-6.01-10.233.049.027 6 6.213-.03 9.882 23.715-3.591 5.748A6.229 6.229 0 0 0 23.826 51zm-2.578-33h36.649l-8.334 15H27.498l-6.25-15zM54 66a6 6 0 1 0 0-12 6 6 0 0 0 0 12zm-24-6a6 6 0 1 1-12 0 6 6 0 0 1 12 0z" fill="#1A1919"/></symbol><symbol id="ic_star" viewBox="0 0 18 18"><path clip-rule="evenodd" d="M9 15l-4.981 2.619a.5.5 0 0 1-.726-.527l.952-5.547-4.03-3.928a.5.5 0 0 1 .277-.853l5.57-.81L8.551.909a.5.5 0 0 1 .896 0l2.49 5.047 5.57.81a.5.5 0 0 1 .277.852l-4.03 3.928.952 5.547a.5.5 0 0 1-.726.527L9 15z"/></symbol><symbol id="ic_step_01" viewBox="0 0 72 72"><path fill-rule="evenodd" clip-rule="evenodd" d="M36 6C19.44 6 6 19.44 6 36c0 16.56 13.44 30 30 30 16.56 0 30-13.44 30-30C66 19.44 52.56 6 36 6zm0 9c4.98 0 9 4.02 9 9s-4.02 9-9 9-9-4.02-9-9 4.02-9 9-9zm0 42.6c-7.5 0-14.13-3.84-18-9.66.09-5.97 12-9.24 18-9.24 5.97 0 17.91 3.27 18 9.24-3.87 5.82-10.5 9.66-18 9.66z" fill="#C4C6CC"/><mask id="a" maskUnits="userSpaceOnUse" x="6" y="6" width="60" height="60"><path fill-rule="evenodd" clip-rule="evenodd" d="M36 6C19.44 6 6 19.44 6 36c0 16.56 13.44 30 30 30 16.56 0 30-13.44 30-30C66 19.44 52.56 6 36 6zm0 9c4.98 0 9 4.02 9 9s-4.02 9-9 9-9-4.02-9-9 4.02-9 9-9zm0 42.6c-7.5 0-14.13-3.84-18-9.66.09-5.97 12-9.24 18-9.24 5.97 0 17.91 3.27 18 9.24-3.87 5.82-10.5 9.66-18 9.66z" fill="#fff"/></mask></symbol><symbol id="ic_step_02" viewBox="0 0 72 72"><path fill-rule="evenodd" clip-rule="evenodd" d="M60 24h-9V12H9c-3.3 0-6 2.7-6 6v33h6c0 4.98 4.02 9 9 9s9-4.02 9-9h18c0 4.98 4.02 9 9 9s9-4.02 9-9h6V36l-9-12zM18 55.5c-2.49 0-4.5-2.01-4.5-4.5s2.01-4.5 4.5-4.5 4.5 2.01 4.5 4.5-2.01 4.5-4.5 4.5zm40.5-27l5.88 7.5H51v-7.5h7.5zm-4.5 27c-2.49 0-4.5-2.01-4.5-4.5s2.01-4.5 4.5-4.5 4.5 2.01 4.5 4.5-2.01 4.5-4.5 4.5z" fill="#C4C6CC"/><mask id="a" maskUnits="userSpaceOnUse" x="3" y="12" width="66" height="48"><path fill-rule="evenodd" clip-rule="evenodd" d="M60 24h-9V12H9c-3.3 0-6 2.7-6 6v33h6c0 4.98 4.02 9 9 9s9-4.02 9-9h18c0 4.98 4.02 9 9 9s9-4.02 9-9h6V36l-9-12zM18 55.5c-2.49 0-4.5-2.01-4.5-4.5s2.01-4.5 4.5-4.5 4.5 2.01 4.5 4.5-2.01 4.5-4.5 4.5zm40.5-27l5.88 7.5H51v-7.5h7.5zm-4.5 27c-2.49 0-4.5-2.01-4.5-4.5s2.01-4.5 4.5-4.5 4.5 2.01 4.5 4.5-2.01 4.5-4.5 4.5z" fill="#fff"/></mask></symbol><symbol id="ic_step_03" viewBox="0 0 72 72"><path fill-rule="evenodd" clip-rule="evenodd" d="M63 54v3c0 3.3-2.7 6-6 6H15c-3.33 0-6-2.7-6-6V15c0-3.3 2.67-6 6-6h42c3.3 0 6 2.7 6 6v3H36c-3.33 0-6 2.7-6 6v24c0 3.3 2.67 6 6 6h27zm-27-6h30V24H36v24zm12-7.5c-2.49 0-4.5-2.01-4.5-4.5s2.01-4.5 4.5-4.5 4.5 2.01 4.5 4.5-2.01 4.5-4.5 4.5z" fill="#C4C6CC"/><mask id="a" maskUnits="userSpaceOnUse" x="9" y="9" width="57" height="54"><path fill-rule="evenodd" clip-rule="evenodd" d="M63 54v3c0 3.3-2.7 6-6 6H15c-3.33 0-6-2.7-6-6V15c0-3.3 2.67-6 6-6h42c3.3 0 6 2.7 6 6v3H36c-3.33 0-6 2.7-6 6v24c0 3.3 2.67 6 6 6h27zm-27-6h30V24H36v24zm12-7.5c-2.49 0-4.5-2.01-4.5-4.5s2.01-4.5 4.5-4.5 4.5 2.01 4.5 4.5-2.01 4.5-4.5 4.5z" fill="#fff"/></mask></symbol><symbol id="ic_step_04" viewBox="0 0 72 72"><path fill-rule="evenodd" clip-rule="evenodd" d="M36 6C19.44 6 6 19.44 6 36c0 16.56 13.44 30 30 30 16.56 0 30-13.44 30-30C66 19.44 52.56 6 36 6zm-6 45L15 36l4.23-4.23L30 42.51l22.77-22.77L57 24 30 51z" fill="#C4C6CC"/><mask id="a" maskUnits="userSpaceOnUse" x="6" y="6" width="60" height="60"><path fill-rule="evenodd" clip-rule="evenodd" d="M36 6C19.44 6 6 19.44 6 36c0 16.56 13.44 30 30 30 16.56 0 30-13.44 30-30C66 19.44 52.56 6 36 6zm-6 45L15 36l4.23-4.23L30 42.51l22.77-22.77L57 24 30 51z" fill="#fff"/></mask></symbol><symbol id="ic_swap_horiz" viewBox="0 0 72 72"><path fill-rule="evenodd" clip-rule="evenodd" d="M20.97 33L9 45l11.97 12v-9H42v-6H20.97v-9zM63 27L51.03 15v9H30v6h21.03v9L63 27z" fill="#C4C6CC"/><mask id="a" maskUnits="userSpaceOnUse" x="9" y="15" width="54" height="42"><path fill-rule="evenodd" clip-rule="evenodd" d="M20.97 33L9 45l11.97 12v-9H42v-6H20.97v-9zM63 27L51.03 15v9H30v6h21.03v9L63 27z" fill="#fff"/></mask></symbol><symbol id="mastercard" viewBox="0 0 240 192"><path fill-rule="evenodd" clip-rule="evenodd" d="M205.715 158.422v-14.106h-3.265v8.182a5.923 5.923 0 0 0-4.898-2.291c-4.509 0-8.163 3.663-8.163 8.182s3.654 8.182 8.163 8.182a5.923 5.923 0 0 0 4.898-2.291v1.898h3.265v-7.756zM104.491 150.6h5.583l.033 3.109h-5.551v7.135c0 1.571.62 2.618 2.253 2.618a6.251 6.251 0 0 0 3.004-.884l.98 2.913a7.958 7.958 0 0 1-4.245 1.211c-4.017 0-5.421-2.16-5.421-5.793v-7.2H97.96V150.6h3.102v-4.745h3.429v4.745zm-45.143 5.825v9.819l-3.429.065v-8.705c0-2.651-1.11-4.124-3.428-4.124a3.667 3.667 0 0 0-2.88 1.183 3.685 3.685 0 0 0-.94 2.973v8.673h-3.43v-8.705c0-2.651-1.142-4.124-3.395-4.124a3.653 3.653 0 0 0-2.887 1.177 3.67 3.67 0 0 0-.934 2.979v8.608h-3.428V150.6h3.396v1.931a5.157 5.157 0 0 1 4.571-2.324 5.728 5.728 0 0 1 5.16 2.782 6.038 6.038 0 0 1 5.485-2.782 5.806 5.806 0 0 1 4.472 1.718 5.834 5.834 0 0 1 1.667 4.5zm79.689-6.218a4.605 4.605 0 0 0-4.114 2.291V150.6h-3.363v15.644h3.396v-8.771c0-2.586 1.11-4.026 3.265-4.026a5.528 5.528 0 0 1 2.123.393l1.045-3.273a7.244 7.244 0 0 0-2.417-.425l.065.065zm-50.155 0a11.65 11.65 0 0 1 6.368 1.637l-1.502 2.749a10.038 10.038 0 0 0-4.898-1.342c-1.861 0-2.972.785-2.972 1.833 0 1.047 1.176 1.341 2.645 1.538l1.633.229c3.396.491 5.453 1.702 5.453 4.68 0 2.978-2.612 5.105-7.118 5.105a11.24 11.24 0 0 1-6.76-2.029l1.633-2.651a8.299 8.299 0 0 0 5.192 1.637c2.318 0 3.56-.688 3.56-1.898 0-.884-.883-1.375-2.744-1.637l-1.632-.229c-3.494-.491-5.388-2.062-5.388-4.614 0-3.11 2.58-5.008 6.53-5.008zm97.323 0a4.604 4.604 0 0 0-4.114 2.291V150.6h-3.364v15.644h3.396v-8.771c0-2.586 1.11-4.026 3.266-4.026a5.527 5.527 0 0 1 2.122.393l1.045-3.273a7.242 7.242 0 0 0-2.416-.425l.065.065zm-41.395 14.117a7.913 7.913 0 0 1-2.36-5.935v-.065a7.912 7.912 0 0 1 2.36-5.935 7.873 7.873 0 0 1 5.966-2.247 8.153 8.153 0 0 1 5.617 1.865l-1.633 2.749a6.851 6.851 0 0 0-4.082-1.407 5.019 5.019 0 0 0-4.608 5.007 5.02 5.02 0 0 0 4.608 5.008 6.846 6.846 0 0 0 4.082-1.408l1.633 2.749a8.153 8.153 0 0 1-5.617 1.866 7.873 7.873 0 0 1-5.966-2.247zm29.444-5.935V150.6h-3.396v1.898a5.923 5.923 0 0 0-4.898-2.291c-4.509 0-8.163 3.663-8.163 8.182s3.654 8.182 8.163 8.182a5.923 5.923 0 0 0 4.898-2.291v1.898h3.396v-7.789zm-7.75-4.447a4.721 4.721 0 0 0-4.887 4.447 4.702 4.702 0 0 0 1.274 3.542 4.68 4.68 0 0 0 3.461 1.465 4.723 4.723 0 0 0 4.693-4.652 4.724 4.724 0 0 0-4.541-4.802zm-45.867-3.735c-4.508.064-8.112 3.778-8.048 8.297.063 4.518 3.769 8.13 8.277 8.067a9.472 9.472 0 0 0 6.482-2.127l-1.633-2.52a7.417 7.417 0 0 1-4.539 1.636 4.329 4.329 0 0 1-4.669-3.829h11.592v-1.309c0-4.909-3.037-8.182-7.413-8.182l-.049-.033zm2.761 4.122a3.865 3.865 0 0 0-2.761-1.078h-.065a4.02 4.02 0 0 0-4.147 3.796h8.164a3.885 3.885 0 0 0-1.191-2.718zm88.022 9.64c.199.003.396.041.581.115.187.076.359.187.506.327.143.141.26.307.343.491.167.386.167.824 0 1.211-.083.183-.2.35-.343.491-.147.139-.319.25-.506.327a1.545 1.545 0 0 1-.621.131 1.634 1.634 0 0 1-1.469-.949 1.543 1.543 0 0 1 0-1.211c.083-.184.199-.35.343-.491a1.606 1.606 0 0 1 1.175-.442h-.009zm-.026 2.766c.159-.001.315-.035.46-.099.14-.062.268-.151.375-.261a1.212 1.212 0 0 0 0-1.637 1.225 1.225 0 0 0-.375-.262 1.19 1.19 0 0 0-.947 0 1.21 1.21 0 0 0-.392.262 1.214 1.214 0 0 0 0 1.637c.112.112.245.201.392.261.165.072.343.105.522.099h-.035zm.509-1.817a.655.655 0 0 0-.425-.131l-.685.017v1.44h.31v-.54h.147l.441.54h.375l-.473-.54a.568.568 0 0 0 .342-.148.392.392 0 0 0 .115-.294.411.411 0 0 0-.147-.344zm-.784.147v.393h.359a.344.344 0 0 0 .196 0 .16.16 0 0 0 0-.147.16.16 0 0 0 0-.147.344.344 0 0 0-.196 0l-.359-.099zm-13.072-11.091a4.723 4.723 0 0 0-4.887 4.448 4.702 4.702 0 0 0 1.274 3.542 4.683 4.683 0 0 0 3.461 1.465 4.724 4.724 0 0 0 4.693-4.653 4.725 4.725 0 0 0-4.541-4.802zm-119.548 4.448V150.6h-3.396v1.898a5.922 5.922 0 0 0-4.898-2.291c-4.509 0-8.163 3.663-8.163 8.182s3.654 8.182 8.163 8.182a5.922 5.922 0 0 0 4.898-2.291v1.898h3.396v-7.756zm-7.75-4.448a4.723 4.723 0 0 0-4.887 4.448h-.033a4.703 4.703 0 0 0 1.286 3.554 4.679 4.679 0 0 0 3.482 1.453 4.723 4.723 0 0 0 4.693-4.653 4.725 4.725 0 0 0-4.54-4.802z" fill="#231F20"/><path fill="#FF5F00" d="M94.122 31.391h51.429v92.635H94.122z"/><path fill-rule="evenodd" clip-rule="evenodd" d="M97.389 77.716a58.859 58.859 0 0 1 22.449-46.325c-24.099-18.982-58.705-16.217-79.499 6.351-20.793 22.569-20.793 57.364 0 79.932 20.794 22.568 55.4 25.333 79.499 6.351a58.856 58.856 0 0 1-22.45-46.309z" fill="#EB001B"/><path fill-rule="evenodd" clip-rule="evenodd" d="M214.938 77.716c-.001 22.555-12.85 43.129-33.091 52.986a58.667 58.667 0 0 1-62.011-6.677 58.957 58.957 0 0 0 22.458-46.317 58.958 58.958 0 0 0-22.458-46.317 58.667 58.667 0 0 1 62.011-6.676c20.241 9.856 33.09 30.43 33.091 52.985v.016zM209.928 112.712v3.846h-.52v-3.846h-1.262v-.796h2.945v.796h-1.163zm5.718-.796v4.642l-.52.033v-3.514l-.966 3.017h-.668l-.965-3.017v3.481h-.644v-4.642h.792l1.04 3.316 1.039-3.316h.892z" fill="#F79E1B"/></symbol><symbol id="pochta" viewBox="0 0 366 192"><path d="M0 185.035h176.844V7.046H0v177.989z" fill="#001689"/><path d="M53.69 64.552c1.305 2.9 3.439 5.876 9.288 9.894 1.296.899 2.74 2.769 1.646 5.4-1.109 2.627-3.161 6.362-1.939 7.82 1.24 1.454 5.644 2.21 9.224.764 0 0 .752 2.275 2.065 3.733 0 0-.62 1.255-2.681.622 0 0 .75 1.869-.285 3.878 0 0-2.402-.414-3.432-2.634 0 0-.968 1.729-2.891 2.354 0 0-1.583-.824-1.23-4.019 0 0-1.176 2.844-4.745 3.323 0 0-2.068-2.625.613-6.155 0 0-1.927 1.731-5.422.9 0 0-.556-1.797 2.602-4.29 0 0-3.576-.14-4.946-3.184 0 0 1.51-1.872 5.218-1.454 0 0-3.43-.766-4.19-4.915 0 0 2.476-1.592 6.396.967 0 0-.697-1.311-2.339-2.626-1.647-1.316-3.644-4.984-2.953-10.378zM68.08 106.294a9.65 9.65 0 0 1-1.198-2.062c.614 5.034.828 8.428 3.532 11.69 0 0 1.628-2.181.58-7.482a5.21 5.21 0 0 1-1.454-.683s.616 2.152.225 4.316c0 0-.965-.71-1.685-5.779zM63.406 105.771c-.323-.409-.944-1.279-1.275-1.895-.222 2.926-.993 10.615 1.571 13.027 0 0 1.757-1.295 2.372-12.522-.37.63-1.025 1.3-1.343 1.667 0 0 .429 3.56-.839 6.074 0 0-1.271-.972-.486-6.351zM57.3 111.65c2.144-2.594 2.794-10.367 2.794-10.367.299-.202.594-.421.904-.664.108-.099.233-.201.346-.312 0 .281.011.578.04.87-.312 4.681-.678 9.5-2.132 11.9-1.418 2.354-4.037 3.574-4.037 3.574-2.447-4.391.511-10.276 3-14.37.297-.116.606-.263.925-.423-.87 3.15-2.528 6.9-1.84 9.792zM51.216 98.158c-.012.498.08.914.149 1.118.023.082.06.202.113.321-2.053 2.027-3.577 3.969-6.617 8.221-3.046 4.255-7.868 4.424-7.868 4.424.468-3.446 1.395-6.168 3.98-9.105 2.578-2.935 5.881-5.618 8.303-7.39.62.28 1.438.464 2.463.34.08-.005.164-.014.237-.034-.322.432-.52.861-.62 1.256-1.843 1.06-7.172 3.777-9.331 8.168 0 0 3.372-1.073 9.191-7.319zM47.398 93.871l.197-.365c.078-.123.139-.23.22-.333-1.984.773-9.043 3.455-11.327 4.643-2.287 1.198-5.594 3.899-7.39 9.398 0 0 4.764.426 8.696-2.844 3.934-3.283 8.517-7.85 10.474-9.302a3.248 3.248 0 0 1-.453-.508s-5.324 4.74-10.948 6.793c0 0 1.2-2.202 3.428-3.796 2.706-1.934 4.735-2.585 7.103-3.686zM43.356 90.62c.079-.189.157-.368.237-.534-2.333.473-8.149 1.177-10.756 1.975-2.598.809-7.303 2.722-10.094 8.086 0 0 4.097 1.269 11.828-2.39 7.73-3.664 10.158-4.426 11.63-4.82-1.171-.085-2.01-.485-2.437-.754-3.085 1.385-7.21 3.017-11.304 3.128 0 0 2.013-1.434 4.141-2.339 2.295-.964 4.829-1.846 6.755-2.351zM43.556 86.77c.755.355 1.335.533 2.326.636a5.998 5.998 0 0 0-1.505 1.399c-2.728.791-7.377 1.652-15.042 2.21-7.658.55-11.748-.861-11.748-.861 2.67-1.644 6.927-3.312 9.81-3.872 2.877-.561 10.44-.496 13.753-.953.037.04.438.366 1.092.763-2.788.25-8.73.528-11.791 2.099 0 0 5.653.754 13.105-1.422zM42.978 82.333c.389-.23.853-.458 1.426-.671-3.883-1.18-9.206-3.073-17.227-3.595-5.875-.388-10.116-.05-12.315.522 0 0 5.357 3.793 11.472 5.131 6.127 1.344 11.097.497 14.73.53.234-.36.508-.77.935-1.175-4.251.029-11.317-1.08-13.845-1.93 0 0 6.164-1.29 14.824 1.188zM42.956 77.743c.02.11.478 2.313 3.013 3.528-5.45-2.398-16.178-3.78-21.95-6.194-7.795-3.263-9.221-7.333-9.221-7.333 6.75-.182 12.205 1.475 16.412 2.777 4.92 1.515 12.418 4.336 15.041 5.514-.974.037-2.06.326-2.969.936-3.66-1.416-5.369-2.014-8.693-2.952-2.632-.742-4.568-.884-6.21-1.042 0 0 2.309 1.535 6.113 2.756 3.771 1.218 5.404 1.42 8.464 2.01zM42.549 71.756c.217.388.86 1.315 1.116 1.682-8.614-1.451-18.087-8.007-21.015-12.073-2.928-4.066-2.102-10.132-2.102-10.132 2.842.573 9.017 5.934 10.615 7.549 1.603 1.606 6.428 6.34 9.773 8.977l1.04 3.051c-2.864-2.32-6.262-4.906-8.377-6.512-1.63-1.235-4.071-2.993-6.5-3.823 0 0 2.236 2.93 4.04 4.36 2.084 1.656 4.202 3.093 5.94 4.054 1.545.855 2.338 1.337 5.47 2.867z" fill="#fff"/><path d="M66.842 96.023a8.48 8.48 0 0 0 .676-.66c.397.5 1.73 2.17 2.389 3.838a53.448 53.448 0 0 1 1.283 4.467c.264 1.101 1.043 3.411 1.521 4.2 0 0-2.096.266-3.65-1.563-1.527-1.79-2.037-3.594-2.28-5.443-.2-1.448-.126-3.457.06-4.839zM63.535 96.298c.39.526.764.739.8.763l.288.145.29-.103a4.14 4.14 0 0 0 .726-.288c.309.853.436 1.264.508 1.988.095.967.283 2.488-.072 3.73-.436 1.512-1.343 2.438-1.838 3.016 0 0-1.374-1.522-1.766-2.771-.408-1.315-.554-2.842-.047-4.407.277-.85.715-1.626 1.11-2.073zM58.804 96.444c1.406-.187 2.466-.698 3.268-1.288.18.497.456 1.165.257 2.114-.216.95-.868 1.997-1.8 2.757-1.427 1.136-3.313 2.207-5.408 1.884 0 0-.48-1.587 3.683-5.467zM57.215 93.801c.176 1.408.843 2.292.887 2.362-.487.587-2.251 3.634-5.927 3.128 0 0-1.002-2.08 1.453-3.732 1.654-1.118 2.45-1.347 3.587-1.758zM57.537 91.194c-.976.248-2.254.347-3.814-.025l-.425-.099-.132-.414c-1.892 1.55-4.137 1.813-4.911 3.22 0 0 .945 1.75 3.4 1.464 2.455-.297 4.292-1.455 5.608-3.113.051-.246.163-.715.274-1.034zM53.297 89.011c.341-.522.583-1.329 1.317-2.146-1.619-.282-3.085-.306-4.988.067-2.262.424-4.572.962-5.728 4.433 0 0 1.446 1.242 4.089.704 2.245-.466 4.19-1.433 5.31-3.058zM52.334 85.254a5.736 5.736 0 0 1-1.47-1.98l-.184-.436c-1.963-.802-4.005-1.215-6.014-.47-2 .76-2.528 1.62-3.03 2.377 0 0 2.219 1.87 4.762 1.933 2.551.085 4.91-.66 5.936-1.424zM52.927 81.197a7.333 7.333 0 0 1 1.141-.335c-.856-.769-1.72-1.946-2.13-3.698-.913.214-3.05.214-3.989-.143-.948-.364-2.797-.382-4.241.575 0 0 .48 2.553 3.743 3.423 3.085.815 4.22.604 5.476.178zM51.747 76.227l.43-.277c.06-.038.792-.491 2.037-.59-1.049-.787-3.563-2.904-5.327-3.92-1.945-1.091-5.159-2.54-6.793-2.756 0 0 1.535 4.05 3.314 5.689 1.863 1.7 3.157 2.327 6.339 1.854zM55.06 74.36c-.793-1.022-1.407-2.434-1.862-4.105-.368-1.355-1.217-4.722-1.718-5.592-.5-.876-2.312-3.925-5.843-4.877 0 0-.944 3.983.835 7.123 1.528 2.715 4.677 5.574 8.587 7.452zM74.67 92.852c.435.45.772.692 1.56 1.092 0 0 1.128 2.164-.24 4.783-1.37 2.617-2.52 5.283-3.07 6.77 0 0-.733-.112-1.55-4.206-.549-2.774-1.246-3.469-1.977-4.421.794.404 1.434.523 1.49.534l.547.094.247-.49a5.589 5.589 0 0 0 .592-3.298c1.27.033 1.945-.613 2.208-.94.018-.035.043-.055.054-.084l.14.166z" fill="#fff"/><path d="M44.647 61.454c-.012.385-.024.802-.012 1.25l.072.978c-2.09-2.681-4.585-5.908-6.967-8.893-1.635-2.04-3.017-3.276-4.546-4.271 1.281 3.782 3.604 6.8 5.241 8.307 1.632 1.505 4.013 4.042 6.322 5.592l.223.769a8.59 8.59 0 0 0 .844 2.102c.534.956 1.246 1.898 2.08 2.81a39.018 39.018 0 0 0-2.218-1.029l-.716-.297c-6.365-3.4-12.665-10.435-15.224-15.328-2.562-4.895-1.491-10.577-.818-13.617 2.887 2.464 7.044 7.312 8.855 9.955 2.232 3.235 5.094 7.823 6.856 11.558l.008.114zM133.864 82.333a8.636 8.636 0 0 0-1.419-.671c3.875-1.18 9.205-3.073 17.219-3.595 5.879-.388 10.13-.05 12.321.522 0 0-5.351 3.793-11.476 5.131-6.121 1.344-11.092.497-14.725.53-.237-.36-.513-.77-.938-1.175 4.253.029 11.326-1.08 13.85-1.93 0 0-6.166-1.29-14.832 1.188zM133.884 77.743c-.021.11-.475 2.313-3.012 3.528 5.447-2.398 16.185-3.78 21.949-6.194 7.799-3.263 9.224-7.333 9.224-7.333-6.748-.182-12.204 1.475-16.412 2.777-4.917 1.515-12.42 4.336-15.045 5.514.988.037 2.062.326 2.977.936 3.662-1.416 5.365-2.014 8.694-2.952 2.625-.742 4.564-.884 6.206-1.042 0 0-2.308 1.535-6.114 2.756-3.777 1.218-5.406 1.42-8.467 2.01zM134.296 71.756c-.213.388-.863 1.315-1.115 1.682 8.613-1.451 18.089-8.007 21.013-12.073 2.938-4.066 2.105-10.132 2.105-10.132-2.847.573-9.019 5.934-10.618 7.549-1.598 1.606-6.426 6.34-9.773 8.977l-1.042 3.051c2.863-2.32 6.262-4.906 8.385-6.512 1.627-1.235 4.063-2.993 6.492-3.823 0 0-2.233 2.93-4.039 4.36-2.074 1.656-4.193 3.093-5.938 4.054-1.545.855-2.335 1.337-5.47 2.867zM132.204 61.454c.012.385.022.802.004 1.25l-.073.978c2.087-2.681 4.592-5.908 6.971-8.893 1.636-2.04 3.021-3.276 4.551-4.271-1.294 3.782-3.604 6.8-5.246 8.307-1.636 1.505-4.002 4.042-6.318 5.592l-.227.769a8.565 8.565 0 0 1-.839 2.102 15.183 15.183 0 0 1-2.086 2.81 40.337 40.337 0 0 1 2.217-1.029l.717-.297c6.366-3.4 12.673-10.435 15.225-15.328 2.546-4.895 1.499-10.577.819-13.617-2.889 2.464-7.047 7.312-8.862 9.955-2.23 3.235-5.082 7.823-6.853 11.558v.114zM52.77 100.114c-2.622 2.638-8.149 8.56-7.634 14.981 0 0 5.14-1.615 7.252-5.405 2.119-3.784 3.425-6.159 4.31-7.012a5.724 5.724 0 0 1-1.695-.02l-.463-.073c-1.306 2.391-3.888 6.296-6.212 7.66 0 0-.594-3.166 6.239-9.584a5.32 5.32 0 0 1 .427-.897c-.624.231-1.339.359-2.136.345M123.154 64.552c-1.303 2.9-3.446 5.876-9.275 9.894-1.31.899-2.751 2.769-1.655 5.4 1.096 2.627 3.165 6.362 1.923 7.82-1.233 1.454-5.631 2.21-9.215.764 0 0-.747 2.275-2.053 3.733 0 0 .611 1.255 2.679.622 0 0-.754 1.869.274 3.878 0 0 2.406-.414 3.431-2.634 0 0 .964 1.729 2.897 2.354 0 0 1.587-.824 1.236-4.019 0 0 1.163 2.844 4.747 3.323 0 0 2.062-2.625-.627-6.155 0 0 1.928 1.731 5.434.9 0 0 .55-1.797-2.621-4.29 0 0 3.588-.14 4.964-3.184 0 0-1.516-1.872-5.225-1.454 0 0 3.432-.766 4.188-4.915 0 0-2.475-1.592-6.388.967 0 0 .681-1.311 2.329-2.626 1.654-1.316 3.652-4.984 2.957-10.378zM108.769 106.294a10.85 10.85 0 0 0 1.204-2.062c-.616 5.034-.84 8.428-3.543 11.69 0 0-1.625-2.181-.583-7.482.461-.132.965-.35 1.463-.683 0 0-.619 2.152-.237 4.316 0 0 .985-.71 1.696-5.779zM113.44 105.771c.325-.409.953-1.279 1.272-1.895.223 2.926.988 10.615-1.573 13.027 0 0-1.756-1.295-2.376-12.522.375.63 1.026 1.3 1.337 1.667 0 0-.419 3.56.849 6.074 0 0 1.271-.972.491-6.351zM119.548 111.65c-2.161-2.594-2.803-10.367-2.803-10.367a11.086 11.086 0 0 1-.889-.664 4.137 4.137 0 0 1-.359-.312c0 .281-.01.578-.035.87.301 4.681.681 9.5 2.126 11.9 1.421 2.354 4.031 3.574 4.031 3.574 2.456-4.391-.508-10.276-2.988-14.37a8.583 8.583 0 0 1-.922-.423c.865 3.15 2.522 6.9 1.839 9.792zM125.618 98.158c.023.498-.075.914-.141 1.118a5.467 5.467 0 0 1-.108.321c2.044 2.027 3.571 3.969 6.612 8.221 3.046 4.255 7.867 4.424 7.867 4.424-.46-3.446-1.394-6.168-3.976-9.105-2.579-2.935-5.875-5.618-8.305-7.39-.625.28-1.435.464-2.462.34a1.27 1.27 0 0 1-.242-.034c.322.432.517.861.627 1.256 1.835 1.06 7.178 3.777 9.329 8.168 0 0-3.376-1.073-9.201-7.319zM129.45 93.871l-.203-.365a2.99 2.99 0 0 0-.213-.333c1.979.773 9.044 3.455 11.325 4.643 2.282 1.198 5.582 3.899 7.375 9.398 0 0-4.756.426-8.69-2.844-3.93-3.283-8.519-7.85-10.469-9.302.196-.18.342-.359.459-.508 0 0 5.319 4.74 10.939 6.793 0 0-1.198-2.202-3.414-3.796-2.716-1.934-4.739-2.585-7.109-3.686zM133.479 90.62a5.62 5.62 0 0 0-.233-.534c2.331.473 8.157 1.177 10.763 1.975 2.59.809 7.3 2.722 10.092 8.086 0 0-4.097 1.269-11.835-2.39-7.735-3.664-10.148-4.426-11.622-4.82 1.167-.085 2.003-.485 2.439-.754 3.084 1.385 7.211 3.017 11.302 3.128 0 0-2.023-1.434-4.141-2.339-2.309-.964-4.836-1.846-6.765-2.351zM133.294 86.77c-.761.355-1.339.533-2.328.636a6.078 6.078 0 0 1 1.514 1.399c2.724.791 7.36 1.652 15.03 2.21 7.662.55 11.746-.861 11.746-.861-2.667-1.644-6.92-3.312-9.799-3.872-2.886-.561-10.447-.496-13.765-.953-.037.04-.444.366-1.09.763 2.793.25 8.73.528 11.796 2.099 0 0-5.656.754-13.104-1.422z" fill="#fff"/><path d="M110 96.023a15.203 15.203 0 0 1-.685-.66c-.389.5-1.718 2.17-2.368 3.838a48.612 48.612 0 0 0-1.286 4.467c-.274 1.101-1.057 3.411-1.534 4.2 0 0 2.102.266 3.658-1.563 1.526-1.79 2.041-3.594 2.288-5.443.178-1.448.127-3.457-.073-4.839zM113.301 96.298c-.386.526-.757.739-.795.763l-.28.145-.303-.103a4.807 4.807 0 0 1-.719-.288c-.308.853-.424 1.264-.505 1.988-.105.967-.286 2.488.065 3.73.443 1.512 1.337 2.438 1.839 3.016 0 0 1.376-1.522 1.771-2.771.406-1.315.554-2.842.055-4.407-.281-.85-.734-1.626-1.128-2.073zM118.041 96.444c-1.409-.187-2.466-.698-3.273-1.288-.173.497-.455 1.165-.246 2.114.203.95.856 1.997 1.807 2.757 1.405 1.136 3.303 2.207 5.397 1.884 0 0 .481-1.587-3.685-5.467zM119.619 93.801c-.167 1.408-.836 2.292-.89 2.362.489.587 2.254 3.634 5.952 3.128 0 0 .984-2.08-1.457-3.732-1.674-1.118-2.461-1.347-3.605-1.758zM119.297 91.194c.982.248 2.265.347 3.828-.025l.426-.099.122-.414c1.896 1.55 4.143 1.813 4.915 3.22 0 0-.945 1.75-3.395 1.464-2.454-.297-4.306-1.455-5.617-3.113a6.637 6.637 0 0 0-.279-1.034zM123.551 89.011c-.352-.522-.6-1.329-1.327-2.146 1.634-.282 3.092-.306 4.992.067 2.263.424 4.571.962 5.732 4.433 0 0-1.461 1.242-4.101.704-2.233-.466-4.183-1.433-5.296-3.058zM124.509 85.254a5.757 5.757 0 0 0 1.471-1.98l.185-.436c1.967-.802 4.013-1.215 6.006-.47 2.009.76 2.532 1.62 3.048 2.377 0 0-2.22 1.87-4.777 1.933-2.55.085-4.908-.66-5.933-1.424zM123.919 81.197a7.365 7.365 0 0 0-1.148-.335c.873-.769 1.728-1.946 2.142-3.698.911.214 3.05.214 3.993-.143.941-.364 2.792-.382 4.234.575 0 0-.47 2.553-3.75 3.423-3.088.815-4.221.604-5.471.178zM125.091 76.227l-.426-.277c-.063-.038-.794-.491-2.049-.59 1.061-.787 3.559-2.904 5.345-3.92 1.939-1.091 5.149-2.54 6.797-2.756 0 0-1.54 4.05-3.332 5.689-1.852 1.7-3.151 2.327-6.335 1.854zM121.781 74.36c.793-1.022 1.406-2.434 1.861-4.105.377-1.355 1.222-4.722 1.726-5.592.508-.876 2.312-3.925 5.845-4.877 0 0 .941 3.983-.839 7.123-1.538 2.715-4.674 5.574-8.593 7.452zM102.186 92.852c-.457.45-.791.692-1.571 1.092 0 0-1.134 2.164.238 4.783 1.362 2.617 2.514 5.283 3.072 6.77 0 0 .734-.112 1.547-4.206.554-2.774 1.255-3.469 1.976-4.421-.795.404-1.426.523-1.486.534l-.542.094-.253-.49a5.484 5.484 0 0 1-.626-2.603c0-.248.01-.481.036-.695-1.271.033-1.95-.613-2.202-.94-.03-.035-.051-.055-.064-.084l-.125.166z" fill="#fff"/><path d="M124.078 100.114c2.619 2.638 8.149 8.56 7.624 14.981 0 0-5.137-1.615-7.244-5.405-2.12-3.784-3.419-6.159-4.309-7.012a5.719 5.719 0 0 0 1.693-.02l.472-.073c1.299 2.391 3.881 6.296 6.207 7.66 0 0 .589-3.166-6.24-9.584a6.017 6.017 0 0 0-.428-.897c.621.231 1.336.359 2.132.345M84.41 48.882c0-.473 1.799-.864 4.012-.864 2.217 0 4.011.391 4.011.864 0 .47-1.794.858-4.011.858-2.213 0-4.012-.388-4.012-.858zM89.204 50.775a.785.785 0 0 1-.783.794.798.798 0 0 1-.795-.794c0-.438.36-.792.795-.792.438 0 .783.354.783.792zM84.121 48.041c-1.327-3.198-2.225-5.565-2.191-6.354.022-.476.59-.832 1.128-.996.525-.169.996-.202 1.35.07.698.537 1.338 4.86 1.58 6.655-.673.128-1.082.216-1.867.625zM86.56 47.349c.336-.044.684-.059 1.035-.073-.209-1.717-.803-4.579-1.145-5.7-.35-1.131-.793-1.942-1.528-2.146 0 0 .571 1.573.887 3.194.31 1.627.547 3.177.752 4.725z" fill="#fff"/><path fill-rule="evenodd" clip-rule="evenodd" d="M80.191 53.957s2.298.181 4.35-1.02c.978-.577 1.813-1.905 1.996-2.521-.821-.114-2.916.116-4.2 1.042-1.282.92-1.7 1.679-2.146 2.499zm2.147-.876c1.472-.35 2.978-1.933 2.978-1.933-2.377.344-2.978 1.933-2.978 1.933zM75.292 54.988c-2.555.12-5.106-.832-5.106-.832.294 5.612 4.114 6 4.114 6-.06-.44-.044-1.217-.044-1.217 1.193 1.127 3.655 1.919 3.655 1.919-.04-.66-.261-1.235-.261-1.235 1.053.625 1.64.558 1.64.558-.11-.78-.639-1.703-.639-1.703.73.923 1.664.98 1.664.98.132-.463-.145-1.611-.145-1.611.037.046.076.1.12.159.392.535 1.136 1.549 3.055 1.964 2.132.464 3.091-.739 3.091-.739-2.085.147-4.029-1.883-4.029-1.883 1.083-.421 1.45-1.217 1.45-1.217-.622-.553-1.262-.553-1.262-.553 1.214-.555 1.459-1.518 1.459-1.518-1.26.619-4.731.76-7.327.865-.522.021-1.009.04-1.435.063zm1.587 1.177v.166s-3.299.018-3.428 1.664c-.53-.349-.845-.921-.964-1.675 0 0 2.375.105 4.392-.155z" fill="#fff"/><path d="M69.596 54.547c.096 1.215.405 2.412.827 3.262 0 0-1.503-1.135-1.869-2.102-.375-.958-.463-1.623 1.042-1.16z" fill="#fff"/><path fill-rule="evenodd" clip-rule="evenodd" d="M72.165 59.979s-.895-1.095-1.902-1.556c-.121-.056-.26-.113-.41-.176-.97-.404-2.427-1.01-2.891-2.485-.844-.204-2.626-.409-3.414.76-.789 1.162-.486 3.364 1.093 4.257 0 0 2.405-2.082 5.325-.011 0 0 .676-.439 2.199-.79zm-4.946-1.446c0 .351-.282.628-.638.628a.617.617 0 0 1-.612-.628.62.62 0 0 1 .612-.63.63.63 0 0 1 .638.63z" fill="#fff"/><path d="M72.498 60.359s1.06 1.427 1.84 2.055c0 0-3.927-.038-4.917 3.384 0 0-1.363-2.096-.369-3.462 1.072-1.472 2.052-1.653 3.446-1.977zM76.808 61.208s1.27.377 1.693.488c0 0 .012-.739-.012-1.095.382.093.856.216 1.264.257 0 0 1.264 2.844 2.254 3.992 0 0 .058.631-.494 1.589 0 0-.719-1.683-2.005-3.032-.726-.755-1.192-1.142-2.7-2.199zM73.47 60.6c.412.112 2.44.751 3.411 1.464 1.234.882 2.08 1.9 1.945 3.65 0 0-.988-1.388-2.086-2.012-.866-.5-2.438-1.88-3.27-3.101zM73.5 47.734c.373 0 1.095.182 1.095.783 0 .614-.933 2.079-1.188 2.727h-.024c-.248-.648-1.195-2.113-1.195-2.727 0-.601.733-.783 1.105-.783h.206zM72.676 52.462c-.174-.853-.51-3.066-1.03-3.554-.493-.47-1.232-.514-1.59-.494a.687.687 0 0 0-.602.897c.144.512 1.771 2.96 1.983 3.27.379-.066.307-.04 1.239-.119zM74.118 52.462c.183-.853.512-3.066 1.034-3.554.49-.47 1.23-.514 1.59-.494.372.024.76.404.612.897-.16.512-1.782 2.96-2 3.27-.373-.066-.302-.04-1.236-.119zM75.166 44.762h-1.27v-1.408h-1.021v1.408h-1.28v.89h1.28v1.653h1.02v-1.653h1.271v-.89zM59.804 53.867c0-.28.012-.55.053-.818.095-.689.104-1.273.03-1.764-.914.356-1.53.576-2.788 2.62 0 0 2.004-1.244 2.705-.038z" fill="#fff"/><path d="M61.55 57.097c.027-.505.36-2.109.778-3.23.51-1.392.214-3.402-.405-4.623-.594-1.176-.917-2.284-.82-3.504 0 0-1.177.4-1.864.824-.108 1.416.711 2.833 1.102 3.635.461.952.365 2.193.264 2.953-.177 1.287.084 2.657.946 3.945zM61.684 46.283c-.047-.163-.047-.61.04-.788 0 0 1.873-1.832 3.443-2.14.988-.209 1.598.235 1.895.481 0 0-.549-.064-1.388.625-.842.683-1.885 1.507-2.664 1.714-.784.207-.946.147-1.326.108zM67.22 43.973c.695.707 1.294 1.458 1.279 2.106-.01.672-.788 2.36-1.191 3.001-.407.64-1.005 1.484-.937 2.506.038.508.392 1.031.809 1.466 0 0-2.29-.546-2.572-1.969-.244-1.272.298-2.16.667-2.864.338-.666 1.391-2.207 1.663-2.85.242-.584.37-1.07.281-1.396zM80.584 59.994c.452 1.632 1.232 3.162 2 4.363.689 1.1 1.127 2.876 1.062 3.48 0 0 1.033-2.295.51-3.916-.418-1.259-1.526-3.14-3.572-3.927zM83.156 60.528s1.572.032 2.304.517c.941.625 1.838 1.994 2.186 3.635 0 0-1.587-.277-2.367-1.062-.788-.789-1.755-1.966-2.123-3.09zM75.037 63.384c-.301.023-1.107.21-1.499.33 0 0 1.334.39 2.004.949.572.47 1.062 1.198 1.286 2.43.33 1.719 1.33 3.568 1.63 4.126l.122-.023c-.181-1.184.546-3.639.743-3.996 0 0-1.064-.665-1.553-1.36-.359-.512-.986-1.364-2.733-2.456zM81.991 67.075c.386.902 1.426 2.502.94 4.167-.483 1.67-1.57 2.386-2.236 3.805 0 0-.522-2.558-.414-4.526.12-1.975.834-2.733 1.71-3.446zM85 67.14s1.56 3.045 1.843 4.237c.271 1.182.019 1.97-.516 2.693-.519.711-1.421 1.486-2.254 2.99 0 0-.963-1.283-1.076-1.951-.111-.669.069-2.27.278-2.935.203-.68 1.028-2.836 1.724-5.035zM85.801 76.858c-.339.374-2.163 2.579-2.407 3.221-.246.64-.667 1.857-.106 2.707.572.847 1.874 2.19 2.999 2.762 0 0-1.227-1.936-1.097-3.521.07-1.016.855-1.922 1.004-2.541.149-.613.055-1.659-.393-2.628zM82.23 75.643c.28.391.767 1.34.836 2.263.067.911-.081 1.644-.577 2.979-.618 1.685-1.589 3.56-2.04 4.407 0 0-.853-1.233-1.327-2.334 0 0 1.337-1.848 1.912-3.151.657-1.536.932-2.955 1.196-4.164zM81.614 74.93s-.58 4.337-3.113 7.552c-1.717 2.178-3.11 2.938-4.034 2.938-1.39 0-2.79-1.165-3.254-2.505-.474-1.33-.318-3.406.582-4.142 0 0 .829 2.602 2.614 2.696 2.018.117 4.61-2.16 7.205-6.538z" fill="#fff"/><path d="M79.533 73.12c.211.774.278 1.962 0 3.084-.21.855-.724 1.963-1.715 2.59-.857.537-2.886.666-3.65-1.255 0 0 3.693.28 5.365-4.419zM85.57 90.594c.503 1.306 2.304 2.953 2.3 3.972-.029 2.693-1.206 4.342-1.48 5.23 0 0-2.145-1.712-2.528-3.674-.195-1.008.032-4.032 1.709-5.528zM83.167 92.502c.248-.702 1.041-2.608 1.952-3.272 0 0 1.166-3.454-2.587-5.585 0 0-1.544 2.058-1.95 3.997-.411 1.951 1.63 3.113 2.585 4.86zM78.476 83.767c-.603.741-1.458 1.752-2.118 2.068 0 0-.225 1.545-.103 2.573.2 1.524 1.164 3.077 1.584 4.216 0 0 1.641-2.158 1.83-3.425.186-1.27.163-2.313.224-2.923 0 0-.915-1.496-1.417-2.509zM74.139 91.181c-.465-.718-1.961-3.329-1.98-5.232 0 0 1.848.99 3.397.26 0 0 .2 2.478-.092 3.313-.253.68-.568 1.085-1.325 1.66zM74.573 91.707c.3-.266 1.038-.95 1.347-1.308 0 0 1.226 2.263 1.435 2.926 0 0-.615.161-1.292-.333-.671-.494-.827-.628-1.49-1.285zM80.258 90.378c-.146.573-2.133 3.347-2.475 3.688 0 0 .147 1.005.888 2.454.733 1.44 1.756 2.456 2.303 2.966 0 0 1.232-2.151 1.595-3.091.406-1.084.361-2.15.188-2.55-.42-.937-1.857-2.292-2.5-3.467zM83.245 97.644c.438.89 1.762 2.356 1.968 3.516.165.908.02 1.652-.227 2.289-.25.614-1.038 1.84-1.569 2.771 0 0-1.815-1.722-2.211-2.952-.304-.925-.19-2.239.244-3.057.432-.824 1.38-1.715 1.795-2.567zM78.114 97.393c.464 1.037 1.588 2.065 1.845 2.967.298 1.069.398 1.743-.114 2.99-.458 1.086-1.009 1.726-1.19 2.392 0 0-1.474-1.922-1.723-2.719-.242-.797-.322-2.111-.017-2.941.295-.843.832-1.923 1.198-2.69zM85.368 104.702s-2.538 3.081-2.48 4.714c.077 2.032 1.418 3.39 1.605 4.64 0 0 1.326-1.513 1.837-2.53.568-1.138.998-2.11.86-3.404-.162-1.297-.499-2.123-1.822-3.42zM80.695 104.399c.4.589 1.529 2.604 1.212 3.795-.318 1.207-1.567 2.895-1.99 3.613 0 0-.998-2.067-1.228-3.019-.222-.941-.017-2.492 2.006-4.389zM88.446 45.547c.172-1.158 1.506-3.647 1.506-4.731 0-.855-.686-1.545-1.53-1.545-.856 0-1.54.69-1.54 1.545 0 1.084 1.346 3.572 1.513 4.731h.05zM92.72 48.041c1.338-3.198 2.225-5.565 2.19-6.354-.02-.476-.586-.832-1.113-.996-.537-.169-1.016-.202-1.364.07-.693.537-1.343 4.86-1.58 6.655.682.128 1.09.216 1.867.625zM90.283 47.349c-.338-.044-.686-.059-1.03-.073.213-1.717.797-4.579 1.146-5.7.342-1.131.782-1.942 1.526-2.146 0 0-.575 1.573-.888 3.194a83.708 83.708 0 0 0-.754 4.725z" fill="#fff"/><path fill-rule="evenodd" clip-rule="evenodd" d="M94.513 51.458c-1.288-.926-3.38-1.157-4.208-1.042.189.616 1.027 1.944 1.998 2.522 2.052 1.2 4.35 1.02 4.35 1.02-.44-.822-.855-1.58-2.14-2.5zm-2.978-.31s1.497 1.583 2.978 1.933c0 0-.608-1.589-2.978-1.933zM102.584 58.939s.022.777-.038 1.218c0 0 3.814-.388 4.102-6 0 0-2.54.952-5.089.831-.427-.022-.913-.041-1.434-.063-2.601-.105-6.073-.245-7.344-.865 0 0 .251.964 1.47 1.518 0 0-.635 0-1.264.552 0 0 .366.797 1.446 1.218 0 0-1.942 2.03-4.023 1.884 0 0 .95 1.202 3.087.739 1.919-.415 2.661-1.426 3.054-1.962.045-.06.085-.115.122-.162 0 0-.278 1.148-.149 1.612 0 0 .937-.059 1.672-.982 0 0-.534.923-.643 1.703 0 0 .586.068 1.628-.557 0 0-.21.575-.247 1.235 0 0 2.455-.791 3.65-1.92zm1.777-2.62c-.131.755-.436 1.326-.971 1.677-.128-1.647-3.438-1.664-3.438-1.664v-.166c2.027.259 4.409.153 4.409.153z" fill="#fff"/><path d="M107.247 54.547c-.093 1.215-.406 2.412-.824 3.262 0 0 1.504-1.135 1.864-2.102.368-.958.463-1.623-1.04-1.16z" fill="#fff"/><path fill-rule="evenodd" clip-rule="evenodd" d="M113.296 56.522c-.786-1.169-2.565-.964-3.413-.76-.461 1.469-1.914 2.076-2.88 2.48-.154.065-.296.124-.419.18-1.012.462-1.912 1.557-1.912 1.557 1.523.35 2.206.789 2.206.789a4.312 4.312 0 0 1 5.322.011c1.582-.894 1.893-3.095 1.096-4.257zm-3.044 1.38a.63.63 0 0 1 0 1.259.63.63 0 0 1 0-1.259z" fill="#fff"/><path d="M104.344 60.359s-1.054 1.427-1.834 2.055c0 0 3.925-.038 4.916 3.384 0 0 1.362-2.096.365-3.462-1.066-1.472-2.048-1.653-3.447-1.977zM100.035 61.208s-1.27.377-1.691.488c0 0-.023-.739.02-1.095-.385.093-.856.216-1.268.257 0 0-1.27 2.844-2.254 3.992 0 0-.06.631.49 1.589 0 0 .718-1.683 1.999-3.032.731-.755 1.194-1.142 2.704-2.199zM103.367 60.6c-.395.112-2.425.751-3.413 1.464-1.222.882-2.065 1.9-1.937 3.65 0 0 .996-1.388 2.088-2.012.873-.5 2.443-1.88 3.262-3.101zM103.342 47.734c-.371 0-1.1.182-1.1.783 0 .614.943 2.079 1.193 2.727h.023c.25-.648 1.194-2.113 1.194-2.727 0-.601-.726-.783-1.104-.783h-.206zM104.174 52.462c.172-.853.499-3.066 1.028-3.554.496-.47 1.228-.514 1.596-.494.373.024.759.404.593.897-.143.512-1.773 2.96-1.99 3.27-.375-.066-.299-.04-1.227-.119zM102.727 52.462c-.179-.853-.511-3.066-1.034-3.554-.499-.47-1.235-.514-1.598-.494-.363.024-.754.404-.596.897.147.512 1.768 2.96 1.99 3.27.375-.066.301-.04 1.238-.119zM101.687 44.762h1.263v-1.408h1.019v1.408h1.273v.89h-1.273v1.653h-1.019v-1.653h-1.263v-.89zM86.64 36.41h1.262V35h1.034v1.41h1.269v.884h-1.27v1.662h-1.033v-1.662H86.64v-.884zM117.051 53.867c-.013-.28-.03-.55-.063-.818-.09-.689-.106-1.273-.034-1.764.916.356 1.531.576 2.792 2.62 0 0-2.005-1.244-2.695-.038zM115.29 57.097c-.028-.505-.354-2.109-.766-3.23-.516-1.392-.225-3.402.392-4.623.594-1.176.929-2.284.819-3.504 0 0 1.184.4 1.865.824.115 1.416-.704 2.833-1.092 3.635-.467.952-.375 2.193-.27 2.953.18 1.287-.096 2.657-.948 3.945zM115.165 46.283c.037-.163.033-.61-.051-.788 0 0-1.862-1.832-3.434-2.14-.996-.209-1.606.235-1.905.481 0 0 .558-.064 1.395.625.836.683 1.874 1.507 2.665 1.714.784.207.956.147 1.33.108zM109.626 43.973c-.699.707-1.29 1.458-1.277 2.106.009.672.784 2.36 1.19 3.001.41.64 1.004 1.484.929 2.506-.032.508-.387 1.031-.797 1.466 0 0 2.286-.546 2.559-1.969.253-1.272-.281-2.16-.654-2.864-.341-.666-1.399-2.207-1.663-2.85-.242-.584-.374-1.07-.287-1.396zM96.265 59.994c-.464 1.632-1.237 3.162-2.002 4.363-.695 1.1-1.133 2.876-1.053 3.48 0 0-1.04-2.295-.51-3.916.403-1.259 1.51-3.14 3.565-3.927zM93.682 60.528s-1.563.032-2.294.517c-.948.625-1.852 1.994-2.194 3.635 0 0 1.588-.277 2.374-1.062.787-.789 1.748-1.966 2.114-3.09zM101.809 63.384c.305.023 1.104.21 1.496.33 0 0-1.337.39-1.999.949-.569.47-1.072 1.198-1.294 2.43-.32 1.719-1.329 3.568-1.631 4.126l-.111-.023c.184-1.184-.552-3.639-.74-3.996 0 0 1.06-.665 1.542-1.36.353-.512.992-1.364 2.737-2.456zM94.853 67.075c-.38.902-1.42 2.502-.944 4.167.49 1.67 1.579 2.386 2.239 3.805 0 0 .531-2.558.414-4.526-.119-1.975-.827-2.733-1.709-3.446zM88.44 71.745c.075-.979 2.32-3.333 2.208-4.605-.116-1.279-1.8-2.176-2.216-2.363h-.022c-.41.187-2.096 1.084-2.217 2.363-.118 1.272 2.135 3.626 2.202 4.605h.046zM91.841 67.14s-1.56 3.045-1.843 4.237c-.276 1.182-.018 1.97.513 2.693.525.711 1.42 1.486 2.26 2.99 0 0 .957-1.283 1.079-1.951.115-.669-.074-2.27-.283-2.935-.205-.68-1.036-2.836-1.726-5.035zM88.439 78.916c.709-.618 1.345-1.538 1.55-2.084.194-.543.246-1.338-.229-1.949-.566-.726-1.276-1.543-1.321-2.207h-.036c-.053.663-.756 1.48-1.324 2.207-.476.611-.425 1.406-.216 1.949.193.546.832 1.466 1.547 2.084h.029zM91.045 76.858c.342.374 2.165 2.579 2.409 3.221.247.64.664 1.857.1 2.707-.568.847-1.864 2.19-3.003 2.762 0 0 1.232-1.936 1.107-3.521-.082-1.016-.863-1.922-1.01-2.541-.143-.613-.044-1.659.397-2.628zM94.61 75.643c-.281.391-.764 1.34-.84 2.263-.057.911.089 1.644.586 2.979.626 1.685 1.588 3.56 2.03 4.407 0 0 .86-1.233 1.333-2.334 0 0-1.334-1.848-1.908-3.151-.663-1.536-.931-2.955-1.2-4.164zM95.235 74.93s.575 4.337 3.11 7.552c1.712 2.178 3.109 2.938 4.029 2.938 1.391 0 2.793-1.165 3.263-2.505.461-1.33.316-3.406-.583-4.142 0 0-.834 2.602-2.618 2.696-2.01.117-4.605-2.16-7.2-6.538z" fill="#fff"/><path d="M97.308 73.12c-.212.774-.274 1.962 0 3.084.213.855.732 1.963 1.723 2.59.855.537 2.868.666 3.644-1.255 0 0-3.688.28-5.367-4.419zM88.42 85.99c.522-.255.962-.441 1.568-1.362.461-.723.907-2.062.66-3.016-.315-1.177-.943-1.647-1.327-2.383-.31.292-.502.52-.883.739h-.018c-.386-.219-.582-.447-.899-.739-.389.736-1.008 1.206-1.33 2.383-.245.954.197 2.293.662 3.016.6.92 1.044 1.107 1.567 1.362zM88.423 93.302c.25-1.154 2.643-3.37 2.417-4.582-.328-1.807-1.486-1.425-2.4-2.187h-.017c-.924.762-2.094.38-2.426 2.187-.212 1.212 2.163 3.428 2.413 4.582h.013zM91.28 90.594c-.506 1.306-2.314 2.953-2.3 3.972.034 2.693 1.198 4.342 1.48 5.23 0 0 2.144-1.712 2.52-3.674.201-1.008-.029-4.032-1.7-5.528zM93.667 92.502c-.244-.702-1.032-2.608-1.948-3.272 0 0-1.168-3.454 2.587-5.585 0 0 1.544 2.058 1.957 3.997.41 1.951-1.638 3.113-2.596 4.86zM98.377 83.767c.597.741 1.443 1.752 2.112 2.068 0 0 .217 1.545.1 2.573-.2 1.524-1.169 3.077-1.579 4.216 0 0-1.645-2.158-1.842-3.425-.192-1.27-.15-2.313-.21-2.923 0 0 .906-1.496 1.42-2.509zM102.697 91.181c.468-.718 1.976-3.329 1.993-5.232 0 0-1.852.99-3.405.26 0 0-.2 2.478.105 3.313.238.68.558 1.085 1.307 1.66zM102.27 91.707c-.302-.266-1.042-.95-1.335-1.308 0 0-1.237 2.263-1.438 2.926 0 0 .606.161 1.282-.333.675-.494.823-.628 1.491-1.285zM96.58 90.378c.15.573 2.135 3.347 2.475 3.688 0 0-.157 1.005-.892 2.454-.73 1.44-1.748 2.456-2.3 2.966 0 0-1.224-2.151-1.59-3.091-.416-1.084-.365-2.15-.18-2.55.407-.937 1.849-2.292 2.487-3.467zM88.438 106.808c.188-.76 1.337-1.665 1.807-2.988.286-.78.274-1.691-.03-2.316-.363-.729-1.648-2.514-1.795-3.024-.16.51-1.43 2.295-1.799 3.024-.308.625-.317 1.536-.036 2.316.482 1.323 1.627 2.228 1.817 2.988h.036zM93.596 97.644c-.432.89-1.755 2.356-1.965 3.516-.165.908-.013 1.652.22 2.289.25.614 1.055 1.84 1.577 2.771 0 0 1.811-1.722 2.21-2.952.305-.925.189-2.239-.25-3.057-.433-.824-1.375-1.715-1.792-2.567zM98.738 97.393c-.469 1.037-1.598 2.065-1.852 2.967-.304 1.069-.4 1.743.11 2.99.464 1.086 1.003 1.726 1.196 2.392 0 0 1.47-1.922 1.709-2.719.26-.797.325-2.111.034-2.941-.308-.843-.838-1.923-1.197-2.69zM88.423 121.531c.093-.937 2.021-3.843 2.11-6.921.046-1.544-1.314-3.951-2.093-4.871h-.043c-.77.92-2.135 3.327-2.09 4.871.094 3.078 2.016 5.984 2.116 6.921zM91.485 104.702s2.533 3.081 2.476 4.714c-.073 2.032-1.43 3.39-1.608 4.64 0 0-1.332-1.513-1.836-2.53-.57-1.138-1.005-2.11-.843-3.404.142-1.297.474-2.123 1.81-3.42zM96.147 104.399c-.407.589-1.527 2.604-1.21 3.795.329 1.207 1.572 2.895 1.985 3.613 0 0 .999-2.067 1.23-3.019.225-.941.01-2.492-2.005-4.389z" fill="#fff"/><path d="M90.148 126.472c.156-2.391 1.51-3.828 1.744-5.07.266-1.371.175-2.683-.879-4.262-.865 2.947-1.795 5.103-2.536 6.575-.025.035-.04.082-.056.125-.02-.043-.03-.09-.06-.125-.735-1.472-1.671-3.628-2.527-6.575-1.056 1.579-1.148 2.891-.887 4.262.242 1.242 1.59 2.679 1.743 5.07.148 2.401-2.532 3.311-2.532 3.311.9.331 1.933.48 3.57-1.083.3-.28.522-.593.693-.923.173.33.398.643.696.923 1.627 1.563 2.666 1.414 3.57 1.083 0 0-2.684-.91-2.539-3.311zM81.719 110.543c.276.896 1.11 2.554 1.22 3.06.201.949-.071 2.1-1.792 3.32 0 0-1.113-.788-1.556-1.813-.408-.969-.171-1.656.255-2.149.433-.5 1.445-1.665 1.873-2.418zM85.334 114.09c0 .482-.355 3.192-1.116 4.544-1.077 1.889-2.66 3.289-4.043 3.289-1.278 0-1.554-.772-2.184-1.077 0 0 .322-1.645 1.763-2.071 1.77-.538 4.48-2.673 5.58-4.685z" fill="#fff"/><path d="M80.713 117.545c-.295-.231-.556-.383-.908-.8 0 0-1.363.505-2.487 1.267-1.127.763-2.23 2.062-2.822 2.735 0 0 1.682.437 2.751-.054 0 0 .385-1.618 1.587-2.344.266-.156 1.104-.407 1.879-.804zM79.322 116.161c-.27-.41-.803-1.162-.688-2.345 0 0-2.37 1.519-3.064 2.082-.718.589-2.2 2.123-2.53 2.629 0 0 1.796-.398 3.17-.865 1.506-.5 2.547-1.175 3.112-1.501zM75.307 118.731c-1.27.467-4.143.926-5.337 1.285-1.202.361-2.072.981-3.217 2.236 0 0 1.76.501 2.702.795 0 0 1.496-1.023 3.131-1.656 1.071-.414 1.59-1.536 2.721-2.66zM72.64 127.252c.275-.31.622-.66.355-1.375-.185-.532-1.225-1.101-1.844-1.402-1.028-.496-3.881-1.268-4.817-1.542 0 0-.466.543-.706 1.121-.109.222.034.453.437.525.795.138 2.703-.222 3.174.083.494.33.314.768.314 1.215 0 0 .875-.544 1.422-.421.768.162 1.229.529 1.664 1.796zM70.099 123.254c.204.07 1.32.409 2.405 1.101 0 0 .477-.187.718-.631.23-.426 1.201-1.877 2.105-2.073 0 0-.767-.073-1.209-.213 0 0-.922.239-1.579.511-.657.269-1.473.677-2.44 1.305zM77.459 121.42c-.169.081-.464.226-1.134.254 0 0-2.505 1.747-2.799 3.498-.244 1.488.535 2.205.909 2.39.377.195 2.133.92 3.27-1.447 0 0-1.942.641-2.47-.294-.525-.946.335-2.313.862-2.704.687-.526 1.937-.874 2.685-.742 0 0-.605-.584-1.323-.955z" fill="#fff"/><path d="M61.035 141.456c.303-1.289.644-2.634 1.227-3.876 1.133-2.417 3.911-8.845 9.705-9.983.548-.103-.626-1.464-1.14-1.39-.524.057-1.556.736-2.01 1.045 0 0 0-1.376-.016-1.624-.015-.256-.232-.333-.458-.327-.225.003-1.622-.006-2.07.503-1.317 1.542-3.55 5.679-4.812 8.76-1.264 3.078-2.123 4.03-3.458 3.554-1.333-.476-2.133-2.014-4.452-1.547-.808.168-1.704.709-2.402 1.512.194.376.442.835 1.532.835 1.083 0 3.153.456 4.31 1.273 1.163.815 2.378 1.08 4.044 1.265zM84.168 121.52c.133.998.61 1.93 1.14 2.897 0 0-1.768 8.191-8.139 8.827 0 0 .124-1.697 2.012-2.993 1.89-1.292 4.711-3.303 4.508-6.346 0 0-.502.102-1.41 1.247-.904 1.14-2.892 4.436-5.978 4.462 0 0 .461-1.544 1.825-2.436 1.364-.886 3.096-2.026 3.88-3.402.788-1.369 1.615-2.003 2.162-2.256zM81.161 151.367l3.882 5.47 2.943-5.266-1.042-1.878c-.768 1.382-1.591 2.876-2.058 3.696-.365-.504-1.346-1.887-2.63-3.696l-1.095 1.674z" fill="#fff"/><path d="M80.173 146.732c-3.79-5.329-8.462-11.928-8.936-12.597l1.466-1.063-4.623-1.784.08 5.078 1.565-1.136 9.346 13.184 1.102-1.682zM48.25 116.78c1.139-1.253 3.07-.167 5.024 1.644 1.966 1.811 3.19 3.665 2.057 4.915-1.063 1.162-3.075.17-5.046-1.635-1.958-1.814-3.19-3.671-2.036-4.924z" fill="#fff"/><path d="M51.403 139.055a2.104 2.104 0 0 1-.185-.157c-1.04-.914-1.631-2.327-1.631-3.87 0-2.961 2.388-5.375 5.339-5.375 2.945 0 5.328 2.414 5.328 5.375 0 .401-.076 1.057-.076 1.057.244-.457 1.12-2.511 1.297-2.89-.796-2.883-3.438-5.006-6.55-5.006-2.686 0-5.012 1.571-6.117 3.849.417-2.712 1.76-5.149 2.706-6.051 1.138-1.075 3.068-1.422 3.068-1.422-1.267.21-2.939-.578-4.805-2.313-1.775-1.629-2.682-3.062-2.738-4.257.108 1.687.056 2.634-.42 4.006-.643 1.869-2.403 5.324-1.772 9.223.343 2.14 1.884 5.326 4.466 7.928.547.583.75 1.449.817 1.895 0 0 3.798 0 4.7.087 0 0 .905-.087.891-.65-.01-.568-.513-.712-.967-.712-.45 0-2.338.046-3.35-.717zM72.427 140.358c-2.447.882-4.886 1.364-7.199 1.721a21.974 21.974 0 0 1-4.394.238c.022.235.022.546-.113.774 0 0 .286.336.286.707 1.43.052 2.921-.029 4.443-.269 2.535-.391 5.19-.902 7.867-1.925l-.89-1.246zM76.432 140.168c3.248-1.778 6.412-4.535 9.268-8.93l.51-.861c-.78.35-1.776.098-1.776.098a3.61 3.61 0 0 0-.242.392c-2.662 3.954-5.612 6.445-8.62 8.074l.86 1.227zM55.045 141.57c-.446-.073-1.872-.032-2.724.093-.937.152-2 .339-2.114.862-.103.493.234 1.016.707 1.764.29.46.989.195 1.375.049.382-.14 2.578-1.326 2.926-1.711.356-.391.504-.944-.17-1.057zM57.281 143.026c-.234-.148-.806-.373-1.4-.145-.597.222-2.759 1.504-2.898 2.114-.152.599.15.894.484 1.031.333.134.737.262 1.04.295.54.042 1.066-.274 1.346-.615.275-.346 1.29-1.574 1.428-1.856.146-.271.224-.671 0-.824zM57.547 144.376c-.318.356-1.19 1.42-1.294 1.597-.097.175.055.454.329.418.27-.028 1.763-.181 2.619-.765.853-.59 1.423-1.729.833-2.135-.588-.411-1.505-.219-2.487.885zM58.026 141.111c-.286-.065-1.414-.347-1.65.023-.312.465-.094.964.781 1.391.87.414 2.515.752 2.85.304.313-.465-.133-1.23-1.98-1.718zM95.125 110.543c-.282.896-1.114 2.554-1.226 3.06-.196.949.07 2.1 1.793 3.32 0 0 1.11-.788 1.554-1.813.417-.969.18-1.656-.253-2.149-.43-.5-1.436-1.665-1.868-2.418zM91.5 114.09c0 .482.353 3.192 1.126 4.544 1.076 1.889 2.654 3.289 4.037 3.289 1.286 0 1.561-.772 2.185-1.077 0 0-.322-1.645-1.767-2.071-1.76-.538-4.477-2.673-5.581-4.685z" fill="#fff"/><path d="M96.129 117.545c.297-.231.545-.383.9-.8 0 0 1.375.505 2.499 1.267 1.117.763 2.212 2.062 2.819 2.735 0 0-1.687.437-2.756-.054 0 0-.388-1.618-1.59-2.344-.257-.156-1.096-.407-1.872-.804zM97.52 116.161c.265-.41.8-1.162.676-2.345 0 0 2.367 1.519 3.077 2.082.715.589 2.194 2.123 2.526 2.629 0 0-1.796-.398-3.173-.865-1.504-.5-2.544-1.175-3.106-1.501zM101.531 118.731c1.277.467 4.13.926 5.338 1.285 1.201.361 2.077.981 3.221 2.236 0 0-1.77.501-2.701.795 0 0-1.496-1.023-3.143-1.656-1.062-.414-1.588-1.536-2.715-2.66zM104.198 127.252c-.273-.31-.618-.66-.362-1.375.191-.532 1.236-1.101 1.861-1.402 1.03-.496 3.882-1.268 4.808-1.542 0 0 .463.543.712 1.121.105.222-.046.453-.437.525-.801.138-2.709-.222-3.18.083-.497.33-.321.768-.321 1.215 0 0-.863-.544-1.425-.421-.752.162-1.225.529-1.656 1.796zM106.737 123.254c-.21.07-1.318.409-2.402 1.101 0 0-.481-.187-.719-.631-.227-.426-1.205-1.877-2.102-2.073 0 0 .763-.073 1.196-.213 0 0 .93.239 1.597.511a14.34 14.34 0 0 1 2.43 1.305zM99.372 121.42c.174.081.467.226 1.131.254 0 0 2.514 1.747 2.803 3.498.262 1.488-.523 2.205-.905 2.39-.381.195-2.129.92-3.266-1.447 0 0 1.937.641 2.468-.294.525-.946-.329-2.313-.856-2.704-.692-.526-1.936-.874-2.696-.742 0 0 .603-.584 1.321-.955z" fill="#fff"/><path d="M115.803 141.456c-.305-1.289-.638-2.634-1.225-3.876-1.128-2.417-3.907-8.845-9.714-9.983-.54-.103.624-1.464 1.158-1.39.518.057 1.55.736 2.01 1.045 0 0 0-1.376.011-1.624.015-.256.228-.333.446-.327.228.003 1.627-.006 2.068.503 1.329 1.542 3.556 5.679 4.823 8.76 1.265 3.078 2.127 4.03 3.454 3.554 1.336-.476 2.144-2.014 4.457-1.547.809.168 1.698.709 2.409 1.512-.202.376-.454.835-1.532.835-1.097 0-3.168.456-4.318 1.273-1.165.815-2.376 1.08-4.047 1.265zM92.66 121.52c-.12.998-.602 1.93-1.125 2.897 0 0 1.764 8.191 8.147 8.827 0 0-.135-1.697-2.02-2.993-1.896-1.292-4.718-3.303-4.515-6.346 0 0 .503.102 1.407 1.247.918 1.14 2.907 4.436 5.979 4.462 0 0-.452-1.544-1.817-2.436-1.363-.886-3.102-2.026-3.887-3.402-.778-1.369-1.603-2.003-2.169-2.256zM88.433 129.466c.376 1.086 2.783 4.52 3.837 5.495 1.065.978 3.636 3.572 5.012 4.865 0 0-3.919-.977-6.124-2.99 0 0-1.567.917-2.71.917h-.056c-1.147 0-2.716-.917-2.716-.917-2.2 2.013-6.112 2.99-6.112 2.99 1.37-1.293 3.942-3.887 4.999-4.865 1.063-.975 3.479-4.409 3.848-5.495h.022z" fill="#fff"/><path d="M88.44 138.559c.865 0 1.684-.344 2.15-.546-.466.982-1.335 2.505-2.17 3.133h-.011c-.836-.628-1.707-2.151-2.162-3.133.456.202 1.274.546 2.143.546h.05z" fill="#fff"/><path d="M91.797 156.837l15.319-21.607 1.558 1.136.094-5.078-4.641 1.784 1.473 1.064-13.647 19.252-6.937-12.654-.857 1.317-6.174 9.393-1.546-1.04-.021 4.993 4.688-1.868-1.573-1.049c.852-1.297 4.204-6.384 5.32-8.095l6.944 12.452z" fill="#fff"/><path d="M94.59 148.351a1644.612 1644.612 0 0 1-2.604-3.966c-.385.729-1.174 2.152-2.053 3.728l-1.096-1.972 2.98-5.407.867 1.317 3.065 4.666-1.159 1.634zM97.757 149.755l1.1 1.688 1.543-1.04.027 4.994-4.69-1.869 1.565-1.048c-.16-.249-.398-.634-.71-1.095l1.165-1.63zM128.592 116.78c-1.144-1.253-3.076-.167-5.041 1.644-1.954 1.811-3.184 3.665-2.044 4.915 1.058 1.162 3.091.17 5.048-1.635 1.95-1.814 3.185-3.671 2.037-4.924z" fill="#fff"/><path d="M125.44 139.055c.067-.055.118-.103.179-.157 1.037-.914 1.642-2.327 1.642-3.87 0-2.961-2.396-5.375-5.343-5.375-2.944 0-5.331 2.414-5.331 5.375 0 .401.078 1.057.078 1.057-.24-.457-1.126-2.511-1.3-2.89.789-2.883 3.425-5.006 6.553-5.006a6.788 6.788 0 0 1 6.111 3.849c-.418-2.712-1.746-5.149-2.703-6.051-1.134-1.075-3.067-1.422-3.067-1.422 1.263.21 2.935-.578 4.806-2.313 1.773-1.629 2.692-3.062 2.736-4.257-.108 1.687-.06 2.634.411 4.006.649 1.869 2.412 5.324 1.79 9.223-.348 2.14-1.892 5.326-4.462 7.928-.556.583-.763 1.449-.824 1.895 0 0-3.805 0-4.712.087 0 0-.896-.087-.881-.65.017-.568.511-.712.967-.712.443 0 2.341.046 3.35-.717zM100.399 140.162c-3.238-1.787-6.403-4.528-9.261-8.924l-.514-.862c.785.35 1.786.099 1.786.099.058.077.175.276.234.392 2.664 3.948 5.613 6.445 8.622 8.075l-.867 1.22zM104.405 140.352c2.45.888 4.889 1.37 7.2 1.726 1.513.228 2.991.313 4.396.239-.02.235-.02.545.116.774 0 0-.278.337-.278.707a23.25 23.25 0 0 1-4.455-.269c-2.515-.391-5.19-.902-7.858-1.928l.879-1.249zM121.792 141.57c.454-.073 1.88-.032 2.728.093.935.152 2 .339 2.115.862.102.493-.235 1.016-.703 1.764-.304.46-.999.195-1.374.049-.389-.14-2.586-1.326-2.944-1.711-.341-.391-.491-.944.178-1.057zM119.548 143.026c.24-.148.819-.373 1.413-.145.591.222 2.749 1.504 2.9 2.114.141.599-.157.894-.492 1.031-.328.134-.739.262-1.038.295-.537.042-1.06-.274-1.341-.615-.281-.346-1.283-1.574-1.442-1.856-.136-.271-.21-.671 0-.824zM119.296 144.376c.309.356 1.189 1.42 1.287 1.597.109.175-.054.454-.325.418-.277-.028-1.759-.181-2.615-.765-.854-.59-1.421-1.729-.831-2.135.574-.411 1.494-.219 2.484.885zM118.814 141.111c.282-.065 1.409-.347 1.651.023.299.465.085.964-.788 1.391-.863.414-2.511.752-2.84.304-.321-.465.133-1.23 1.977-1.718z" fill="#fff"/><mask id="a" maskUnits="userSpaceOnUse" x="0" y="6" width="366" height="179"><path fill-rule="evenodd" clip-rule="evenodd" d="M0 184.07h365.056V6.082H0V184.07z" fill="#fff"/></mask><g mask="url(#a)"><path d="M188.212 185.035h176.844V7.046H188.212v177.989z" fill="#CC003D"/></g><mask id="b" maskUnits="userSpaceOnUse" x="0" y="6" width="366" height="179"><path fill-rule="evenodd" clip-rule="evenodd" d="M0 184.07h365.056V6.082H0V184.07z" fill="#fff"/></mask><g mask="url(#b)"><path fill-rule="evenodd" clip-rule="evenodd" d="M333.78 49.99c7.572 0 10.777 3.576 11.588 10.447.2 1.704 2.693 28.37 2.693 28.37h-7.244s-1.326-18.063-1.408-18.848l-4.337-.004-4.528-.004c-.037.853-.685 18.856-.685 18.856h-7.016l1.309-38.817h9.628zm-3.035 10.419c-.036 1.414-.07 2.739-.077 3.095h8.024c-.48-6.14-1.348-7.06-6.514-7.06h-1.336c-.007.41-.054 2.252-.097 3.965z" fill="#fff"/></g><mask id="c" maskUnits="userSpaceOnUse" x="0" y="6" width="366" height="179"><path fill-rule="evenodd" clip-rule="evenodd" d="M0 184.07h365.056V6.082H0V184.07z" fill="#fff"/></mask><g mask="url(#c)"><path fill-rule="evenodd" clip-rule="evenodd" d="M248.642 103.301c7.57 0 10.778 3.577 11.587 10.447.2 1.705 2.693 28.37 2.693 28.37h-7.244s-1.326-18.063-1.407-18.848l-4.335-.004-4.53-.004c-.039.853-.686 18.856-.686 18.856h-7.017l1.309-38.817h9.63zm-3.036 10.419l-.077 3.096h8.024c-.481-6.14-1.426-7.139-6.593-7.139l-1.257.08c-.007.409-.053 2.251-.097 3.963z" fill="#fff"/></g><mask id="d" maskUnits="userSpaceOnUse" x="0" y="6" width="366" height="179"><path fill-rule="evenodd" clip-rule="evenodd" d="M0 184.07h365.056V6.082H0V184.07z" fill="#fff"/></mask><g mask="url(#d)"><path d="M207.58 49.99v38.807h7.091V56.443h8.788v32.354h7.103V49.99H207.58z" fill="#fff"/></g><mask id="e" maskUnits="userSpaceOnUse" x="0" y="6" width="366" height="179"><path fill-rule="evenodd" clip-rule="evenodd" d="M0 184.07h365.056V6.082H0V184.07z" fill="#fff"/></mask><g mask="url(#e)"><path d="M282.599 63.505h-3.861c-1.596 0-2.78-.36-3.535-1.084-.532-.504-.793-1.186-.793-2.076V49.99h-7.108v11.08c0 2.555 1.004 4.715 2.986 6.431 1.954 1.7 4.346 2.556 7.122 2.556h5.189v18.742h7.097V49.989h-7.097v13.516z" fill="#fff"/></g><g><mask id="f" maskUnits="userSpaceOnUse" x="0" y="6" width="366" height="179"><path fill-rule="evenodd" clip-rule="evenodd" d="M0 184.07h365.056V6.082H0V184.07z" fill="#fff"/></mask><g mask="url(#f)"><path d="M297.554 49.99v6.453h5.893v32.354H310.626V56.443h5.893V49.99h-18.965z" fill="#fff"/></g></g><g><mask id="g" maskUnits="userSpaceOnUse" x="0" y="6" width="366" height="179"><path fill-rule="evenodd" clip-rule="evenodd" d="M0 184.07h365.056V6.082H0V184.07z" fill="#fff"/></mask><g mask="url(#g)"><path d="M287.143 103.3v12.405h-9.735V103.3h-7.08v38.824h7.08v-19.965h9.735v19.965h7.08V103.3h-7.08z" fill="#fff"/></g></g><g><mask id="h" maskUnits="userSpaceOnUse" x="0" y="6" width="366" height="179"><path fill-rule="evenodd" clip-rule="evenodd" d="M0 184.07h365.056V6.082H0V184.07z" fill="#fff"/></mask><g mask="url(#h)"><path fill-rule="evenodd" clip-rule="evenodd" d="M214.674 116.077c.975-.045 2.06-.074 3.282-.074 11.132 0 12.785 8.747 12.785 12.953 0 3.554-1.663 13.154-12.394 13.154H207.583v-38.809h19.818v6.454h-12.727v6.322zm0 19.879s1.734.16 2.423.16c1.921 0 6.593-.4 6.593-6.985 0-6.983-4.019-6.976-7.549-6.971l-.3.001c-.609 0-1.167.131-1.167.131v13.664z" fill="#fff"/></g></g><g><mask id="i" maskUnits="userSpaceOnUse" x="0" y="6" width="366" height="179"><path fill-rule="evenodd" clip-rule="evenodd" d="M0 184.07h365.056V6.082H0V184.07z" fill="#fff"/></mask><g mask="url(#i)"><path fill-rule="evenodd" clip-rule="evenodd" d="M259.552 55.669c1.467 2.826 2.414 6.803 2.537 12.355l.016 1.256-.001-.001c-.003 3.459-.386 6.813-1.134 9.514-1.948 7.952-6.448 10.765-11.145 10.85l-.038.002-.059.002h-.031l-.032-.001h-.031l-.031.001-.057-.002-.04-.002c-4.697-.085-9.197-2.898-11.145-10.85-.748-2.701-1.13-6.056-1.134-9.514h-.001l.016-1.255c.123-5.552 1.069-9.53 2.537-12.355 2.314-4.83 5.997-6.633 9.8-6.679.004 0 .008 0 .012-.002a1.068 1.068 0 0 1 .043-.001l.031.001h.032l.031-.001c.004 0 .008 0 .012.002l.012.001c3.803.046 7.487 1.85 9.8 6.679zm-15.246 13.79v.004c.061 10.26 2.639 13.764 5.359 13.817 2.72-.053 5.3-3.557 5.359-13.817v-.003c-.059-10.505-2.639-13.962-5.359-14.013-2.72.051-5.299 3.508-5.359 14.013z" fill="#fff"/></g></g><g><mask id="j" maskUnits="userSpaceOnUse" x="0" y="6" width="366" height="179"><path fill-rule="evenodd" clip-rule="evenodd" d="M0 184.07h365.056V6.082H0V184.07z" fill="#fff"/></mask><g mask="url(#j)"><path d="M329.551 142.113l-8.536-22.749c1.772-1.328 3.152-3.872 3.765-6.406.595-2.462 1.378-9.658 1.378-9.658h-6.981c-.043.732-.194 3.195-.412 5.698-.323 3.711-1.409 7.134-5.18 7.134h-2.91c-.006-.311 0-12.832 0-12.832h-7.098v38.824h7.098v-19.712s3.754.005 4.285.001l6.971 19.7h7.62z" fill="#fff"/></g></g></symbol><symbol id="temp-icon-left-arrow" viewBox="0 0 31.494 31.494"><path d="M10.273 5.01a1.117 1.117 0 0 1 1.587 1.57l-8.047 8.047h26.554c.62 0 1.127.492 1.127 1.11 0 .62-.508 1.128-1.127 1.128H3.813l8.047 8.032c.43.444.43 1.16 0 1.587a1.112 1.112 0 0 1-1.587 0L.32 16.532a1.12 1.12 0 0 1 0-1.57l9.953-9.953z" fill="#1E201D"/></symbol><symbol id="temp-icon-right-arrow" viewBox="0 0 31.49 31.49"><path d="M21.205 5.007a1.117 1.117 0 0 0-1.587 1.57l8.047 8.048H1.11c-.618 0-1.11.493-1.11 1.112 0 .62.492 1.127 1.11 1.127h26.555l-8.047 8.032c-.43.444-.43 1.16 0 1.587.444.444 1.16.444 1.587 0l9.952-9.952a1.092 1.092 0 0 0 0-1.57l-9.952-9.95z" fill="#1E201D"/></symbol><symbol id="visa" viewBox="0 0 240 192"><mask id="a" maskUnits="userSpaceOnUse" x="0" y="60" width="240" height="78"><path fill-rule="evenodd" clip-rule="evenodd" d="M0 137.731V60h240v77.731H0z" fill="#fff"/></mask><g mask="url(#a)"><path fill-rule="evenodd" clip-rule="evenodd" d="M171.45 112.009c.051-11.871-9.753-17.031-17.598-21.16-5.267-2.772-9.651-5.079-9.573-8.64.055-2.7 2.618-5.565 8.224-6.297 2.781-.364 10.436-.646 19.123 3.363l3.403-15.938C170.357 61.634 164.357 60 156.887 60c-19.166 0-32.657 10.222-32.773 24.856-.12 10.82 9.63 16.857 16.98 20.453 7.552 3.688 10.093 6.05 10.059 9.343-.047 5.048-6.026 7.271-11.602 7.362-9.46.147-15.066-2.477-19.508-4.557l-.412-.192-3.514 16.471c4.53 2.089 12.892 3.9 21.57 3.995 20.37 0 33.699-10.096 33.763-25.722zm-52.616-50.635l-16.037 75.183H83.404l16.042-75.183h19.388zm81.592 48.546l10.208-28.232 5.876 28.232h-16.084zM240 136.557h-17.936v-.004l-2.335-11.224h-24.883l-4.042 11.228h-20.365l29.095-69.667c1.397-3.345 4.535-5.516 8.255-5.516h16.56L240 136.557zm-180.296 0l31.419-75.183h-20.37L50.57 112.546l-8.168-43.507c-.956-4.857-4.74-7.665-8.94-7.665h-33L0 63.554c6.771 1.481 14.473 3.856 19.131 6.395 2.855 1.556 3.669 2.908 4.612 6.604L39.2 136.557h20.503z" fill="#011340"/></g></symbol></svg>