<svg xmlns="http://www.w3.org/2000/svg" style="display:none"><symbol id="icon-search" viewBox="0 0 72 72"><g fill-rule="evenodd" clip-rule="evenodd"><path d="M27 45c9.941 0 18-8.059 18-18S36.941 9 27 9 9 17.059 9 27s8.059 18 18 18z" fill="#EDEFF2"/><path d="M6 27c0 11.7 9.3 21 21 21 5.25 0 10.015-1.872 13.675-4.993L42 44.333V48l18 18 6-6-18-18h-4.09l-1.098-1.099C46.05 37.213 48 32.358 48 27c0-11.7-9.3-21-21-21S6 15.3 6 27zm6 0c0-8.4 6.6-15 15-15s15 6.6 15 15-6.6 15-15 15-15-6.6-15-15z" fill="#1A1919"/></g></symbol><symbol id="ic_compare" viewBox="0 0 72 72"><path fill="#EDEFF2" d="M21 9h42v42H21z"/><path fill-rule="evenodd" clip-rule="evenodd" d="M18 12c0-3.3 2.7-6 6-6h36c3.3 0 6 2.7 6 6v36c0 3.3-2.7 6-6 6H24c-3.3 0-6-2.7-6-6V12zm42 0H24v36h36V12zM45 33v12h-6V33H27v-6h12V15h6v12h12v6H45zM6 60V18h6v42h42v6H12c-3.3 0-6-2.7-6-6z" fill="#1A1919"/></symbol><symbol id="ic_fav" viewBox="0 0 72 72"><g fill-rule="evenodd" clip-rule="evenodd"><path d="M45.489 49.935c-.597.54-1.116 1.008-1.539 1.404A571.371 571.371 0 0 1 36 58.58a607.775 607.775 0 0 1-7.95-7.24c-.423-.396-.945-.867-1.539-1.404C21.723 45.603 9 34.098 9 24.25c0-6.513 5.298-11.814 11.811-11.814 6.165 0 9.741 4.302 9.834 4.416L36 22.563l5.352-5.709c.033-.045 3.669-4.416 9.834-4.416C57.702 12.438 63 17.736 63 24.25c0 9.85-12.723 21.354-17.511 25.686z" fill="#EDEFF2"/><path d="M49.5 9C40.815 9 36 15.27 36 15.27S31.185 9 22.5 9C13.386 9 6 16.386 6 25.5c0 12.513 14.736 24.639 18.843 28.47C29.574 58.38 36 64.05 36 64.05s6.426-5.67 11.157-10.08C51.264 50.139 66 38.013 66 25.5 66 16.386 58.614 9 49.5 9zm-5.067 39.33c-.531.48-.993.897-1.368 1.248A525.335 525.335 0 0 1 36 56.013a527.14 527.14 0 0 1-7.065-6.435c-.378-.351-.84-.771-1.368-1.248C23.307 44.481 12 34.257 12 25.5 12 19.71 16.71 15 22.5 15c5.481 0 8.658 3.825 8.742 3.924L36 24l4.758-5.076C40.788 18.885 44.019 15 49.5 15 55.29 15 60 19.71 60 25.5c0 8.757-11.307 18.981-15.567 22.83z" fill="#1A1919"/></g></symbol><symbol id="ic_plus-car" viewBox="0 0 144 144"><path opacity=".3" d="M135 69v36h-12.6v-3c0-8.4-6.6-15-15-15S93 93.6 93 102v3H44.4c.6-1.2.6-1.8.6-3 0-8.4-6.6-15-15-15s-15 6.6-15 15v3H9V63h96l30 6z" fill="#BA0000"/><path fill-rule="evenodd" clip-rule="evenodd" d="M3 99c0 5.098 3.222 9.48 7.73 11.211C13.993 117.657 21.496 123 30 123c8.2 0 15.47-4.968 18.904-12h40.192c3.434 7.032 10.703 12 18.904 12 8.857 0 16.628-5.795 19.654-13.727l9.746-4.873c2.4-1.2 3.6-3 3.6-5.4V73.8c0-6-4.2-10.8-9.6-12l-22.2-4.2-15-30.6c-1.8-3.6-6-6-10.2-6H30.6c-4.2 0-8.4 1.8-10.8 6L3.6 60.6C3 61.2 3 61.8 3 63v36zm125.4-3.6l-.43.215C125.201 87.231 117.185 81 108 81c-10.384 0-19.274 7.965-20.777 18H50.777C49.274 88.965 40.384 81 30 81c-5.813 0-11.157 2.496-15 6.453V69h88.8l24.6 4.8v21.6zM95.182 57L83.4 33H63v24h32.182zM75 57a6 6 0 1 1 0-12 6 6 0 0 1 0 12zm-24 0V33H30.6l-12 24H51zm-12 0a6 6 0 1 1 0-12 6 6 0 0 1 0 12zm-9 36c-4.8 0-9 4.2-9 9s4.2 9 9 9 9-4.2 9-9-4.2-9-9-9zm69 9c0-4.8 4.2-9 9-9s9 4.2 9 9-4.2 9-9 9-9-4.2-9-9z" fill="#1A1919"/></symbol><symbol id="ic_plus-care" viewBox="0 0 144 144"><path d="M107.85 18c-5.184 0-11.184 3.432-15.252 6.27C88.896 21.444 83.322 18 78.15 18 71.448 18 66 23.448 66 30.15l.036.636c.96 8.922 19.272 25.956 22.932 29.28l4.026 3.654 4.032-3.648c5.142-4.656 22.002-20.55 22.938-29.412l.036-.63c0-6.636-5.454-12.03-12.15-12.03z" fill="#BA0000" opacity=".3"/><path fill-rule="evenodd" clip-rule="evenodd" d="M107.85 12C98.298 12 93 18.894 93 18.894S87.702 12 78.15 12C68.124 12 60 20.124 60 30.15 60 45 93 71.4 93 71.4s33-26.4 33-41.25C126 20.124 117.876 12 107.85 12zM93.006 55.626C81.852 45.504 72.444 34.296 72 30.15c0-3.39 2.76-6.15 6.15-6.15 5.88 0 14.244 7.956 14.244 7.956S101.958 24 107.85 24c3.39 0 6.15 2.76 6.156 6.036-.456 4.308-9.732 15.39-21 25.59zm24.51 18.858a8.488 8.488 0 0 1 12 0 8.488 8.488 0 0 1 0 12l-30 30A12.004 12.004 0 0 1 91.032 120H48l-12 12-24-24 22.974-22.968A23.972 23.972 0 0 1 51.942 78H90v6c0 6.63-5.37 12-12 12H66a3.001 3.001 0 0 0 0 6h24l27.516-27.516z" fill="#1A1919"/></symbol><symbol id="ic_plus-music" viewBox="0 0 144 144"><path opacity=".3" d="M51 123c13.255 0 24-10.745 24-24S64.255 75 51 75 27 85.745 27 99s10.745 24 24 24zM117 51L75 39V15l42 12v24z" fill="#BA0000"/><path fill-rule="evenodd" clip-rule="evenodd" d="M81 51h36c3.6 0 6-2.4 6-6V21c0-3.6-2.4-6-6-6H75c-3.6 0-6 2.4-6 6v53.856C64.015 71.164 57.803 69 51 69c-16.8 0-30 13.2-30 30s13.2 30 30 30 30-13.2 30-30V51zm0-12h30V27H81v12zM51 81c10.2 0 18 7.8 18 18s-7.8 18-18 18-18-7.8-18-18 7.8-18 18-18z" fill="#1A1919"/></symbol><symbol id="ic_plus-sale" viewBox="0 0 144 144"><path opacity=".3" d="M24 15h84v18l12 36H12l12-36V15z" fill="#BA0000"/><path fill-rule="evenodd" clip-rule="evenodd" d="M114 15v18l12 30v12H24v30h54v12H24c-6.6 0-12-5.4-12-12V75H6V63l12-30V15c0-3.6 2.4-6 6-6h84c3.6 0 6 2.4 6 6zM30 35.4L19.2 63h93.6L102 35.4V21H30v14.4zm6-2.4c0-3.6 2.4-6 6-6s6 2.4 6 6-2.4 6-6 6-6-2.4-6-6zm24-6c-3.6 0-6 2.4-6 6s2.4 6 6 6 6-2.4 6-6-2.4-6-6-6zm60 99c0-4.8 4.2-9 9-9s9 4.2 9 9-4.2 9-9 9-9-4.2-9-9zM99 87c-4.8 0-9 4.2-9 9s4.2 9 9 9 9-4.2 9-9-4.2-9-9-9zm39 0l-35.4 48H90l35.4-48H138z" fill="#1A1919"/></symbol><symbol id="ic_shopping_cart" viewBox="0 0 72 72"><path d="M18.71 15h44.286L52.187 34.458A3.009 3.009 0 0 1 49.563 36h-24.52L18.71 15z" fill="#EDEFF2"/><path fill-rule="evenodd" clip-rule="evenodd" d="M23.826 51H60v-6H23.826l-.195-.351 3.53-5.65h22.402a6.005 6.005 0 0 0 5.247-3.086l10.809-19.455a2.992 2.992 0 0 0-.036-2.98A3.006 3.006 0 0 0 62.997 12H18.748l-2.503-6.01-10.233.049.027 6 6.213-.03 9.882 23.715-3.591 5.748A6.229 6.229 0 0 0 23.826 51zm-2.578-33h36.649l-8.334 15H27.498l-6.25-15zM54 66a6 6 0 1 0 0-12 6 6 0 0 0 0 12zm-24-6a6 6 0 1 1-12 0 6 6 0 0 1 12 0z" fill="#1A1919"/></symbol><symbol id="temp-icon-left-arrow" viewBox="0 0 31.494 31.494"><path d="M10.273 5.01a1.117 1.117 0 0 1 1.587 1.57l-8.047 8.047h26.554c.62 0 1.127.492 1.127 1.11 0 .62-.508 1.128-1.127 1.128H3.813l8.047 8.032c.43.444.43 1.16 0 1.587a1.112 1.112 0 0 1-1.587 0L.32 16.532a1.12 1.12 0 0 1 0-1.57l9.953-9.953z" fill="#1E201D"/></symbol><symbol id="temp-icon-right-arrow" viewBox="0 0 31.49 31.49"><path d="M21.205 5.007a1.117 1.117 0 0 0-1.587 1.57l8.047 8.048H1.11c-.618 0-1.11.493-1.11 1.112 0 .62.492 1.127 1.11 1.127h26.555l-8.047 8.032c-.43.444-.43 1.16 0 1.587.444.444 1.16.444 1.587 0l9.952-9.952a1.092 1.092 0 0 0 0-1.57l-9.952-9.95z" fill="#1E201D"/></symbol></svg>